/* XPM */
static char * hardrive_xpm[] = {
"48 48 132 2",
"  	g None",
". 	g #686868",
"+ 	g #7E7E7E",
"@ 	g #828282",
"# 	g #818181",
"$ 	g #808080",
"% 	g #7F7F7F",
"& 	g #7D7D7D",
"* 	g #6E6E6E",
"= 	g #696969",
"- 	g #B6B6B6",
"; 	g #E0E0E0",
"> 	g #E1E1E1",
", 	g #DFDFDF",
"' 	g #DEDEDE",
") 	g #DDDDDD",
"! 	g #DCDCDC",
"~ 	g #DBDBDB",
"{ 	g #DADADA",
"] 	g #D9D9D9",
"^ 	g #D8D8D8",
"/ 	g #D7D7D7",
"( 	g #C1C1C1",
"_ 	g #777777",
": 	g #8F8F8F",
"< 	g #EAEAEA",
"[ 	g #EBEBEB",
"} 	g #E7E7E7",
"| 	g #E8E8E8",
"1 	g #E6E6E6",
"2 	g #E5E5E5",
"3 	g #E4E4E4",
"4 	g #E3E3E3",
"5 	g #E2E2E2",
"6 	g #A6A6A6",
"7 	g #595959",
"8 	g #5F5F5F",
"9 	g #B9B9B9",
"0 	g #EEEEEE",
"a 	g #CBCBCB",
"b 	g #787878",
"c 	g #E9E9E9",
"d 	g #9F9F9F",
"e 	g #ECECEC",
"f 	g #626262",
"g 	g #C7C7C7",
"h 	g #D2D2D2",
"i 	g #888888",
"j 	g #585858",
"k 	g #5D5D5D",
"l 	g #AFAFAF",
"m 	g #C2C2C2",
"n 	g #6C6C6C",
"o 	g #747474",
"p 	g #D3D3D3",
"q 	g #898989",
"r 	g #959595",
"s 	g #AEAEAE",
"t 	g #5E5E5E",
"u 	g #636363",
"v 	g #BEBEBE",
"w 	g #CECECE",
"x 	g #767676",
"y 	g #989898",
"z 	g #A5A5A5",
"A 	g #BBBBBB",
"B 	g #6F6F6F",
"C 	g #CACACA",
"D 	g #D5D5D5",
"E 	g #858585",
"F 	g #616161",
"G 	g #B3B3B3",
"H 	g #EDEDED",
"I 	g #D4D4D4",
"J 	g #C5C5C5",
"K 	g #727272",
"L 	g #797979",
"M 	g #D6D6D6",
"N 	g #919191",
"O 	g #9A9A9A",
"P 	g #B5B5B5",
"Q 	g #B7B7B7",
"R 	g #BDBDBD",
"S 	g #CFCFCF",
"T 	g #BFBFBF",
"U 	g #C0C0C0",
"V 	g #BCBCBC",
"W 	g #BABABA",
"X 	g #B8B8B8",
"Y 	g #B4B4B4",
"Z 	g #B2B2B2",
"` 	g #B1B1B1",
" .	g #B0B0B0",
"..	g #ADADAD",
"+.	g #ACACAC",
"@.	g #ABABAB",
"#.	g #AAAAAA",
"$.	g #A9A9A9",
"%.	g #A8A8A8",
"&.	g #A7A7A7",
"*.	g #6D6D6D",
"=.	g #A3A3A3",
"-.	g #A2A2A2",
";.	g #A4A4A4",
">.	g #A0A0A0",
",.	g #9E9E9E",
"'.	g #999999",
").	g #9C9C9C",
"!.	g #8E8E8E",
"~.	g #8B8B8B",
"{.	g #969696",
"].	g #9B9B9B",
"^.	g #929292",
"/.	g #8D8D8D",
"(.	g #6B6B6B",
"_.	g #5C5C5C",
":.	g #C4C4C4",
"<.	g #C6C6C6",
"[.	g #A1A1A1",
"}.	g #565656",
"|.	g #D1D1D1",
"1.	g #C3C3C3",
"2.	g #9D9D9D",
"3.	g #484848",
"4.	g #555555",
"5.	g #4E4E4E",
"6.	g #676767",
"7.	g #666666",
"8.	g #656565",
"9.	g #646464",
"0.	g #606060",
"a.	g #535353",
"                                                                                                ",
"                                                                                                ",
"                                                                                                ",
"                                                                                                ",
"                                                                                                ",
"                                                                                                ",
"                                                                                                ",
"                    . + @ @ @ @ @ @ # # # # # $ $ $ $ $ % % % % % % % + & *                     ",
"                  = - ; ; > ; ; ; , , , ' ' ) ) ) ! ~ ~ ~ { ] ] ] ^ ^ / / ( _                   ",
"                  : < [ } | | | | | } } 1 1 2 3 3 4 4 5 5 > > ; ; , ' ' ' 2 6 7                 ",
"                8 9 0 4 5 4 4 3 4 4 5 5 > > ; ; , ' ' ) ) ! ! ~ ~ { ] ] ^ > a *                 ",
"                b ) c 3 5 4 4 4 4 4 4 4 5 5 > > ; , , ' ' ) ! ~ ~ { ] ] { ) , :                 ",
"                d e 4 3 3 5 4 3 2 1 1 2 3 4 5 > ; ; ; > 5 5 > , ) ~ { { ! ~ > - f               ",
"              = g [ > 5 3 3 1 } } } 2 3 4 5 > > > 5 4 3 3 4 5 > ; ' ! ~ { ^ ) h &               ",
"              i 5 2 > 4 2 } } } 1 2 3 4 5 > > 5 4 3 3 4 4 5 > ; , ' ) ! { ^ ] , d j             ",
"            k l [ > 4 1 } 1 2 2 3 4 5 5 > 5 4 3 2 3 3 4 5 > ; , ' ' ) ! ~ { ^ , m n             ",
"            o p | > 2 1 2 3 3 4 5 5 > 5 4 3 2 2 3 3 4 5 > ; , ' ' ) ! ! ~ ~ { ~ ] q             ",
"            r } 5 4 3 3 4 5 5 > > 5 4 3 2 2 2 3 4 4 > > ; , ' ' ) ! ! ! ! ~ ~ ] , s t           ",
"          u v c , 4 5 5 > > ; > 5 4 3 2 2 2 3 4 5 > > ; , ' ' ) ) ! ! ! ! ! ~ { ~ w x           ",
"          + ) 4 ; 4 ; ; ; ; > 4 3 2 2 2 3 4 4 5 > > ; , ' ' ) ) ) ! ! ! ! ! ! ) ] ~ y           ",
"          z | ) ; 2 ; , ; > 4 3 2 3 3 4 4 5 5 > ; ; ' ' ) ) ) ) ) ) ) ! ! ! , ; / ! A .         ",
"        B C 1 ! ) 2 1 > 5 4 3 3 3 4 4 5 5 > ; ; , ' ' ' ' ) ) ) ) ) ) ) ! , 2 ! D ^ p E         ",
"        : > , ~ ! ; c < 1 3 4 4 5 5 > > ; ; , , ' ' ' ' ' ) ' ) ) ) ) ' 5 } > / D D ~ 6 t       ",
"      F G } ~ ~ ~ ! ; c H c 3 5 > > ; ; , , ' ' ' ' ' ' ' ' ) ) ) ' 5 } c ; / D D I ] J K       ",
"      L I 5 ) , ! ~ ~ ) 2 [ H < 1 4 > , ' ' ' ' ' ' ' ' ' ' , 5 2 < < 1 ! / D M { { / M N       ",
"      O 3 ) 1 c > ~ ~ ~ ~ ' 3 < H H e < } 1 2 3 3 3 2 1 | < e e < 2 ' ^ M M D ] 3 1 ~ ] P u     ",
"    t Q 2 { > 3 ' { { { { { ~ ! , 5 } < [ e H H H H H [ c } 4 , { ^ M M M D I M ) , / M w x     ",
"    u m < ; > 5 > > > 5 5 5 5 5 5 5 5 4 3 2 1 1 } 1 2 3 5 > ; , , , , ' ' ) ) ) ) ) ! ; p x     ",
"    f v 1 > 5 5 5 > 5 5 > > > > ; , , , , ' ' ' ' ) ) ) ) ! ! ~ ~ ~ { { { ] ] ] ^ ^ ^ ^ R *     ",
"    f 9 S T ( ( U T v R R V A W W 9 X Q Q - P Y Y G Z `  .l l s ..+.+.@.#.$.%.%.&.&.6 $.%.*.    ",
"    f X a W W X P Y G G G G Z Z ` `  . .l s ....+.@.#.$.%.$.@.6 %.z &.=.z -.;.>.=.>.,.-.6 *.    ",
"    f Q a W A ` O '.).d =.z &.$.@...s s l s s s ..@.#.#.%...9 $.P %.Y 6 G z ` =.G 6 ,.=.z *.    ",
"    f Q a W A s !.~.N {.].d -.z %.#.+...s s s ..+.@.#.$.%.s V $.X %.Q 6 - z P =.Q &.,.=.z n     ",
"    f - a W A ` ^./.^.{.).d -.z %.#.+.....s s ..+.#.#.$.&...V $.X %.- 6 P z Y =.- &.,.=.;.n     ",
"    F P C W W P >.'.y y ].d -.z %.#.@.....s s ..+.#.$.%.&...V $.Q &.P 6 P z Y =.- &.,.-.=.(.    ",
"    t P C W 9 A Q Y Y ` @.%.6 &.$.#.+.........+.+.#.$.%.&...V %.Q &.P z P z Y =.Q &.,.-.-.(.    ",
"    _.Y C 9 X V :.J <.<.J m R X Y Z  .s ..+.+.@.#.$.%.&.6 @.Q &.G z ` ;. .=. .-.` z ,.-.[.=     ",
"    }.+.|.1.m m m m ( U T v v R A W X - P Y G Z `  .l s ..s l #.+.$.#.6 %.z %.;.&.;.=.6 2.u     ",
"    3.$ 9 m ( U v v R V W W 9 Q Q - P Y G `  .l s ..+.@.#.$.&.6 z ;.=.-.>.d ,.2.).).].'.+ 4.    ",
"      5.F . 6.7.7.7.7.7.7.7.8.8.8.8.9.9.9.u u u u f f f f f F F 0.0.0.0.8 8 8 8 8 8 8 k a.      ",
"                                                                                                ",
"                                                                                                ",
"                                                                                                ",
"                                                                                                ",
"                                                                                                ",
"                                                                                                ",
"                                                                                                ",
"                                                                                                "};
