/* XPM */
static char * help_browser_xpm[] = {
"48 48 851 2",
"  	c None",
". 	c #EED714",
"+ 	c #F1DE3C",
"@ 	c #EED818",
"# 	c #EED712",
"$ 	c #F5E771",
"% 	c #F9F2B0",
"& 	c #F9F1AB",
"* 	c #F7EC8D",
"= 	c #F1DE37",
"- 	c #8F918D",
"; 	c #969793",
"> 	c #9B9D98",
", 	c #9D9F9A",
"' 	c #8F918C",
") 	c #EFD719",
"! 	c #EFD922",
"~ 	c #EFD81B",
"{ 	c #F1DE40",
"] 	c #F9F0AA",
"^ 	c #F3E255",
"/ 	c #F1DE3B",
"( 	c #F7EC8A",
"_ 	c #F6EB9C",
": 	c #DFB12B",
"< 	c #AB6C35",
"[ 	c #95908E",
"} 	c #A6A8A4",
"| 	c #B8BAB6",
"1 	c #C8C9C6",
"2 	c #D4D5D2",
"3 	c #DBDCD9",
"4 	c #DEE0DD",
"5 	c #C7C9C5",
"6 	c #B7B9B5",
"7 	c #95908C",
"8 	c #D08B07",
"9 	c #EED72F",
"0 	c #F5E76C",
"a 	c #F7EC90",
"b 	c #F8EE9A",
"c 	c #F7ED94",
"d 	c #F4E66B",
"e 	c #F0DA26",
"f 	c #EFD819",
"g 	c #F6EB88",
"h 	c #F7EB8B",
"i 	c #EFD814",
"j 	c #E2B91E",
"k 	c #D08653",
"l 	c #BC4C38",
"m 	c #BF7369",
"n 	c #D1CAC8",
"o 	c #E5E7E4",
"p 	c #F0F1EF",
"q 	c #F5F6F4",
"r 	c #F7F8F6",
"s 	c #F8F8F7",
"t 	c #F8F9F7",
"u 	c #EFF0EF",
"v 	c #E4E6E4",
"w 	c #D1C9C6",
"x 	c #BD6E6B",
"y 	c #B8421F",
"z 	c #D18756",
"A 	c #EED490",
"B 	c #F5E76D",
"C 	c #F3E356",
"D 	c #F5E568",
"E 	c #F8EFA0",
"F 	c #F7EE97",
"G 	c #F0DC31",
"H 	c #EED610",
"I 	c #F1DE3E",
"J 	c #F7EC8C",
"K 	c #F9EFA3",
"L 	c #F1DF3B",
"M 	c #AE2C16",
"N 	c #BF564C",
"O 	c #DA9999",
"P 	c #EDBAB9",
"Q 	c #F4DAD8",
"R 	c #F7F7F6",
"S 	c #F9FAF9",
"T 	c #FAFBFA",
"U 	c #FCFCFB",
"V 	c #FCFCFC",
"W 	c #FDFDFC",
"X 	c #FCFDFC",
"Y 	c #FBFBFA",
"Z 	c #FAFAF9",
"` 	c #F8F7F6",
" .	c #F4D9D7",
"..	c #EDB9B7",
"+.	c #DA9494",
"@.	c #C05553",
"#.	c #BD501F",
"$.	c #CD8206",
"%.	c #F0DA28",
"&.	c #F7ED92",
"*.	c #F7EB8A",
"=.	c #EED713",
"-.	c #F2DF43",
";.	c #F6EA82",
">.	c #F9F0A8",
",.	c #F6EB87",
"'.	c #F1DE36",
").	c #AE2A2B",
"!.	c #CC7E7E",
"~.	c #E9C2C1",
"{.	c #F3BEBD",
"].	c #F39B9A",
"^.	c #F59E9D",
"/.	c #FBEAE9",
"(.	c #FDFEFD",
"_.	c #FDFDFD",
":.	c #FBE7E7",
"<.	c #F5A5A4",
"[.	c #F4A4A3",
"}.	c #F3BFBE",
"|.	c #E9BCBB",
"1.	c #CC7978",
"2.	c #AE2929",
"3.	c #F1DE3F",
"4.	c #F9F0A7",
"5.	c #F1DE3D",
"6.	c #F1DD37",
"7.	c #F6EB86",
"8.	c #F9F1AA",
"9.	c #F7EB87",
"0.	c #F2E048",
"a.	c #EFD916",
"b.	c #B23434",
"c.	c #D69D9B",
"d.	c #EFD2D0",
"e.	c #F3BEBC",
"f.	c #F49B9A",
"g.	c #F47A7A",
"h.	c #F36262",
"i.	c #F8B3B2",
"j.	c #FBFAF9",
"k.	c #FAFAFA",
"l.	c #F9F9F8",
"m.	c #F8F8F8",
"n.	c #FAF5F5",
"o.	c #F7AEAD",
"p.	c #F47777",
"q.	c #F58C8C",
"r.	c #F5A4A4",
"s.	c #F4BFBD",
"t.	c #EFCCCA",
"u.	c #D69795",
"v.	c #B23332",
"w.	c #F0DA1C",
"x.	c #F8ED96",
"y.	c #F5E770",
"z.	c #EDD407",
"A.	c #F2DE3F",
"B.	c #F2DF40",
"C.	c #EED611",
"D.	c #B33838",
"E.	c #DAA8A6",
"F.	c #F1D8D6",
"G.	c #F4BCBB",
"H.	c #F59C9C",
"I.	c #F47B7B",
"J.	c #F25A59",
"K.	c #F03A3A",
"L.	c #F26767",
"M.	c #F7E2E1",
"N.	c #F7F9F8",
"O.	c #F6F6F5",
"P.	c #F5F5F4",
"Q.	c #F6D0CF",
"R.	c #F26564",
"S.	c #F25959",
"T.	c #F47474",
"U.	c #F58D8D",
"V.	c #F6A6A5",
"W.	c #F5BEBC",
"X.	c #F1D2D0",
"Y.	c #D9A29F",
"Z.	c #B33736",
"`.	c #F4E358",
" +	c #F9F1AD",
".+	c #F3E152",
"++	c #EED60E",
"@+	c #EED60D",
"#+	c #F7EA86",
"$+	c #EFD817",
"%+	c #AF2E2E",
"&+	c #D7A09E",
"*+	c #F0D8D5",
"=+	c #F4BDBB",
"-+	c #F47D7D",
";+	c #F25B5B",
">+	c #F03C3C",
",+	c #EF2A2A",
"'+	c #F03E3D",
")+	c #F3B9B8",
"!+	c #F4F6F5",
"~+	c #F3F3F2",
"{+	c #F2F2F1",
"]+	c #F3F4F2",
"^+	c #F4F2F0",
"/+	c #F29999",
"(+	c #F03738",
"_+	c #F04242",
":+	c #F15B5B",
"<+	c #F37575",
"[+	c #F68F8F",
"}+	c #F6A7A6",
"|+	c #F5BDBC",
"1+	c #F0D2D0",
"2+	c #D69A98",
"3+	c #AF2B2C",
"4+	c #EED614",
"5+	c #F4E669",
"6+	c #F5E774",
"7+	c #F7EB88",
"8+	c #D69909",
"9+	c #AD2918",
"0+	c #CE8685",
"a+	c #EED5D3",
"b+	c #F59E9E",
"c+	c #F47E7E",
"d+	c #F25D5C",
"e+	c #F03D3D",
"f+	c #EF2C2C",
"g+	c #EF2828",
"h+	c #F08887",
"i+	c #F1ECEA",
"j+	c #F0F1F0",
"k+	c #F0F0EE",
"l+	c #F0F2F0",
"m+	c #F1E1DF",
"n+	c #F06A6A",
"o+	c #EF3131",
"p+	c #F04444",
"q+	c #F15C5C",
"r+	c #F47676",
"s+	c #F6A7A7",
"t+	c #F4BEBD",
"u+	c #EFCFCD",
"v+	c #CD817F",
"w+	c #A81919",
"x+	c #EFD90F",
"y+	c #F2E14D",
"z+	c #F9EFA1",
"A+	c #F7EB89",
"B+	c #EFD91C",
"C+	c #F2E049",
"D+	c #F6E981",
"E+	c #F1DE6C",
"F+	c #C9722F",
"G+	c #C15F57",
"H+	c #EACAC8",
"I+	c #F2BFBD",
"J+	c #F49F9E",
"K+	c #F47F7F",
"L+	c #F25D5D",
"M+	c #F03E3E",
"N+	c #EF2929",
"O+	c #EF2626",
"P+	c #EF605F",
"Q+	c #F1DBDA",
"R+	c #F1F2F1",
"S+	c #EFEFED",
"T+	c #EDEDEB",
"U+	c #F1F3F1",
"V+	c #F1CDCC",
"W+	c #EF4C4C",
"X+	c #F15D5D",
"Y+	c #F6908F",
"Z+	c #EAC4C2",
"`+	c #BF5857",
" @	c #A30D0E",
".@	c #EDD400",
"+@	c #FAF3B5",
"@@	c #F2DF41",
"#@	c #F2E14F",
"$@	c #F8EE91",
"%@	c #E2B575",
"&@	c #BB4D46",
"*@	c #DCA4A2",
"=@	c #F1C1BF",
"-@	c #F39F9E",
";@	c #F48180",
">@	c #F35E5E",
",@	c #F03F3F",
"'@	c #EF2D2C",
")@	c #F03030",
"!@	c #EF5656",
"~@	c #E4B9B8",
"{@	c #CFD1CE",
"]@	c #BFC0BD",
"^@	c #E4B1AF",
"/@	c #F05151",
"(@	c #F03333",
"_@	c #F04646",
":@	c #F15E5E",
"<@	c #F69191",
"[@	c #F4A8A7",
"}@	c #F2C1BF",
"|@	c #DC9F9E",
"1@	c #B2322B",
"2@	c #CF850B",
"3@	c #F1DE32",
"4@	c #F8EF9F",
"5@	c #F0DB29",
"6@	c #EFD713",
"7@	c #EACC17",
"8@	c #BE5811",
"9@	c #C66864",
"0@	c #ECBDBC",
"a@	c #F1A09E",
"b@	c #F35F5F",
"c@	c #F04040",
"d@	c #EF2D2D",
"e@	c #F03939",
"f@	c #E94444",
"g@	c #D03535",
"h@	c #B25150",
"i@	c #968E8A",
"j@	c #8C8E8A",
"k@	c #8C8E89",
"l@	c #B2514F",
"m@	c #D03939",
"n@	c #E94C4C",
"o@	c #F13D3D",
"p@	c #EF2B2B",
"q@	c #EF3232",
"r@	c #F14747",
"s@	c #F25F5F",
"t@	c #F47878",
"u@	c #F5908F",
"v@	c #F3A8A7",
"w@	c #EDBCBA",
"x@	c #C66560",
"y@	c #C76E3A",
"z@	c #F5E8A0",
"A@	c #F8ED94",
"B@	c #A85B55",
"C@	c #DBB4B2",
"D@	c #F1D5D3",
"E@	c #F4B1B0",
"F@	c #F48080",
"G@	c #F14848",
"H@	c #F03B3B",
"I@	c #E34343",
"J@	c #C02323",
"K@	c #A80C0B",
"L@	c #A80D0C",
"M@	c #C02828",
"N@	c #E44D4D",
"O@	c #F14141",
"P@	c #F14545",
"Q@	c #F26464",
"R@	c #F6B9B8",
"S@	c #F2D7D5",
"T@	c #DBB3B1",
"U@	c #B47162",
"V@	c #DEC855",
"W@	c #F0DA1D",
"X@	c #AFACA8",
"Y@	c #E8E8E5",
"Z@	c #F2F3F1",
"`@	c #FAF4F3",
" #	c #FADBDB",
".#	c #F59D9D",
"+#	c #F15252",
"@#	c #F13838",
"##	c #E44444",
"$#	c #BC2020",
"%#	c #A40A09",
"&#	c #A40A0A",
"*#	c #BD2626",
"=#	c #E55050",
"-#	c #F15251",
";#	c #F59F9F",
">#	c #FBF4F4",
",#	c #F4F4F3",
"'#	c #E8E9E6",
")#	c #B1ADA2",
"!#	c #A9A156",
"~#	c #8E908B",
"{#	c #C5C7C3",
"]#	c #EEEFEC",
"^#	c #F4F5F3",
"/#	c #FCFEFD",
"(#	c #F9F5F5",
"_#	c #F5CCCB",
":#	c #F17878",
"<#	c #EB4646",
"[#	c #C42928",
"}#	c #A50A0A",
"|#	c #A50B0B",
"1#	c #C53131",
"2#	c #EC5353",
"3#	c #F06D6C",
"4#	c #F4C2C1",
"5#	c #F8F1F1",
"6#	c #FBFCFC",
"7#	c #FCFDFD",
"8#	c #F6F7F5",
"9#	c #EFF1EE",
"0#	c #C4C7C3",
"a#	c #8D8F8D",
"b#	c #989A95",
"c#	c #D6D8D4",
"d#	c #F8F9F8",
"e#	c #F5F7F6",
"f#	c #F2E2E1",
"g#	c #F1A2A1",
"h#	c #D64949",
"i#	c #AB0E0E",
"j#	c #AC1111",
"k#	c #D75353",
"l#	c #F1A09F",
"m#	c #F1DCDB",
"n#	c #F7F8F7",
"o#	c #F1F2EF",
"p#	c #D6D8D5",
"q#	c #979995",
"r#	c #A3A5A0",
"s#	c #E1E3DF",
"t#	c #EAE2DF",
"u#	c #B86866",
"v#	c #B96A69",
"w#	c #EBE2E1",
"x#	c #F2F3F0",
"y#	c #E1E3E0",
"z#	c #A2A5A0",
"A#	c #ACAEAA",
"B#	c #E6E8E4",
"C#	c #F1F2F0",
"D#	c #DCDCD9",
"E#	c #9C918D",
"F#	c #9C928E",
"G#	c #DDDDDB",
"H#	c #F3F3F1",
"I#	c #F3F4F1",
"J#	c #E7E8E5",
"K#	c #ACAEA9",
"L#	c #B4B6B1",
"M#	c #E9EBE7",
"N#	c #FAFBF9",
"O#	c #F9F9F9",
"P#	c #CDCDCB",
"Q#	c #90938E",
"R#	c #CECFCC",
"S#	c #FBFCFB",
"T#	c #B8BAB5",
"U#	c #C5C5C3",
"V#	c #C6C7C4",
"W#	c #EAECE8",
"X#	c #F0F2EF",
"Y#	c #F6F6F6",
"Z#	c #C3C4C1",
"`#	c #8B8D88",
" $	c #C5C6C3",
".$	c #F2F4F1",
"+$	c #B5B7B2",
"@$	c #E8EAE6",
"#$	c #CACBC7",
"$$	c #CBCCC9",
"%$	c #F4F4F2",
"&$	c #AFB1AC",
"*$	c #E5E7E3",
"=$	c #EEF0EC",
"-$	c #F5F5F3",
";$	c #D6D7D5",
">$	c #959792",
",$	c #D9D9D7",
"'$	c #F0F1EE",
")$	c #A5A8A3",
"!$	c #E0E2DE",
"~$	c #ECEEEA",
"{$	c #F5F6F5",
"]$	c #FBFDFC",
"^$	c #F8FAFA",
"/$	c #E7E3E1",
"($	c #AC7D7A",
"_$	c #AE7E7C",
":$	c #E9E6E5",
"<$	c #A6A8A3",
"[$	c #D7D9D5",
"}$	c #EBECE9",
"|$	c #F2F4F2",
"1$	c #FCF5F5",
"2$	c #F8E2E2",
"3$	c #F5D3D2",
"4$	c #F3CDCC",
"5$	c #F2D5D4",
"6$	c #CC7C7B",
"7$	c #A61312",
"8$	c #A61313",
"9$	c #CE8585",
"0$	c #F3EBEA",
"a$	c #F3DFDE",
"b$	c #F5D9D8",
"c$	c #F8E3E2",
"d$	c #FCF4F4",
"e$	c #F4F6F4",
"f$	c #ECEEEB",
"g$	c #D8DAD5",
"h$	c #91938E",
"i$	c #C9CBC6",
"j$	c #E9ECE8",
"k$	c #EFEAE7",
"l$	c #F6C5C5",
"m$	c #F68E8E",
"n$	c #F37676",
"o$	c #F27D7D",
"p$	c #F29392",
"q$	c #F3B5B4",
"r$	c #E6B1B0",
"s$	c #B9403F",
"t$	c #BA4646",
"u$	c #E8C8C7",
"v$	c #F4DAD9",
"w$	c #F3B6B5",
"x$	c #F39898",
"y$	c #F48787",
"z$	c #F69494",
"A$	c #F7C4C3",
"B$	c #F1EAE8",
"C$	c #EAEDE9",
"D$	c #898B88",
"E$	c #B4B8B4",
"F$	c #E6D5D1",
"G$	c #ED908E",
"H$	c #F04747",
"I$	c #EF2E2E",
"J$	c #F15757",
"K$	c #F27575",
"L$	c #F29493",
"M$	c #F3BAB9",
"N$	c #DB9392",
"O$	c #B02A29",
"P$	c #B12E2E",
"Q$	c #DCA6A5",
"R$	c #F4DCDB",
"S$	c #F3B8B7",
"T$	c #F39594",
"U$	c #F27372",
"V$	c #F14E4E",
"W$	c #F03636",
"X$	c #EE8C8B",
"Y$	c #E7D3D0",
"Z$	c #B5B8B3",
"`$	c #8A8C87",
" %	c #A97A70",
".%	c #E17B7A",
"+%	c #F15858",
"@%	c #F29796",
"#%	c #F2BBBA",
"$%	c #D88C8C",
"%%	c #B22F2E",
"&%	c #B33333",
"*%	c #DA9D9D",
"=%	c #F3BBBA",
"-%	c #F29595",
";%	c #F27373",
">%	c #F15050",
",%	c #F03434",
"'%	c #E27574",
")%	c #A77674",
"!%	c #E1BF12",
"~%	c #BC5222",
"{%	c #D23A3C",
"]%	c #F15959",
"^%	c #F17776",
"/%	c #F3BDBD",
"(%	c #DF9F9F",
"_%	c #BF5150",
":%	c #A53E3C",
"<%	c #A53F3E",
"[%	c #C05757",
"}%	c #E1B1B0",
"|%	c #F4DCDC",
"1%	c #F3BCBB",
"2%	c #F27474",
"3%	c #F15151",
"4%	c #F03535",
"5%	c #D23635",
"6%	c #B33A13",
"7%	c #EED711",
"8%	c #F4E463",
"9%	c #D89D71",
"0%	c #BF2F27",
"a%	c #E74949",
"b%	c #F13535",
"c%	c #F15A5A",
"d%	c #F27878",
"e%	c #F39998",
"f%	c #F4C1C0",
"g%	c #EDCCCB",
"h%	c #D6BAB9",
"i%	c #B9B7B4",
"j%	c #A8AAA6",
"k%	c #A0A29E",
"l%	c #A9AAA6",
"m%	c #BAB8B5",
"n%	c #D8BCBB",
"o%	c #EFDAD9",
"p%	c #F6E0DF",
"q%	c #F3BDBC",
"r%	c #F27676",
"s%	c #F15352",
"t%	c #E74444",
"u%	c #BF2D2A",
"v%	c #D4913F",
"w%	c #EFD81D",
"x%	c #EED50B",
"y%	c #F4E564",
"z%	c #FAF3AD",
"A%	c #EACD51",
"B%	c #B9400E",
"C%	c #CE3235",
"D%	c #F15B5A",
"E%	c #F3ABAA",
"F%	c #F5EAE9",
"G%	c #F6F8F7",
"H%	c #ECEDEB",
"I%	c #E7E8E7",
"J%	c #E8E8E7",
"K%	c #EDEDEC",
"L%	c #F6EEED",
"M%	c #F4C2C2",
"N%	c #F39999",
"O%	c #F27776",
"P%	c #F15454",
"Q%	c #EF4343",
"R%	c #CE302E",
"S%	c #C05327",
"T%	c #EFDA94",
"U%	c #F8EE92",
"V%	c #F2DF42",
"W%	c #F3E258",
"X%	c #E7D108",
"Y%	c #B01516",
"Z%	c #DE4343",
"`%	c #F26363",
" &	c #F6C1C0",
".&	c #F6F6F4",
"+&	c #F6F3F2",
"@&	c #F5BDBD",
"#&	c #F37A79",
"$&	c #F15555",
"%&	c #F03737",
"&&	c #DE3E3E",
"*&	c #B01614",
"=&	c #C2730A",
"-&	c #EEDB31",
";&	c #F8EFA3",
">&	c #F6EA81",
",&	c #F6EA86",
"'&	c #E8D10E",
")&	c #961109",
"!&	c #BA1F20",
"~&	c #E64848",
"{&	c #F13B3B",
"]&	c #F36969",
"^&	c #FAE5E5",
"/&	c #F9FAFA",
"(&	c #F8D6D5",
"_&	c #F36767",
":&	c #F13939",
"<&	c #E64343",
"[&	c #BB1E1E",
"}&	c #91080A",
"|&	c #ECD616",
"1&	c #F7EB8C",
"2&	c #F7EC92",
"3&	c #EDD615",
"4&	c #F8EE99",
"5&	c #F5E775",
"6&	c #EBD51B",
"7&	c #E9D323",
"8&	c #E5D11D",
"9&	c #CDA80A",
"0&	c #A72C09",
"a&	c #C02626",
"b&	c #E84848",
"c&	c #F13A3A",
"d&	c #F59191",
"e&	c #FDF9F9",
"f&	c #FBFBFB",
"g&	c #FCF1F1",
"h&	c #F47677",
"i&	c #E84545",
"j&	c #C02424",
"k&	c #940A0B",
"l&	c #EAD526",
"m&	c #F2E154",
"n&	c #F8EFA2",
"o&	c #EDD512",
"p&	c #E7D009",
"q&	c #F4E566",
"r&	c #FAF1AE",
"s&	c #F8EE9B",
"t&	c #F8EE98",
"u&	c #F2E45B",
"v&	c #CEA30D",
"w&	c #9F1C0B",
"x&	c #C02526",
"y&	c #E74747",
"z&	c #EF2727",
"A&	c #EF3B3B",
"B&	c #F4BAB8",
"C&	c #F9FBFA",
"D&	c #F3A1A0",
"E&	c #E74343",
"F&	c #C12423",
"G&	c #950B0C",
"H&	c #D2BE0B",
"I&	c #F1E052",
"J&	c #F9EFA2",
"K&	c #F5E875",
"L&	c #EDD82C",
"M&	c #E8D115",
"N&	c #F0DD44",
"O&	c #F2E159",
"P&	c #F1E051",
"Q&	c #FAF1AC",
"R&	c #E8D532",
"S&	c #8E060B",
"T&	c #BB2021",
"U&	c #E04141",
"V&	c #F04344",
"W&	c #F12F2F",
"X&	c #EE5655",
"Y&	c #ECD2CF",
"Z&	c #EFF3F0",
"`&	c #F0F4F1",
" *	c #EDC4C2",
".*	c #EE4746",
"+*	c #F04141",
"@*	c #E03E3F",
"#*	c #BB1E1F",
"$*	c #900B0A",
"%*	c #EDDC44",
"&*	c #F4E66F",
"**	c #E9D428",
"=*	c #DDC60B",
"-*	c #E8D323",
";*	c #FAF0A4",
">*	c #EEDC4D",
",*	c #AB450A",
"'*	c #BB301E",
")*	c #D13437",
"!*	c #EA4445",
"~*	c #EC7E7C",
"{*	c #E5DDD8",
"]*	c #E6EAE5",
"^*	c #EBEDEA",
"/*	c #EDEFEC",
"(*	c #EFF0ED",
"_*	c #ECEDEA",
":*	c #E7EAE6",
"<*	c #E6D7D3",
"[*	c #EC7270",
"}*	c #E94142",
"|*	c #D13231",
"1*	c #B52314",
"2*	c #8A1309",
"3*	c #CFBA0C",
"4*	c #F6EA83",
"5*	c #F6EA84",
"6*	c #E0CA0F",
"7*	c #E3CE1B",
"8*	c #F9EF9B",
"9*	c #F0E05A",
"0*	c #E1C92E",
"a*	c #DCA770",
"b*	c #BE4B27",
"c*	c #BD241E",
"d*	c #CE7270",
"e*	c #D7D3CE",
"f*	c #E0E3DE",
"g*	c #E3E5E0",
"h*	c #E3E6E1",
"i*	c #E5E7E2",
"j*	c #E5E8E3",
"k*	c #E4E6E1",
"l*	c #E0E4DF",
"m*	c #D7D2CD",
"n*	c #CE6E6C",
"o*	c #C02921",
"p*	c #C1523E",
"q*	c #D29532",
"r*	c #A88B03",
"s*	c #DEC91A",
"t*	c #F2E25C",
"u*	c #E2CC0E",
"v*	c #F7EC8B",
"w*	c #F5E779",
"x*	c #D6BF04",
"y*	c #D6C007",
"z*	c #F5E876",
"A*	c #F8EE97",
"B*	c #D5AF1D",
"C*	c #8D1D04",
"D*	c #944644",
"E*	c #A09A95",
"F*	c #B4B8B2",
"G*	c #C7C9C3",
"H*	c #D3D5D0",
"I*	c #D9DCD6",
"J*	c #DCDFD9",
"K*	c #DEE0DB",
"L*	c #DCDFDA",
"M*	c #D9DCD7",
"N*	c #C6C9C4",
"O*	c #964743",
"P*	c #BA620A",
"Q*	c #EACE6E",
"R*	c #F7ED97",
"S*	c #E6D327",
"T*	c #E9D52B",
"U*	c #F0DD46",
"V*	c #F3E256",
"W*	c #F0DF4A",
"X*	c #F1E04E",
"Y*	c #F1DF4D",
"Z*	c #7B7D79",
"`*	c #969893",
" =	c #A1A39E",
".=	c #A8AAA5",
"+=	c #ABAEA8",
"@=	c #7B7D78",
"#=	c #EAD729",
"$=	c #F8EE9C",
"%=	c #F1E156",
"&=	c #EFDD46",
"*=	c #F6E982",
"==	c #F9EFA0",
"-=	c #EED927",
";=	c #EED716",
">=	c #F9F1AC",
",=	c #F9F1AF",
"'=	c #F5E76E",
")=	c #E7D012",
"!=	c #EED92A",
"~=	c #F6E877",
"{=	c #F2E047",
"]=	c #F1DF41",
"^=	c #EED715",
"/=	c #F0DB2C",
"(=	c #EFD81C",
"                                                                                                ",
"                                                                                                ",
"                    . + + @                                                                     ",
"                  # $ % & * =           - ; > , , > ; '               ) ! ~                     ",
"                  { ] ^ / ( _ : < [ } | 1 2 3 4 4 3 2 5 6 } 7   8 9 0 a b c d e                 ",
"                f g h i   j k l m n o p q r s t t s r q u v w x y z A B C D E F G               ",
"            H I J K L     M N O P Q R S T U V W W X U Y Z `  ...+.@.#.$.    %.&.*.)             ",
"        =.-.;.>.,.'.    ).!.~.{.].^./.(.V V U U U U V V _.:.<.[.}.|.1.2.      3.4.5.            ",
"      6.7.8.9.0.a.    b.c.d.e.f.g.h.i.j.k.l.m.m.s m.l.Z n.o.p.q.r.s.t.u.v.    w.x.y.z.          ",
"    A.4.J B.C.      D.E.F.G.H.I.J.K.L.M.N.O.O.P.P.O.O.N.Q.R.S.T.U.V.W.X.Y.Z.    `. +.+++        ",
"  @+#+h $+        %+&+*+=+^.-+;+>+,+'+)+!+~+{+{+{+{+]+^+/+(+_+:+<+[+}+|+1+2+3+  4+5+ +6+!       ",
"  @+7+;.@+    8+9+0+a+{.b+c+d+e+f+g+f+h+i+j+k+k+k+k+l+m+n+g+o+p+q+r+[+s+t+u+v+w+  x+y+z+A+B+    ",
"    C+ +D+0 E+F+G+H+I+J+K+L+M+f+N+N+O+P+Q+R+S+T+T+S+U+V+W+O+,+o+p+X+r+Y+s+}.Z+`+ @  .@A.+@@@    ",
"    @+#@7+$@%@&@*@=@-@;@>@,@'@N+N+,+)@!@~@{@]@6 6 ]@{@^@/@(@,+,+o+_@:@p.<@[@}@|@1@2@3@7.4@5@    ",
"        6@7@8@9@0@a@K+b@c@d@N+N+,+e@f@g@h@i@j@    k@i@l@m@n@o@p@N+q@r@s@t@u@v@w@x@y@z@A@+       ",
"            B@C@D@E@F@G@p@N+N+,+H@I@J@K@                L@M@N@O@p@N+q@P@Q@[+R@S@T@U@V@W@        ",
"            X@Y@Z@`@ #.#+#f+g+@###$#%#                    &#*#=#o@g+p@-#;# #>#,#'#)#!#          ",
"          ~#{#]#^#X /#(#_#:#>+<#[#}#                        |#1#2#H@3#4#5#6#7#8#9#0#a#          ",
"          b#c#9#r W Y d#e#f#g#h#i#                            j#k#l#m#!+n#k.W d#o#p#q#          ",
"          r#s#p d#W k.R ,#Z@t#u#                                v#w#R+]+O.Z W k.x#y#z#          ",
"          A#B#C#S W Z R ~+{+D#E#                                F#G#{+H#O.l.V Y I#J#K#          ",
"          L#M#C#N#X O#O.~+H#P#Q#                                Q#R#H#{+O.l.U S#]+M#L#          ",
"          T#M#C#T V O#O.~+{+U#k@                                k@V#~+{+O.l.U S#]+W#T#          ",
"          | M#X#Z V O#Y#~+{+Z#`#                                k@ $~+H#O.l.V S#.$W#T#          ",
"          +$@$9#l.W k.R ,#~+#$~#                                ~#$$%$~+O.O#V T C#@$+$          ",
"          &$*$=$n#W Y s -$,#;$>$                                ; ,$,#,#R Z V l.'$B#&$          ",
"          )$!$~${$W ]$^${$%$/$($                                _$:$%$P.d#S#7#r =$s#<$          ",
"          > [$}$|$]$1$2$3$4$5$6$7$                            8$9$0$a$b$c$d$/#e$f$g$>           ",
"          h$i$j$k$l$m$n$o$p$q$r$s$                            t$u$v$w$x$y$z$A$B$C$i$h$          ",
"          D$E$F$G$H$I$e@J$K$L$M$N$O$                        P$Q$R$S$T$U$V$W$_@X$Y$Z$`$          ",
"             %.%e+O+g+p@>++%K$@%#%$%%%                    &%*%v$=%-%;%>%,%N+O+K.'%)%            ",
"          !%~%{%p+,+N+N+f+e+]%^%/+/%(%_%:%            <%[%}%|%1%@%2%3%4%,+N+p@c@5%6%            ",
"        7%8%9%0%a%b%g+N+N+f+e+c%d%e%f%g%h%i%j%k%k%l%m%n%o%p%q%x$r%s%W$,+N+N+(@t%u%v%w%          ",
"      x%y%z%A%B%C%H$d@N+N+N+f+M+D%d%E%F%G%~+H%I%J%K%,#n#L%M%N%O%P%W$,+N+N+d@Q%R%S%T%U%6.        ",
"      V%8.W%X%  Y%Z%,@,+N+N+N+d@,@`% &O.O..&P.O.O..&.&O.+&@&#&$&%&,+N+N+,+>+&&*&=&-&A+;&3.      ",
"    @+>&,&'&    )&!&~&{&,+N+N+N+f+]&^&T l.s R R R R s l./&(&_&%&,+N+N+,+:&<&[&}&    |&1&2&=.    ",
"    3&4&5&6&7&8&9&0&a&b&c&,+N+N+f+d&e&W U f&k.k.k.k.Y U 7#g&h&,+N+N+,+@#i&j&k&    l&m&n&A+o&    ",
"    p&q&r&s&s&t&u&v&w&x&y&e+f+z&A&B&C&f&V _._._._._.W V S#l.D&o+g+f+H@E&F&G&  H&I&4@J&K&L&      ",
"      M&N&O&P&6+Q&R&  S&T&U&V&W&X&Y&Z&|${$n#l.O#O#l.s 8#]+`& *.*W&+*@*#*$*    %*Q&&***=*        ",
"              -*;*>*    ,*'*)*!*~*{*]*M#^*/*(*9#9#(*]#_*M#:*<*[*}*|*1*2*    3*4*5*6*            ",
"              7*8*9*    0*a*b*c*d*e*f*g*h*i**$B#B#j*i*k*g*l*m*n*o*p*q*r*    s*s&t*              ",
"              u*v*w*x*y*z*A*B*C*D*E*F*G*H*I*J*K*K*L*M*H*N*F*E*O*P*Q*R*S*    T*4.U*              ",
"                V* +W*X* +Y*        Z*`$`* =.=+=+=.= =`*`$@=      #=A@$=%=&=*===-=              ",
"                ;=6+>=,='=)=                                        !=~=4@n&A@{=                ",
"                  . ]=-.^=                                            ++e /=(=                  ",
"                                                                                                ",
"                                                                                                ",
"                                                                                                "};
