/* XPM */
static char * netscape_xpm[] = {
"48 48 758 2",
"  	c None",
". 	c #000801",
"+ 	c #001F02",
"@ 	c #002201",
"# 	c #002401",
"$ 	c #001C02",
"% 	c #000C01",
"& 	c #002704",
"* 	c #005B0D",
"= 	c #079225",
"- 	c #15A02F",
"; 	c #1FAE36",
"> 	c #2EC445",
", 	c #42CE52",
"' 	c #42D055",
") 	c #32C546",
"! 	c #20B138",
"~ 	c #179F2D",
"{ 	c #0B9228",
"] 	c #005F0E",
"^ 	c #002503",
"/ 	c #00520B",
"( 	c #0B9B2A",
"_ 	c #29C643",
": 	c #43E25A",
"< 	c #5FF770",
"[ 	c #63FA75",
"} 	c #68FB75",
"| 	c #6AFB76",
"1 	c #6BFA78",
"2 	c #6CFB79",
"3 	c #6AFC76",
"4 	c #68FA75",
"5 	c #62F875",
"6 	c #4CE75F",
"7 	c #2DC543",
"8 	c #109E2B",
"9 	c #001A03",
"0 	c #005A0E",
"a 	c #12A731",
"b 	c #39DE53",
"c 	c #53F265",
"d 	c #5AF569",
"e 	c #58EF63",
"f 	c #54EA60",
"g 	c #52E960",
"h 	c #51E75E",
"i 	c #51E85F",
"j 	c #52E75E",
"k 	c #52E85E",
"l 	c #52E85F",
"m 	c #53E85F",
"n 	c #53EB62",
"o 	c #58EF65",
"p 	c #5CF56B",
"q 	c #56F469",
"r 	c #3EE053",
"s 	c #14A931",
"t 	c #005C0E",
"u 	c #002F08",
"v 	c #059124",
"w 	c #32D64E",
"x 	c #4FF262",
"y 	c #4EEE5E",
"z 	c #47E556",
"A 	c #46E254",
"B 	c #49E357",
"C 	c #49E45A",
"D 	c #4AE45A",
"E 	c #4CE45C",
"F 	c #4EE55C",
"G 	c #4FE55D",
"H 	c #4EE55B",
"I 	c #4BE45B",
"J 	c #4BE45A",
"K 	c #49E459",
"L 	c #4AE75A",
"M 	c #4FEE5E",
"N 	c #50F360",
"O 	c #35DA50",
"P 	c #099425",
"Q 	c #003707",
"R 	c #00550E",
"S 	c #16B737",
"T 	c #3DE756",
"U 	c #44EB5A",
"V 	c #3EE152",
"W 	c #3BDE51",
"X 	c #3CDE50",
"Y 	c #3FDF51",
"Z 	c #41E053",
"` 	c #45E154",
" .	c #46E055",
"..	c #48E257",
"+.	c #49E35A",
"@.	c #4AE45B",
"#.	c #47E157",
"$.	c #43E053",
"%.	c #40E152",
"&.	c #3DDF52",
"*.	c #3EE153",
"=.	c #42EB57",
"-.	c #19B836",
";.	c #005B0E",
">.	c #006A14",
",.	c #1CC53F",
"'.	c #38E852",
").	c #35DE4E",
"!.	c #30D747",
"~.	c #33D94B",
"{.	c #37DA4C",
"].	c #39DC4D",
"^.	c #3BDD50",
"/.	c #3DDE51",
"(.	c #45E055",
"_.	c #46E155",
":.	c #37DC4E",
"<.	c #33DA49",
"[.	c #3AEB54",
"}.	c #20C73F",
"|.	c #006B15",
"1.	c #006D15",
"2.	c #1CC841",
"3.	c #33E24F",
"4.	c #28D743",
"5.	c #26D43F",
"6.	c #29D543",
"7.	c #2DD545",
"8.	c #30D748",
"9.	c #37DB4D",
"0.	c #3BDE50",
"a.	c #3FDF53",
"b.	c #46E156",
"c.	c #43E054",
"d.	c #3ADC50",
"e.	c #37DB4C",
"f.	c #34D94C",
"g.	c #2BD547",
"h.	c #29D743",
"i.	c #32E34F",
"j.	c #21CE41",
"k.	c #006E16",
"l.	c #005C10",
"m.	c #13BF39",
"n.	c #28DE48",
"o.	c #1ED03E",
"p.	c #20CC3D",
"q.	c #21CF3E",
"r.	c #24D242",
"s.	c #26D440",
"t.	c #2AD546",
"u.	c #2ED646",
"v.	c #31D749",
"w.	c #34DA4B",
"x.	c #38DB4D",
"y.	c #3EDE52",
"z.	c #40E052",
"A.	c #3EDF51",
"B.	c #3ADD4F",
"C.	c #39DB4F",
"D.	c #35DA4D",
"E.	c #2DD645",
"F.	c #2AD545",
"G.	c #27D441",
"H.	c #24D241",
"I.	c #23CF3F",
"J.	c #20D03E",
"K.	c #27DE48",
"L.	c #19C43A",
"M.	c #005E10",
"N.	c #003B0C",
"O.	c #0CB133",
"P.	c #1FD640",
"Q.	c #1ACB3B",
"R.	c #17C735",
"S.	c #17C937",
"T.	c #15C937",
"U.	c #15CA36",
"V.	c #19CB38",
"W.	c #1CD03B",
"X.	c #1ED03B",
"Y.	c #21D33D",
"Z.	c #2BD545",
"`.	c #32D949",
" +	c #37DA4B",
".+	c #37DB49",
"++	c #2FD949",
"@+	c #2AD741",
"#+	c #25D440",
"$+	c #20D23C",
"%+	c #1FD23C",
"&+	c #1CCF3B",
"*+	c #1ACC38",
"=+	c #18CB39",
"-+	c #1ACA3B",
";+	c #19CA38",
">+	c #1FD841",
",+	c #0FB033",
"'+	c #00430A",
")+	c #069A28",
"!+	c #19CE3B",
"~+	c #15C837",
"{+	c #11C036",
"]+	c #12C134",
"^+	c #10C232",
"/+	c #13C735",
"(+	c #0CC630",
"_+	c #09C72D",
":+	c #0BC82D",
"<+	c #0FCC33",
"[+	c #17CF38",
"}+	c #12D034",
"|+	c #26D541",
"1+	c #31D849",
"2+	c #35DB4B",
"3+	c #32DA4C",
"4+	c #31D947",
"5+	c #2ED846",
"6+	c #20D43E",
"7+	c #19D138",
"8+	c #14D035",
"9+	c #11CC33",
"0+	c #0ECA30",
"a+	c #10C933",
"b+	c #16CA36",
"c+	c #12C534",
"d+	c #15C435",
"e+	c #15C235",
"f+	c #15C538",
"g+	c #18D03D",
"h+	c #079828",
"i+	c #001D06",
"j+	c #006E15",
"k+	c #0FBF35",
"l+	c #10C535",
"m+	c #0EBB32",
"n+	c #0EBC33",
"o+	c #07BB2D",
"p+	c #1AC239",
"q+	c #FDFEFD",
"r+	c #81EC8A",
"s+	c #00C928",
"t+	c #26D543",
"u+	c #2FD647",
"v+	c #2FD646",
"w+	c #1ED43C",
"x+	c #69E675",
"y+	c #16C437",
"z+	c #0ABE30",
"A+	c #0FBE33",
"B+	c #0FBD33",
"C+	c #10C334",
"D+	c #10C238",
"E+	c #002A08",
"F+	c #0AA931",
"G+	c #0FC436",
"H+	c #0AB52F",
"I+	c #09B22D",
"J+	c #0AB530",
"K+	c #0AB830",
"L+	c #08BA2F",
"M+	c #2AC746",
"N+	c #4BD55E",
"O+	c #62E270",
"P+	c #23D240",
"Q+	c #28D445",
"R+	c #29D445",
"S+	c #23D33E",
"T+	c #2DD547",
"U+	c #45DC5A",
"V+	c #5BE06A",
"W+	c #E1FEE1",
"X+	c #B0F4B3",
"Y+	c #3FD355",
"Z+	c #2CCB4B",
"`+	c #0ABE2F",
" @	c #0BBB30",
".@	c #0DB930",
"+@	c #0AB62F",
"@@	c #09B42F",
"#@	c #0DC234",
"$@	c #07A82D",
"%@	c #00350B",
"&@	c #017418",
"*@	c #0BBE36",
"=@	c #09AC2E",
"-@	c #0AAE2F",
";@	c #0AB12E",
">@	c #09B22E",
",@	c #07B52C",
"'@	c #00B42B",
")@	c #00AF29",
"!@	c #14C334",
"~@	c #45DB5B",
"{@	c #00C728",
"]@	c #20D03F",
"^@	c #23D13F",
"/@	c #24D140",
"(@	c #1FCF3C",
"_@	c #10CB33",
":@	c #00BE1D",
"<@	c #41D756",
"[@	c #00B819",
"}@	c #00B326",
"|@	c #01B729",
"1@	c #0BB931",
"2@	c #0AB62E",
"3@	c #0AAF2E",
"4@	c #0AB330",
"5@	c #0AB833",
"6@	c #027417",
"7@	c #06A029",
"8@	c #0AB333",
"9@	c #09A72D",
"0@	c #07A32D",
"a@	c #09A82D",
"b@	c #09AA2D",
"c@	c #09B12D",
"d@	c #06B22C",
"e@	c #00B128",
"f@	c #00B325",
"g@	c #2CD344",
"h@	c #00C428",
"i@	c #1CCB3A",
"j@	c #1ECC3D",
"k@	c #19CB39",
"l@	c #00BE26",
"m@	c #47D55C",
"n@	c #00B722",
"o@	c #01B62A",
"p@	c #0AB72E",
"q@	c #09AB2D",
"r@	c #07A52D",
"s@	c #0AB232",
"t@	c #079F29",
"u@	c #002907",
"v@	c #005510",
"w@	c #0BB335",
"x@	c #07A82F",
"y@	c #069C2A",
"z@	c #079D2B",
"A@	c #07A22E",
"B@	c #07A42D",
"C@	c #09AF2D",
"D@	c #00AC2C",
"E@	c #00B029",
"F@	c #13C833",
"G@	c #00BF2A",
"H@	c #17C938",
"I@	c #1BCA3B",
"J@	c #1ACA3A",
"K@	c #19C639",
"L@	c #14C534",
"M@	c #00BB28",
"N@	c #45D057",
"O@	c #00B01F",
"P@	c #01AF2A",
"Q@	c #0AAF2D",
"R@	c #09A92D",
"S@	c #07A22D",
"T@	c #079E2B",
"U@	c #07A630",
"V@	c #07A72F",
"W@	c #027819",
"X@	c #08AA31",
"Y@	c #069C2C",
"Z@	c #069728",
"`@	c #069A2A",
" #	c #08A82D",
".#	c #00A429",
"+#	c #00AE28",
"@#	c #89E795",
"##	c #E3FEE6",
"$#	c #00BC24",
"%#	c #01BD2A",
"&#	c #13C435",
"*#	c #15C234",
"=#	c #12C236",
"-#	c #0EBF33",
";#	c #00B32A",
">#	c #43CB56",
",#	c #00AC1D",
"'#	c #02AB2C",
")#	c #08AC2D",
"!#	c #079F2D",
"~#	c #069829",
"{#	c #08A731",
"]#	c #038621",
"^#	c #06A12C",
"/#	c #069F2D",
"(#	c #058E23",
"_#	c #048920",
":#	c #058F24",
"<#	c #059225",
"[#	c #06A22D",
"}#	c #009F28",
"|#	c #00A62A",
"1#	c #00AB1E",
"2#	c #63D771",
"3#	c #CAF8CF",
"4#	c #00B11A",
"5#	c #00B72B",
"6#	c #0CBB2E",
"7#	c #0DBA30",
"8#	c #0AB92E",
"9#	c #00AB2B",
"0#	c #41C755",
"a#	c #00A31B",
"b#	c #01A32B",
"c#	c #06A52D",
"d#	c #048B22",
"e#	c #059828",
"f#	c #048C24",
"g#	c #00330E",
"h#	c #059326",
"i#	c #03821D",
"j#	c #037D1C",
"k#	c #048820",
"l#	c #048A21",
"m#	c #059125",
"n#	c #069528",
"o#	c #009623",
"p#	c #009E25",
"q#	c #13B135",
"r#	c #009415",
"s#	c #8EE398",
"t#	c #A7ECAC",
"u#	c #00A422",
"v#	c #00AD28",
"w#	c #06B02C",
"x#	c #00A52B",
"y#	c #3EC054",
"z#	c #009C1C",
"A#	c #009C28",
"B#	c #069D2B",
"C#	c #069828",
"D#	c #059324",
"E#	c #048720",
"F#	c #037E1C",
"G#	c #049527",
"H#	c #003B0D",
"I#	c #00400C",
"J#	c #069F2C",
"K#	c #037B1B",
"L#	c #037C1B",
"M#	c #037F1D",
"N#	c #048620",
"O#	c #058D23",
"P#	c #059527",
"Q#	c #009122",
"R#	c #009924",
"S#	c #1BB13A",
"T#	c #00981E",
"U#	c #009A1B",
"V#	c #A8EEAF",
"W#	c #81E18B",
"X#	c #009F21",
"Y#	c #00AB28",
"Z#	c #04AB2A",
"`#	c #009F27",
" $	c #3EBE53",
".$	c #00981B",
"+$	c #009725",
"@$	c #059928",
"#$	c #069628",
"$$	c #03791A",
"%$	c #03841E",
"&$	c #069A29",
"*$	c #015815",
"=$	c #00550D",
"-$	c #069C29",
";$	c #048822",
">$	c #027419",
",$	c #027918",
"'$	c #049024",
")$	c #008C1E",
"!$	c #009424",
"~$	c #1DAF3C",
"{$	c #009822",
"]$	c #009E24",
"^$	c #00991B",
"/$	c #C0F5C3",
"($	c #60D270",
"_$	c #00961C",
":$	c #00A327",
"<$	c #009A22",
"[$	c #3DBB52",
"}$	c #00911B",
"|$	c #059528",
"1$	c #03801D",
"2$	c #027718",
"3$	c #049326",
"4$	c #016816",
"5$	c #006411",
"6$	c #059325",
"7$	c #016C13",
"8$	c #027619",
"9$	c #037F1C",
"0$	c #028C22",
"a$	c #00891C",
"b$	c #009021",
"c$	c #1DA93A",
"d$	c #009220",
"e$	c #019E27",
"f$	c #009A23",
"g$	c #D2FBD3",
"h$	c #3EBF52",
"i$	c #008E19",
"j$	c #00901B",
"k$	c #3CB752",
"l$	c #008D17",
"m$	c #008D20",
"n$	c #048C22",
"o$	c #027A19",
"p$	c #027318",
"q$	c #027519",
"r$	c #058E22",
"s$	c #016D14",
"t$	c #006311",
"u$	c #016513",
"v$	c #004808",
"w$	c #00560B",
"x$	c #006612",
"y$	c #017216",
"z$	c #02811D",
"A$	c #038720",
"B$	c #01891E",
"C$	c #008318",
"D$	c #008B1D",
"E$	c #1CA539",
"F$	c #008E1E",
"G$	c #029C28",
"H$	c #019D28",
"I$	c #009521",
"J$	c #009D23",
"K$	c #EEFEF2",
"L$	c #22B03D",
"M$	c #007C0C",
"N$	c #36B04D",
"O$	c #008714",
"P$	c #00881D",
"Q$	c #038A20",
"R$	c #048A20",
"S$	c #03851F",
"T$	c #027C1A",
"U$	c #016E15",
"V$	c #017116",
"W$	c #038922",
"X$	c #016C14",
"Y$	c #016712",
"Z$	c #049124",
"`$	c #006812",
" %	c #004707",
".%	c #004807",
"+%	c #005009",
"@%	c #005208",
"#%	c #00550A",
"$%	c #00590A",
"%%	c #005F0B",
"&%	c #00690E",
"*%	c #006909",
"=%	c #00760D",
"-%	c #0B9C2B",
";%	c #008213",
">%	c #009321",
",%	c #009723",
"'%	c #009823",
")%	c #008F1A",
"!%	c #009F22",
"~%	c #F8FEFD",
"{%	c #00951E",
"]%	c #1CA238",
"^%	c #008311",
"/%	c #00851B",
"(%	c #03831E",
"_%	c #027518",
":%	c #006110",
"<%	c #00510A",
"[%	c #00550B",
"}%	c #027E1B",
"|%	c #027218",
"1%	c #005A10",
"2%	c #008F22",
"3%	c #00640E",
"4%	c #003301",
"5%	c #002600",
"6%	c #002C00",
"7%	c #003D01",
"8%	c #005606",
"9%	c #00640D",
"0%	c #11751C",
"a%	c #157E22",
"b%	c #1B8F2C",
"c%	c #3AB049",
"d%	c #199A31",
"e%	c #1AA335",
"f%	c #029F29",
"g%	c #009922",
"h%	c #008C14",
"i%	c #007809",
"j%	c #009319",
"k%	c #D8FCD9",
"l%	c #2BAB40",
"m%	c #00750D",
"n%	c #007212",
"o%	c #016B13",
"p%	c #006211",
"q%	c #006010",
"r%	c #00560C",
"s%	c #004F0A",
"t%	c #004607",
"u%	c #04841F",
"v%	c #016F1A",
"w%	c #00470C",
"x%	c #008717",
"y%	c #005A04",
"z%	c #036211",
"A%	c #498F3F",
"B%	c #73B16A",
"C%	c #A2D9A0",
"D%	c #E9FEF1",
"E%	c #B5F3BE",
"F%	c #6CC976",
"G%	c #82DE8D",
"H%	c #FBFEFD",
"I%	c #006708",
"J%	c #00650E",
"K%	c #006611",
"L%	c #005A0D",
"M%	c #004E0A",
"N%	c #048922",
"O%	c #01611A",
"P%	c #BCF5C9",
"Q%	c #E9FEEF",
"R%	c #EEFBE7",
"S%	c #D5D9CE",
"T%	c #A3B599",
"U%	c #FEFEFE",
"V%	c #A4A2A4",
"W%	c #928E90",
"X%	c #9A9A98",
"Y%	c #A4B19E",
"Z%	c #CFD1C5",
"`%	c #F6EBEE",
" &	c #006304",
".&	c #00670D",
"+&	c #006A11",
"@&	c #006310",
"#&	c #005D0E",
"$&	c #00590C",
"%&	c #004A08",
"&&	c #048A22",
"*&	c #004912",
"=&	c #F7FAF3",
"-&	c #C1C8BD",
";&	c #687662",
">&	c #262B25",
",&	c #000300",
"'&	c #000000",
")&	c #161714",
"!&	c #3C4C39",
"~&	c #A0AB9E",
"{&	c #ECF1EC",
"]&	c #007F18",
"^&	c #005504",
"/&	c #005B09",
"(&	c #005F0C",
"_&	c #016B14",
":&	c #048F25",
"<&	c #6E8878",
"[&	c #879084",
"}&	c #000703",
"|&	c #0F0F0F",
"1&	c #586556",
"2&	c #B1BAAF",
"3&	c #C4F0D3",
"4&	c #2F9346",
"5&	c #004804",
"6&	c #004D04",
"7&	c #005408",
"8&	c #004D09",
"9&	c #004908",
"0&	c #003E05",
"a&	c #02791B",
"b&	c #131313",
"c&	c #515148",
"d&	c #CAC8C0",
"e&	c #E2FEEE",
"f&	c #3B8C55",
"g&	c #003902",
"h&	c #003E02",
"i&	c #003F04",
"j&	c #003C04",
"k&	c #006717",
"l&	c #363636",
"m&	c #505050",
"n&	c #DBDBDB",
"o&	c #FDFDFD",
"p&	c #5C5C5C",
"q&	c #3F3F3F",
"r&	c #A79F9F",
"s&	c #D0F4E1",
"t&	c #0D6224",
"u&	c #001900",
"v&	c #004404",
"w&	c #006D13",
"x&	c #049726",
"y&	c #070707",
"z&	c #E9E9E9",
"A&	c #FAFAFA",
"B&	c #F7F7F7",
"C&	c #E5E5E5",
"D&	c #E2E2E2",
"E&	c #F2F2F2",
"F&	c #2A2A2A",
"G&	c #AEA4A7",
"H&	c #8BB99B",
"I&	c #004B05",
"J&	c #007F1A",
"K&	c #008019",
"L&	c #251B1E",
"M&	c #F0ECEA",
"N&	c #D0FBE2",
"O&	c #1AA14F",
"P&	c #005016",
"Q&	c #9F9C93",
"R&	c #81BB9A",
"S&	c #030303",
"T&	c #0E0E0E",
"U&	c #161616",
"V&	c #0C0C0C",
"W&	c #090909",
"X&	c #050505",
"Y&	c #141414",
"Z&	c #1F1F1F",
"`&	c #262626",
" *	c #212121",
".*	c #1E1E1E",
"+*	c #181818",
"@*	c #0A0A0A",
"#*	c #171717",
"$*	c #292929",
"%*	c #2C2C2C",
"&*	c #272727",
"**	c #252525",
"=*	c #1B1B1B",
"-*	c #1A1A1A",
";*	c #1D1D1D",
">*	c #2F2F2F",
",*	c #2D2D2D",
"'*	c #2B2B2B",
")*	c #222222",
"!*	c #303030",
"~*	c #343434",
"{*	c #323232",
"]*	c #313131",
"^*	c #373737",
"/*	c #353535",
"                                                                                                ",
"                                          . + @ # $ %                                           ",
"                                  & * = - ; > , ' ) ! ~ { ] ^                                   ",
"                              / ( _ : < [ } | 1 1 2 3 4 5 6 7 8 / 9                             ",
"                          0 a b c d e f g h i j j k l m n o p q r s t                           ",
"                      u v w x y z A B C D E F F G H F E I J K L M N O P Q                       ",
"                    R S T U V W X Y Z `  ...+.@.D D @.+.#.` $.%.&.*.U =.-.;.                    ",
"                  >.,.'.).!.~.{.].^./.Y Z (._._._._._.` $.Y /.^.].:.<.).[.}.|.                  ",
"                1.2.3.4.5.6.7.8.~.9.].^.0.a.Z b._.b.c.Y /.0.d.e.f.!.7.g.h.i.j.k.                ",
"              l.m.n.o.p.q.r.s.t.u.v.w.x.d.X y.Y z.z.A.X B.C.D.!.E.F.G.H.I.J.K.L.M.              ",
"            N.O.P.Q.R.S.T.U.V.W.X.Y.Z.`. +].X 0.0.0.^..+++@+#+$+%+&+*+=+Q.-+;+>+,+'+            ",
"            )+!+~+{+]+^+/+(+_+:+<+[+}+|+1+2+D.D.D.D.3+4+5+6+7+8+9+0+a+b+c+d+e+f+g+h+i+          ",
"          j+k+l+m+n+o+p+q+q+q+q+q+q+r+s+t+u.u+u+u+v+w+x+q+q+q+q+q+q+q+q+y+z+A+B+C+D+j+          ",
"        E+F+G+H+I+J+K+L+M+N+q+q+q+q+q+O+s+P+Q+R+R+Q+S+T+U+V+W+q+q+X+Y+Z+`+ @.@+@@@#@$@%@        ",
"        &@*@J+=@-@;@>@,@'@)@!@q+q+q+q+q+~@{@]@^@/@/@^@(@_@:@<@q+q+[@}@|@1@2@>@;@3@4@5@6@        ",
"        7@8@9@0@a@b@3@c@d@e@f@q+q+q+q+q+q+g@h@i@p.p.p.j@k@l@m@q+q+n@o@p@>@;@3@q@a@r@s@t@u@      ",
"      v@w@x@y@z@A@B@a@b@C@D@E@q+q+q+q+q+q+q+F@G@H@I@J@K@L@M@N@q+q+O@P@c@Q@q@R@r@S@T@U@V@;.      ",
"      W@X@Y@v Z@`@T@A@r@ #.#+#q+q+@#q+q+q+q+##$#%#&#*#=#-#;#>#q+q+,#'#)#R@r@S@!#`@Z@~#{#]#      ",
"      ^#/#(#_#:#<#Z@`@T@[#}#|#q+q+1#2#q+q+q+q+3#4#5#6#7#8#9#0#q+q+a#b#c#S@T@`@Z@<#:#d#e#f#      ",
"    g#r@h#i#j#k#l#(#m#n#e#o#p#q+q+q#r#s#q+q+q+q+t#u#v#w#w#x#y#q+q+z#A#B#C#Z@D#:#d#E#F#d#G#H#    ",
"    I#J#l#K#L#M#N#l#O#m#P#Q#R#q+q+S#T#U#V#q+q+q+q+W#X#Y#Z#`# $q+q+.$+$@$#$<#(#l#E#j#$$%$&$*$    ",
"    =$-$;$>$,$j#F#N#l#O#'$)$!$q+q+~${$]$^$/$q+q+q+q+($_$:$<$[$q+q+}$Q#|$m#O#l#N#1$F#2$K#3$4$    ",
"    5$6$W@7$8$M#1$9$E#_#0$a$b$q+q+c$d$e$f$^$g$q+q+q+q+h$i$j$k$q+q+l$m$'$n$l#N#1$j#o$p$q$r$s$    ",
"    t$(#u$v$w$x$y$F#z$A$B$C$D$q+q+E$F$G$H$I$J$K$q+q+q+q+L$M$N$q+q+O$P$Q$R$S$9$1$T$8$U$V$W$X$    ",
"    Y$Z$`$ %.%+%@%#%$%%%&%*%=%q+q+-%;%>%,%'%)%!%~%q+q+q+q+{%]%q+q+^%/%_#(%M#o$_%s$:%<%[%}%|%    ",
"    1%2%3%4%5%6%4%7%8%9%0%a%b%q+q+c%d%e%f%g%h%i%j%~%q+q+q+k%l%q+q+m%n%V$o%p%q%r%w$s%t%[%u%v%    ",
"    w%x%y%z%A%B%C%D%q+q+q+q+q+q+q+q+q+q+q+q+q+E%F%G%q+q+q+q+H%q+q+I%J%K%q%q%* L%r%M%.%* N%O%    ",
"      P%Q%q+q+q+q+q+q+q+R%S%T%U%U%V%W%X%Y%Z%`%U%U%U%U%q+q+q+q+q+~% &.&+&@&#&$&L%<%%&.%p%&&*&    ",
"      q+q+U%=&-&;&>&,&'&'&'&'&U%U%'&'&'&'&'&'&'&'&)&!&~&{&U%U%q+q+]&^&/&(&#&$&<%s%t%%&_&:&      ",
"      <&[&}&'&'&'&'&'&'&'&'&'&U%U%|&'&'&'&'&'&'&'&'&'&'&'&'&1&2&U%U%3&4&5&6&7&8&9&0&/ a&n$      ",
"      '&'&'&'&'&'&'&'&'&'&'&'&U%U%b&'&'&'&'&'&'&'&'&'&'&'&'&'&'&'&c&d&U%e&f&g&h&i&j&q%&&k&      ",
"        '&'&'&'&'&'&'&'&l&m&n&U%U%o&p&q&'&'&'&'&'&'&'&'&'&'&'&'&'&'&'&'&r&U%s&t&u&v&w&x&        ",
"        '&'&'&'&'&'&'&y&z&A&B&C&D&E&A&B&F&'&'&'&'&'&'&'&'&'&'&'&'&'&'&'&'&'&G&U%H&I&J&K&        ",
"          '&'&'&'&'&'&'&'&'&'&'&'&'&'&'&'&'&'&'&'&'&'&'&'&'&'&'&'&'&'&'&'&'&'&L&M&N&O&P&        ",
"          '&'&'&'&'&'&'&'&'&'&'&'&'&'&'&'&'&'&'&'&'&'&'&'&'&'&'&'&'&'&'&'&'&'&'&'&Q&R&          ",
"            '&'&'&'&'&'&'&'&'&'&'&'&'&'&'&'&'&'&'&'&'&'&'&'&'&'&'&'&'&'&'&'&'&'&'&'&            ",
"            '&'&'&'&S&'&'&'&'&'&'&'&'&'&'&'&'&'&'&'&'&'&'&'&'&'&'&'&'&'&'&'&'&'&'&'&            ",
"              '&'&y&T&U&b&V&W&X&'&'&'&'&'&'&'&'&'&'&'&'&'&'&'&'&'&'&'&'&S&'&'&'&'&              ",
"                '&'&Y&Z&`& *.*+*U&b&T&@*W&y&y&X&X&'&'&X&X&X&y&@*T&Y&U&#*V&'&'&'&                ",
"                  W&y&+*$*%*$*$*&***Z&.*=*-*+*#*#*#*#*#*+*-*;*;*;*;*.*+*S&'&'&                  ",
"                    |&b&=*F&>*,*,*,*%*%*'*F&$*&*&*&*`&`&`&`&******)*+*y&'&'&                    ",
"                        #*;*&*!*~*{*{*>*>*,*,*,*%*%*'*F&'*F&$*$***#*W&'&'&                      ",
"                          |&;***'*]*^*^*^*^*/*/*~*{*~*]*>*%*&*;*Y&W&'&                          ",
"                              b&)*`&F&,*!*/*/*/*~*]*>*F&`&.*+*b&X&                              ",
"                                    -* *&*'*'*'*F&$***.*#*b&'&                                  ",
"                                              @*@*W&                                            ",
"                                                                                                ",
"                                                                                                "};
