/* XPM */
static char * printer_xpm[] = {
"48 48 262 2",
"  	c None",
". 	c #FFFFFF",
"+ 	c #FEFEFE",
"@ 	c #FBFBFC",
"# 	c #F8F8F9",
"$ 	c #FCFCFC",
"% 	c #F5F5F6",
"& 	c #F0F0F1",
"* 	c #FBFBFB",
"= 	c #9B9B9B",
"- 	c #797979",
"; 	c #EAEAEC",
"> 	c #EFEFF1",
", 	c #F4F4F5",
"' 	c #F7F7F8",
") 	c #FAFAFA",
"! 	c #FCFCFD",
"~ 	c #AAAAAA",
"{ 	c #696969",
"] 	c #E4E4E7",
"^ 	c #E9E9EB",
"/ 	c #EEEEEF",
"( 	c #F2F2F3",
"_ 	c #F6F6F6",
": 	c #FDFDFE",
"< 	c #B1B1B1",
"[ 	c #DFDFE1",
"} 	c #E3E3E5",
"| 	c #E8E8EA",
"1 	c #ECECED",
"2 	c #F3F3F4",
"3 	c #F9F9F9",
"4 	c #B5B5B5",
"5 	c #D8D8DB",
"6 	c #DDDDE0",
"7 	c #E1E1E4",
"8 	c #E5E5E7",
"9 	c #EFEFF0",
"0 	c #F1F1F2",
"a 	c #F6F6F7",
"b 	c #B6B6B6",
"c 	c #656565",
"d 	c #D0D0D4",
"e 	c #D5D5D9",
"f 	c #DBDBDE",
"g 	c #DEDEE1",
"h 	c #E2E2E4",
"i 	c #EDEDEF",
"j 	c #EEEEF0",
"k 	c #ACACAC",
"l 	c #ADADAD",
"m 	c #5B5B5B",
"n 	c #C8C8CC",
"o 	c #CDCDD1",
"p 	c #D2D2D6",
"q 	c #D7D7DA",
"r 	c #DEDEE0",
"s 	c #E0E0E3",
"t 	c #E4E4E6",
"u 	c #E6E6E8",
"v 	c #E7E7E9",
"w 	c #AEAEAE",
"x 	c #8C8C8C",
"y 	c #989898",
"z 	c #A5A5A5",
"A 	c #B2B2B2",
"B 	c #BBBBBB",
"C 	c #BEBEBE",
"D 	c #C0C0C0",
"E 	c #B4B4B4",
"F 	c #525252",
"G 	c #BFBFC4",
"H 	c #C4C4C9",
"I 	c #C9C9CD",
"J 	c #D2D2D5",
"K 	c #D8D8DC",
"L 	c #DFDFE2",
"M 	c #E0E0E2",
"N 	c #B7B7B7",
"O 	c #C3C3C3",
"P 	c #999999",
"Q 	c #919191",
"R 	c #9F9F9F",
"S 	c #BABABA",
"T 	c #BDBDBD",
"U 	c #C2C2C2",
"V 	c #494949",
"W 	c #B7B7BC",
"X 	c #BCBCC1",
"Y 	c #C0C0C5",
"Z 	c #C5C5C9",
"` 	c #CCCCD0",
" .	c #CFCFD3",
"..	c #D4D4D7",
"+.	c #D7D7DB",
"@.	c #C4C4C4",
"#.	c #B3B3B3",
"$.	c #BCBCBC",
"%.	c #C1C1C1",
"&.	c #A2A2A2",
"*.	c #454545",
"=.	c #AEAEB4",
"-.	c #B3B3B9",
";.	c #B7B7BD",
">.	c #BBBBC1",
",.	c #C2C2C7",
"'.	c #C5C5CA",
").	c #CACACE",
"!.	c #CECED2",
"~.	c #A3A3A3",
"{.	c #C6C6C6",
"].	c #909090",
"^.	c #9D9D9D",
"/.	c #C5C5C5",
"(.	c #7A7A7A",
"_.	c #474747",
":.	c #7C7C7C",
"<.	c #C8C8C8",
"[.	c #959595",
"}.	c #C7C7C7",
"|.	c #868686",
"1.	c #848484",
"2.	c #818181",
"3.	c #7F7F7F",
"4.	c #777777",
"5.	c #747474",
"6.	c #717171",
"7.	c #6F6F6F",
"8.	c #6C6C6C",
"9.	c #676767",
"0.	c #9A9A9A",
"a.	c #C9C9C9",
"b.	c #E2E2E2",
"c.	c #ECECEC",
"d.	c #EFEFEF",
"e.	c #F0F0F0",
"f.	c #F1F1F1",
"g.	c #CBCBCB",
"h.	c #E4E4E4",
"i.	c #CCCCCC",
"j.	c #F3F3F3",
"k.	c #E6E6E6",
"l.	c #E9E9E9",
"m.	c #EEEEEE",
"n.	c #595959",
"o.	c #EAEAEA",
"p.	c #939393",
"q.	c #555555",
"r.	c #EDEDED",
"s.	c #8D8D8D",
"t.	c #8F8F8F",
"u.	c #898989",
"v.	c #585858",
"w.	c #727272",
"x.	c #7B7B7B",
"y.	c #787878",
"z.	c #757575",
"A.	c #828282",
"B.	c #DFDFDF",
"C.	c #3C3C3C",
"D.	c #242424",
"E.	c #121212",
"F.	c #282828",
"G.	c #303030",
"H.	c #313131",
"I.	c #2F2F2F",
"J.	c #292929",
"K.	c #B8B8B8",
"L.	c #888888",
"M.	c #808080",
"N.	c #838383",
"O.	c #858585",
"P.	c #878787",
"Q.	c #404040",
"R.	c #464646",
"S.	c #4D4D4D",
"T.	c #4E4E4E",
"U.	c #575757",
"V.	c #5A5A5A",
"W.	c #545454",
"X.	c #4C4C4C",
"Y.	c #4B4B4B",
"Z.	c #CACACA",
"`.	c #DDDDDD",
" +	c #DBDBDB",
".+	c #DADADA",
"++	c #9E9E9E",
"@+	c #D6D6D6",
"#+	c #B0B0B0",
"$+	c #AFAFAF",
"%+	c #ABABAB",
"&+	c #A9A9A9",
"*+	c #E0E0E0",
"=+	c #BDBDBC",
"-+	c #D0D0D0",
";+	c #090909",
">+	c #3A3A3A",
",+	c #D5D5D5",
"'+	c #131313",
")+	c #B5B5B3",
"!+	c #A6A6A6",
"~+	c #1C1C1C",
"{+	c #B4B4B3",
"]+	c #B9B9B9",
"^+	c #A4A4A4",
"/+	c #3D3D41",
"(+	c #5D5D66",
"_+	c #5C5C65",
":+	c #5B5B64",
"<+	c #5A5A63",
"[+	c #5C5C64",
"}+	c #5A5A62",
"|+	c #BFBFBF",
"1+	c #67676B",
"2+	c #9C9CA4",
"3+	c #9999A1",
"4+	c #95959C",
"5+	c #97979F",
"6+	c #94949C",
"7+	c #98989F",
"8+	c #96969E",
"9+	c #93939B",
"0+	c #93939A",
"a+	c #95959D",
"b+	c #9A9AA1",
"c+	c #181818",
"d+	c #646464",
"e+	c #636363",
"f+	c #707070",
"g+	c #959598",
"h+	c #C6C6CB",
"i+	c #BEBEC3",
"j+	c #BDBDC1",
"k+	c #C1C1C5",
"l+	c #BBBBC0",
"m+	c #BDBDC2",
"n+	c #BEBEC2",
"o+	c #C3C3C8",
"p+	c #343434",
"q+	c #ADADAF",
"r+	c #DDDDDF",
"s+	c #DBDBDD",
"t+	c #DCDCDE",
"u+	c #D9D9DB",
"v+	c #333333",
"w+	c #C8C8C9",
"x+	c #EAEAEB",
"y+	c #E9E9EA",
"z+	c #EBEBEC",
"A+	c #E8E8E9",
"B+	c #E1E1E2",
"C+	c #EDEDEE",
"D+	c #F5F5F5",
"E+	c #F2F2F2",
"F+	c #F4F4F4",
"G+	c #FDFDFD",
"H+	c #F8F8F8",
"I+	c #F7F7F7",
"J+	c #191919",
"K+	c #151515",
"L+	c #737373",
"M+	c #000000",
"                                                                                                ",
"                                                                                                ",
"                                                                                                ",
"                        . . . . . . . . . . . . . . . . . . . . . . . .                         ",
"                        + . . . . . . . . . . . . . . . . . . . . . . .                         ",
"                        @ . . . . . . . . . . . . . . . . . . . . . . .                         ",
"                        # $ . . . . . . . . . . . . . . . . . . . . . $                         ",
"                        % # $ . . . . . . . . . . . . . . . . . . . $ #                         ",
"                        & % # * + . . . . . . . . . . . . . . . + * # %                         ",
"                    = - ; > , ' ) ! . . . . . . . . . . . . . ! ) ' , > - =                     ",
"                    ~ { ] ^ / ( _ # ) $ : . . . . . . . : $ ) # _ ( / ^ { ~                     ",
"                    < { [ } | 1 > 2 % ' 3 ) * * * * * ) 3 ' % 2 > 1 | } { <                     ",
"                    4 { 5 6 7 8 | 1 9 0 2 % _ a a a _ % 2 0 9 1 | 8 7 6 { b                     ",
"                    ~ c d e f g h 8 | ; 1 i j 9 > 9 j i 1 ; | 8 h g f e c k                     ",
"                    l m n o p q f r s } t u v | | | v u t } s r f q p o m w                     ",
"      x y z A B C D E F G H I o J e K f 6 g L M s M L g 6 f K e J o I H F N O D C B A z P       ",
"      Q R k S T D U < V W X Y Z I `  .J ..e q +.5 +.q e ..J  .` I Z Y X V A @.U D T S k R       ",
"      y z #.$.C %.@.&.*.=.-.;.>.G ,.'.n ).` o o !.o o ` ).n '.,.G >.;.-.*.~.{.@.%.C $.#.z       ",
"    ].^.k S T D U /.(._._._._._._._._._._._._._._._._._._._._._._._._._._.:.<./.U D T S k ^.    ",
"    [.~.< B C %.@.}.y |.1.2.3.:.(.4.5.6.7.8.{ 9.9.{ 8.7.6.5.4.(.:.3.2.1.|.0.a.}.@.%.C B < ~.    ",
"    b.c.d.e.e.e.f.f.g.h.h.h.h.h.h.h.h.h.h.h.h.h.h.h.h.h.h.h.h.h.h.h.h.h.h.i.j.f.f.e.e.e.d.k.    ",
"    l.m.m.m.m.m.m.m.0.n.n.n.n.n.n.n.n.n.n.n.n.n.n.n.n.n.n.n.n.n.n.n.n.n.n.^.m.m.m.m.m.m.m.o.    ",
"    c.m.m.m.m.m.m.m.p.q.q.q.q.q.q.q.q.q.q.q.q.q.q.q.q.q.q.q.q.q.q.q.q.q.q.[.m.m.m.m.m.m.m.r.    ",
"    m.m.m.m.m.m.m.m.s.q.q.q.q.q.q.q.q.q.q.q.q.q.q.q.q.q.q.q.q.q.q.q.q.q.q.t.m.m.m.m.m.m.m.m.    ",
"    l.l.l.l.l.l.l.l.|.F F F F F F F F F F F F F F F F F F F F F F F F F F u.l.l.l.l.l.l.l.l.    ",
"    h.h.h.h.h.h.h.h.3._._._._._._._._.v.w.5.- x.x.x.y.z.v._._._._._._._._.A.h.h.h.h.h.h.h.h.    ",
"  <.B.B.B.B.B.B.B.B.w.C.C.C.C.C.C.C.C.D.E.F.G.G.H.G.I.D.J.C.C.C.C.C.C.C.C.z.B.B.B.B.B.B.B.B.}.  ",
"  K.T C D %.U O @./.L.3.M.2.A.N.O.|.P.Q.R.S.T.U.V.W.T.X.Y.L.L.P.|.O.1.N.A.t.Z.a.<.}.{././.@.T   ",
"  #.`.`.`.`.`.`.`.`.`.`.`.`.`.`.`.`.`.`.`.`.`.`.`.`.`.`.`.`.`.`.`.`.`.`.`.`.`.`.`.`.`.`.`.`.E   ",
"  %. + + + + + + +.+i.i.i.i.i.i.i.i.i.i.i.i.i.i.i.i.i.i.i.i.i.i.i.i.i.i.i.i..+ + + +++~. + +U   ",
"  $.@+@+@+@+@+@+@+B.B E E #.#.< #+$+w l k %+~ &+&+~ ~ %+k l w $+#+< A #.#.B *+@+@+@+~ =+@+@+T   ",
"    -+-+-+-+-+-+@+C.;+;+;+;+;+;+;+;+;+;+;+;+;+;+;+;+;+;+;+;+;+;+;+;+;+;+;+;+>+,+-+-+/.U -+-+    ",
"    g.g.g.g.g.g.#.'+'+'+'+'+'+'+'+'+'+'+'+'+'+'+'+'+'+'+'+'+'+'+'+'+'+'+'+'+'+A g.g.= )+g.g.    ",
"    @./././././.!+~+~+~+~+~+~+~+~+~+~+~+~+~+~+~+~+~+~+~+~+~+~+~+~+~+~+~+~+~+~+!+/./.{+]+/./.    ",
"    T D D D D D ^+S./+(+_+:+<+:+<+:+:+:+:+<+[+:+:+<+:+:+<+<+[+}+:+:+[+_+(+/+S.^+D D D D D |+    ",
"    A N N N N N ++c 1+2+3+4+5+6+4+7+8+6+8+9+4+4+9+8+4+4+4+0+8+4+8+a+8+b+2+1+c ++N N N N N #.    ",
"  c+d+e+e+e+e+e+f+f+g+h+Y i+Y G j+k+l+l+i+l+j+m+m+G n+i+Y G H H o+o+o+H h+g+f+f+e+e+e+e+e+d+c+  ",
"                p+c q+M r+s+t+t+s+s+s+u+t+t+t+t+t+s+r+t+t+r+M M M M M M M q+c p+                ",
"                v+e+w+9 x+y+z+l.x+x+l.A+x+x+y+x+y+y+l.y+y+x+A+l.x+y+A+x+9 w+e+v+                ",
"                v+e+B+' & z+C+z+/ C+1 / 1 C+/ & z+C+/ & z+9 9 / C+/ z+/ ' B+e+v+                ",
"                p+c _ $ D+d.j.E+j.j.e.j.D+j.d.j.E+f.F+F+f.F+E+d.j.E+f.D+$ _ c p+                ",
"                ~+S.G+G+H+D+D+j.j.I+D+F+F+j.j.D+_ _ F+D+D+D+j.j.I+F+F+I+G+G+S.~+                ",
"                J+n.G+G+j._ F+j.F+F+F+I+j.F+D+F+D+D+j.D+F+D+F+I+D+3 F+I+G+G+n.J+                ",
"                K+f++ + I+E+_ 3 j._ _ I+_ _ D+_ D+I+D+H+_ j._ + + + + + + + f+K+                ",
"                  L++ + + + + + + + + + + + + + + + + + + + + + + + + + + + L+                  ",
"                    M+M+M+M+M+M+M+M+M+M+M+M+M+M+M+M+M+M+M+M+M+M+M+M+M+M+M+M+                    ",
"                                                                                                ",
"                                                                                                "};
