/* XPM */
static char * trash_xpm[] = {
"48 48 331 2",
"  	c None",
". 	c #B1BBC5",
"+ 	c #B2BCC6",
"@ 	c #B2BDC6",
"# 	c #B3BDC7",
"$ 	c #B3BEC7",
"% 	c #B4BEC7",
"& 	c #AEB9C2",
"* 	c #ABB6C0",
"= 	c #ACB7C1",
"- 	c #AEB9C3",
"; 	c #AFB9C3",
"> 	c #AEB8C2",
", 	c #ADB8C2",
"' 	c #ADB7C2",
") 	c #ABB6C1",
"! 	c #AAB5C0",
"~ 	c #AAB5BF",
"{ 	c #A9B5BF",
"] 	c #A9B4BF",
"^ 	c #A8B5BF",
"/ 	c #A7B2BD",
"( 	c #ACB7C2",
"_ 	c #AAB6C0",
": 	c #A9B4BE",
"< 	c #A8B4BE",
"[ 	c #A8B3BE",
"} 	c #A7B3BE",
"| 	c #A7B3BD",
"1 	c #A6B2BD",
"2 	c #A5B1BC",
"3 	c #A5B2BD",
"4 	c #A7B2BE",
"5 	c #A5B0BC",
"6 	c #929EA9",
"7 	c #A6B1BD",
"8 	c #9DAAB6",
"9 	c #535F6A",
"0 	c #73808C",
"a 	c #939FAA",
"b 	c #A1ADB9",
"c 	c #A5B1BD",
"d 	c #A6B1BC",
"e 	c #A8B4BF",
"f 	c #B0BBC5",
"g 	c #9CA8B3",
"h 	c #778492",
"i 	c #65717C",
"j 	c #6B7986",
"k 	c #818E9C",
"l 	c #95A2AF",
"m 	c #9EAAB7",
"n 	c #A3AFBB",
"o 	c #AFBAC4",
"p 	c #B1BCC5",
"q 	c #B5BFC8",
"r 	c #B7C1C9",
"s 	c #B8C1CB",
"t 	c #BCC6CE",
"u 	c #C9D0D7",
"v 	c #CED5DB",
"w 	c #D2D8DD",
"x 	c #D4DADF",
"y 	c #B8C2C9",
"z 	c #8B98A3",
"A 	c #6D7A89",
"B 	c #2D3435",
"C 	c #515A62",
"D 	c #5F6B78",
"E 	c #6A7784",
"F 	c #7C8998",
"G 	c #8E9CAB",
"H 	c #97A4B3",
"I 	c #9FACB9",
"J 	c #C1C8D1",
"K 	c #CAD1D7",
"L 	c #D1D8DD",
"M 	c #D8DEE2",
"N 	c #DDE2E5",
"O 	c #E2E5E9",
"P 	c #E7EAED",
"Q 	c #EBEDF0",
"R 	c #F0F1F3",
"S 	c #F3F4F6",
"T 	c #F8F8F9",
"U 	c #FAFAFB",
"V 	c #F0F2F4",
"W 	c #D4D9DF",
"X 	c #C5CCD4",
"Y 	c #AFBAC3",
"Z 	c #8996A2",
"` 	c #2C3236",
" .	c #2D3335",
"..	c #4C555C",
"+.	c #64707C",
"@.	c #7D8A98",
"#.	c #9EABB8",
"$.	c #B4BDC7",
"%.	c #BCC4CC",
"&.	c #C3CBD2",
"*.	c #D1D6DB",
"=.	c #D7DCE1",
"-.	c #E4E7EA",
";.	c #EBEDEF",
">.	c #F1F2F4",
",.	c #F8F9FA",
"'.	c #FAFBFB",
").	c #EEF0F2",
"!.	c #E0E4E8",
"~.	c #D2D7DD",
"{.	c #C5CDD4",
"].	c #B0BAC3",
"^.	c #8A97A4",
"/.	c #596571",
"(.	c #2C3335",
"_.	c #363D42",
":.	c #545E67",
"<.	c #687480",
"[.	c #7D8A99",
"}.	c #919FAE",
"|.	c #9AA8B6",
"1.	c #A0ADBA",
"2.	c #A7B3BF",
"3.	c #AEB8C3",
"4.	c #B5BEC9",
"5.	c #BCC5CD",
"6.	c #C4CCD2",
"7.	c #CBD2D8",
"8.	c #D1D7DD",
"9.	c #D8DDE1",
"0.	c #DEE3E6",
"a.	c #E4E8EB",
"b.	c #EBEEF0",
"c.	c #F1F3F4",
"d.	c #FBFBFC",
"e.	c #E3E7EB",
"f.	c #D7DCE2",
"g.	c #CAD1D8",
"h.	c #ABB5BD",
"i.	c #77818B",
"j.	c #465058",
"k.	c #2D3334",
"l.	c #434C52",
"m.	c #565E65",
"n.	c #434B51",
"o.	c #4E575E",
"p.	c #6A747E",
"q.	c #7E8994",
"r.	c #939EAA",
"s.	c #A3AFBA",
"t.	c #B0BAC5",
"u.	c #BAC4CD",
"v.	c #C3CBD4",
"w.	c #CBD2D9",
"x.	c #D1D8DE",
"y.	c #D7DDE2",
"z.	c #DDE2E7",
"A.	c #E4E9EC",
"B.	c #ECEFF2",
"C.	c #F2F4F6",
"D.	c #F8FAFB",
"E.	c #FEFEFF",
"F.	c #E4E6E8",
"G.	c #CCCFD1",
"H.	c #B0B4B7",
"I.	c #888D90",
"J.	c #71787B",
"K.	c #6C767D",
"L.	c #626E7A",
"M.	c #596268",
"N.	c #727E88",
"O.	c #6C7885",
"P.	c #6B7782",
"Q.	c #68737D",
"R.	c #636C74",
"S.	c #5A6268",
"T.	c #5E666A",
"U.	c #6D7479",
"V.	c #7B8286",
"W.	c #878C90",
"X.	c #919599",
"Y.	c #9BA0A4",
"Z.	c #A7ABAD",
"`.	c #AEB1B3",
" +	c #ABAFB1",
".+	c #AAADAE",
"++	c #A7AAAB",
"@+	c #A5A8A8",
"#+	c #A0A3A4",
"$+	c #999C9D",
"%+	c #989C9D",
"&+	c #9FA3A5",
"*+	c #ABAFB3",
"=+	c #B9BFC4",
"-+	c #8F9CA8",
";+	c #707D8C",
">+	c #677482",
",+	c #7C8A99",
"'+	c #909EAD",
")+	c #99A7B5",
"!+	c #A2ADB8",
"~+	c #A2ACB5",
"{+	c #A7AFB7",
"]+	c #ACB3BA",
"^+	c #B0B6BC",
"/+	c #B3B9BD",
"(+	c #B6BBBE",
"_+	c #BBC0C2",
":+	c #C3C6C9",
"<+	c #D5D8DA",
"[+	c #DEE0E2",
"}+	c #E9EAEA",
"|+	c #F4F5F5",
"1+	c #F1F3F5",
"2+	c #E7EBEE",
"3+	c #D8DEE3",
"4+	c #C7CFD7",
"5+	c #B2BCC5",
"6+	c #8C98A4",
"7+	c #6F7D8B",
"8+	c #79838C",
"9+	c #636F7B",
"0+	c #667482",
"a+	c #7B8997",
"b+	c #8D9BA9",
"c+	c #97A4B2",
"d+	c #BDC6CE",
"e+	c #C5CCD3",
"f+	c #D9DEE2",
"g+	c #DFE3E7",
"h+	c #E6E9EC",
"i+	c #F2F3F5",
"j+	c #F9FAFA",
"k+	c #EFF1F3",
"l+	c #E1E5E9",
"m+	c #D3D9DD",
"n+	c #79838B",
"o+	c #9EABB7",
"p+	c #BCC5CE",
"q+	c #C4CBD3",
"r+	c #D7DDE1",
"s+	c #DEE2E5",
"t+	c #E5E8EB",
"u+	c #F1F4F4",
"v+	c #F8F9F9",
"w+	c #FBFBFB",
"x+	c #C5CCD5",
"y+	c #CBD1D8",
"z+	c #79828C",
"A+	c #636F7A",
"B+	c #667582",
"C+	c #788189",
"D+	c #64707B",
"E+	c #8D99A5",
"F+	c #636C73",
"G+	c #6E7983",
"H+	c #667381",
"I+	c #7B8896",
"J+	c #C7CED6",
"K+	c #87939F",
"L+	c #6B7886",
"M+	c #5B646A",
"N+	c #6D7A87",
"O+	c #D1D7DC",
"P+	c #AAB1B7",
"Q+	c #5D6368",
"R+	c #373E42",
"S+	c #373F43",
"T+	c #2E3436",
"U+	c #474F56",
"V+	c #6D7985",
"W+	c #8D9BAA",
"X+	c #9FACB8",
"Y+	c #ADB7C1",
"Z+	c #D7DADE",
"`+	c #83888C",
" @	c #3D4345",
".@	c #2A3031",
"+@	c #2B3133",
"@@	c #32383B",
"#@	c #4E585D",
"$@	c #75808A",
"%@	c #97A3AF",
"&@	c #A9B4C0",
"*@	c #B1BDC7",
"=@	c #B7C0CB",
"-@	c #C3CBD3",
";@	c #D0D6DC",
">@	c #ECEEF0",
",@	c #F4F5F6",
"'@	c #FDFDFE",
")@	c #FFFFFF",
"!@	c #F7F8FA",
"~@	c #A6A9AC",
"{@	c #3D4547",
"]@	c #32393B",
"^@	c #2C3234",
"/@	c #282E30",
"(@	c #2B3032",
"_@	c #3A4043",
":@	c #555C60",
"<@	c #7B8188",
"[@	c #989FA4",
"}@	c #AFB5BB",
"|@	c #BEC5CA",
"1@	c #C9CDD2",
"2@	c #D0D5D9",
"3@	c #DBDDE0",
"4@	c #DDDFE2",
"5@	c #D9DBDC",
"6@	c #CCCECF",
"7@	c #BBBDBE",
"8@	c #8D9091",
"9@	c #5F6466",
"0@	c #363C3E",
"a@	c #3A4143",
"b@	c #3D4446",
"c@	c #383F41",
"d@	c #2F3538",
"e@	c #252A2C",
"f@	c #282E2F",
"g@	c #414648",
"h@	c #474C4E",
"i@	c #4B5153",
"j@	c #4D5254",
"k@	c #4B5052",
"l@	c #484D4F",
"m@	c #404547",
"n@	c #2D3234",
"o@	c #202729",
"p@	c #1E2527",
"                                                                                                ",
"                                                                                                ",
"                                                                                                ",
"                                                                                                ",
"                                                                                                ",
"                                      . . + @ # $ % # + &                                       ",
"                          * = - ; - - > , ' = ) * ! ~ { ] { ! ^ ! ) {                           ",
"                      / ! = ( = * _ ~ { : < [ } } | 1 1 1 1 2 3 1 1 1 4 5                       ",
"                    6 : ) < [ } } } } | 1 1 1 1 1 7 1 1 1 1 1 1 } 1 2 2 1 8                     ",
"                    9 0 a b c 1 1 2 2 c 1 1 1 1 1 1 1 1 2 2 d 1 } e , f g h                     ",
"                      i j k l m n ] , o . p p f p # q r s t u v w x v y z A                     ",
"                  B C D E F G H I e % J K L M N O P Q R S T U V O W X Y Z                       ",
"                `  ...+.E @.G H #.1 ' $.%.&.K *.=.N -.;.>.,.'.).!.~.{.].^./.                    ",
"                (. ._.:.<.[.}.|.1.2.3.4.5.6.7.8.9.0.a.b.c.,.d.V e.f.g.h.i.j.                    ",
"                k. .l.m.n.o.p.q.r.s.t.u.v.w.x.y.z.A.B.C.D.E.U F.G.H.I.J.K.L.                    ",
"                   .M.N.O.P.Q.R.S.T.U.V.W.X.Y.Z.`. +.+++@+#+$+%+&+*+=+% -+;+                    ",
"                      L.>+,+'+)+#.!+~+{+]+^+/+(+_+:+G.<+[+}+|+1+2+3+4+5+6+7+                    ",
"                    8+9+0+a+b+c+#.d , q d+e+w.w f+g+h+b.i+j+d.k+l+m+X 5+6+7+                    ",
"                    n+9+0+a+b+c+o+c ' % p+q+7.L r+s+t+Q u+v+w+k+l+m+x+5+6+7+                    ",
"                    n+9+0+a+b+c+o+c ' % p+q+y+L r+s+t+Q u+v+w+k+l+m+x+5+6+7+                    ",
"                    n+9+0+a+b+c+o+c ' % p+q+y+L r+s+t+Q u+v+w+k+l+m+x+5+6+7+                    ",
"                    n+9+0+a+b+c+o+c ' % p+q+y+L r+s+t+Q u+v+w+k+l+m+x+5+6+7+                    ",
"                    n+9+0+a+b+c+o+c ' % p+q+y+L r+s+t+Q u+v+w+k+l+m+x+5+6+7+                    ",
"                    n+9+0+a+b+c+o+c ' % p+q+y+L r+s+t+Q u+v+w+k+l+m+x+5+6+7+                    ",
"                    n+9+0+a+b+c+o+c ' % p+q+y+L r+s+t+Q u+v+w+k+l+m+x+5+6+7+                    ",
"                    n+9+0+a+b+c+o+c ' % p+q+y+L r+s+t+Q u+v+w+k+l+m+x+5+6+7+                    ",
"                    n+9+0+a+b+c+o+c ' % p+q+y+L r+s+t+Q u+v+w+k+l+m+x+5+6+7+                    ",
"                    n+9+0+a+b+c+o+c ' % p+q+y+L r+s+t+Q u+v+w+k+l+m+x+5+6+7+                    ",
"                    n+9+0+a+b+c+o+c ' % p+q+y+L r+s+t+Q u+v+w+k+l+m+x+5+6+7+                    ",
"                    n+9+0+a+b+c+o+c ' % p+q+y+L r+s+t+Q u+v+w+k+l+m+x+5+6+7+                    ",
"                    n+9+0+a+b+c+o+c ' % p+q+y+L r+s+t+Q u+v+w+k+l+m+x+5+6+7+                    ",
"                    n+9+0+a+b+c+o+c ' % p+q+y+L r+s+t+Q u+v+w+k+l+m+x+5+6+7+                    ",
"                    n+9+0+a+b+c+o+c ' % p+q+y+L r+s+t+Q u+v+w+k+l+m+x+5+6+7+                    ",
"                    n+9+0+a+b+c+o+c ' % p+q+y+L r+s+t+Q u+v+w+k+l+m+x+5+6+7+                    ",
"                    n+9+0+a+b+c+o+c ' % p+q+y+L r+s+t+Q u+v+w+k+l+m+x+5+6+7+                    ",
"                    n+9+0+a+b+c+o+c ' % p+q+y+L r+s+t+Q u+v+w+k+l+m+x+5+6+7+                    ",
"                    n+9+0+a+b+c+o+c ' % p+q+y+L r+s+t+Q u+v+w+k+l+m+x+5+6+7+                    ",
"                    n+9+0+a+b+c+o+c ' % p+q+y+L r+s+t+Q u+v+w+k+l+m+x+5+6+7+                    ",
"                    n+9+0+a+b+c+o+c ' % p+q+y+L r+s+t+Q u+v+w+k+l+m+x+5+6+7+                    ",
"                    z+A+B+a+b+c+o+c ' % p+q+y+L r+s+t+Q u+v+w+k+l+m+x+5+6+7+                    ",
"                    C+D+0+a+b+c+o+c ' % p+q+y+L r+s+t+Q u+v+w+k+l+m+X 5+E+;+                    ",
"                    F+G+H+I+b+c+o+c ' % p+q+y+L r+s+t+Q u+v+w+k+l+m+J+5+K+L+                    ",
"                      M+N+a+b+c+o+c ' % p+q+y+L r+s+t+Q u+v+w+k+l+O+P+Q+R+S+                    ",
"                      T+U+V+W+|.X+7 Y+% p+q+y+L r+s+t+Q c.v+w+1+Z+`+ @.@+@k. .                  ",
"                          @@#@$@%@&@*@=@d+-@g.;@=.s+a.>@,@'@)@!@~@{@]@ .^@ . .T+                ",
"                            /@(@_@:@<@[@}@|@1@2@Z+3@4@5@6@7@8@9@0@a@b@c@d@T+                    ",
"                                  e@f@  0@g@h@i@j@k@l@m@  n@o@p@                                ",
"                                                                                                "};
