/* XPM */
static char * user_home_xpm[] = {
"48 48 763 2",
"  	c None",
". 	c #E6A200",
"+ 	c #E9A809",
"@ 	c #E7A405",
"# 	c #E2A000",
"$ 	c #E3A100",
"% 	c #F1B31A",
"& 	c #F4B71F",
"* 	c #EBAC10",
"= 	c #E3A307",
"- 	c #DC9C00",
"; 	c #E1A001",
"> 	c #EFB21D",
", 	c #F0B31D",
"' 	c #F1B31E",
") 	c #F2B41E",
"! 	c #F3B51E",
"~ 	c #F2B41C",
"{ 	c #EBAC14",
"] 	c #E3A30B",
"^ 	c #D99A03",
"/ 	c #E0A004",
"( 	c #EAAE1C",
"_ 	c #EBAE1C",
": 	c #ECAF1C",
"< 	c #EDB01C",
"[ 	c #EEB11D",
"} 	c #F1B41E",
"| 	c #ECAE18",
"1 	c #D29300",
"2 	c #DD9D05",
"3 	c #E5A91A",
"4 	c #E6AA1B",
"5 	c #E7AB1B",
"6 	c #E8AC1B",
"7 	c #E9AD1B",
"8 	c #EBAF1C",
"9 	c #EDB01D",
"0 	c #DA9C0A",
"a 	c #D99A05",
"b 	c #E0A519",
"c 	c #E1A619",
"d 	c #E2A719",
"e 	c #E3A81A",
"f 	c #E4A91A",
"g 	c #E5AA1A",
"h 	c #E5A917",
"i 	c #CD8F01",
"j 	c #D79805",
"k 	c #DBA118",
"l 	c #DCA218",
"m 	c #DDA318",
"n 	c #DEA418",
"o 	c #DFA519",
"p 	c #E2A71A",
"q 	c #E4A819",
"r 	c #DDA113",
"s 	c #D5990B",
"t 	c #CD9005",
"u 	c #D49606",
"v 	c #D79D16",
"w 	c #D89E16",
"x 	c #D99F17",
"y 	c #DA9F17",
"z 	c #DBA017",
"A 	c #DCA118",
"B 	c #DDA218",
"C 	c #DEA318",
"D 	c #DFA418",
"E 	c #E0A517",
"F 	c #D79C10",
"G 	c #CD920A",
"H 	c #C48903",
"I 	c #D09306",
"J 	c #D29915",
"K 	c #D39A15",
"L 	c #D49A15",
"M 	c #D59B16",
"N 	c #D69C16",
"O 	c #D89E17",
"P 	c #DAA017",
"Q 	c #E2A619",
"R 	c #E3A71A",
"S 	c #DCA015",
"T 	c #D1960E",
"U 	c #C78B08",
"V 	c #BA8102",
"W 	c #CD8F06",
"X 	c #CD9311",
"Y 	c #CE9111",
"Z 	c #D19417",
"` 	c #D09116",
" .	c #D09315",
"..	c #D19314",
"+.	c #D19412",
"@.	c #D39714",
"#.	c #D59A15",
"$.	c #DBA117",
"%.	c #DFA419",
"&.	c #E1A618",
"*.	c #D69B13",
"=.	c #C68A0A",
"-.	c #B77C03",
";.	c #D59D19",
">.	c #E1B142",
",.	c #E8BC54",
"'.	c #EDC45F",
").	c #EEC662",
"!.	c #EFC763",
"~.	c #EFC865",
"{.	c #EEC763",
"].	c #E9BE58",
"^.	c #E3B44B",
"/.	c #DDAA3F",
"(.	c #D8A233",
"_.	c #D39A28",
":.	c #CD8F15",
"<.	c #D19611",
"[.	c #C08709",
"}.	c #B07602",
"|.	c #E4B748",
"1.	c #EAC15A",
"2.	c #EBC25B",
"3.	c #EBC35C",
"4.	c #ECC45D",
"5.	c #EDC560",
"6.	c #EEC661",
"7.	c #EEC762",
"8.	c #EFC764",
"9.	c #E3B64F",
"0.	c #D49E31",
"a.	c #CA8F18",
"b.	c #CD9111",
"c.	c #D49B15",
"d.	c #D69D16",
"e.	c #D79E16",
"f.	c #DCA217",
"g.	c #CC9210",
"h.	c #BB8209",
"i.	c #AA7102",
"j.	c #C98B00",
"k.	c #E3B647",
"l.	c #E8BF55",
"m.	c #E9BF56",
"n.	c #EAC058",
"o.	c #EAC159",
"p.	c #EBC25A",
"q.	c #ECC35C",
"r.	c #ECC45E",
"s.	c #EFC864",
"t.	c #E5B954",
"u.	c #D39E34",
"v.	c #C58A12",
"w.	c #D09614",
"x.	c #D49B16",
"y.	c #D59C16",
"z.	c #D89F17",
"A.	c #D49A14",
"B.	c #A36B00",
"C.	c #C68900",
"D.	c #E2B546",
"E.	c #E6BC50",
"F.	c #E7BC52",
"G.	c #E8BD53",
"H.	c #E8BE54",
"I.	c #E9BF55",
"J.	c #E9BF57",
"K.	c #EBC25C",
"L.	c #ECC35D",
"M.	c #EDC55F",
"N.	c #EBC25E",
"O.	c #CF9B32",
"P.	c #C38710",
"Q.	c #CE9513",
"R.	c #D19815",
"S.	c #D39915",
"T.	c #D39A14",
"U.	c #A06700",
"V.	c #C38700",
"W.	c #E2B445",
"X.	c #E4B94C",
"Y.	c #E5BA4D",
"Z.	c #E6BA4E",
"`.	c #E6BB4F",
" +	c #E7BC51",
".+	c #E7BD52",
"++	c #E9C057",
"@+	c #E9BF58",
"#+	c #E6BF59",
"$+	c #E7C05B",
"%+	c #EAC25C",
"&+	c #EDC661",
"*+	c #E8BF5B",
"=+	c #CA962E",
"-+	c #BF850F",
";+	c #CC9313",
">+	c #CE9514",
",+	c #CF9614",
"'+	c #D09714",
")+	c #9D6600",
"!+	c #C08500",
"~+	c #E1B444",
"{+	c #E2B647",
"]+	c #E3B748",
"^+	c #E4B84A",
"/+	c #E4B84B",
"(+	c #E5B94C",
"_+	c #E6BB4E",
":+	c #E6BB50",
"<+	c #E6BB51",
"[+	c #DFB851",
"}+	c #D0B053",
"|+	c #958A58",
"1+	c #968C58",
"2+	c #C9AC57",
"3+	c #E1BB58",
"4+	c #E9C05A",
"5+	c #E4BA56",
"6+	c #BB841B",
"7+	c #C48B10",
"8+	c #CA9213",
"9+	c #CB9313",
"0+	c #CC9413",
"a+	c #CD9513",
"b+	c #CD9414",
"c+	c #9B6400",
"d+	c #BE8302",
"e+	c #E0B241",
"f+	c #E0B342",
"g+	c #E1B545",
"h+	c #E3B749",
"i+	c #E2B749",
"j+	c #DCB34C",
"k+	c #CAA84D",
"l+	c #7E7B58",
"m+	c #87969A",
"n+	c #DDE1E3",
"o+	c #95A4A9",
"p+	c #54676A",
"q+	c #AD9955",
"r+	c #DCB755",
"s+	c #E8BE56",
"t+	c #EBC15A",
"u+	c #ECC45F",
"v+	c #C69530",
"w+	c #B77F0C",
"x+	c #C68F12",
"y+	c #C79012",
"z+	c #C89012",
"A+	c #C99112",
"B+	c #986100",
"C+	c #BF8205",
"D+	c #DEB03C",
"E+	c #DEB03E",
"F+	c #DFB13F",
"G+	c #E0B240",
"H+	c #E0B341",
"I+	c #DFB242",
"J+	c #D8AF45",
"K+	c #C8A648",
"L+	c #7A7956",
"M+	c #86969A",
"N+	c #E5E8EA",
"O+	c #FDFEFF",
"P+	c #E8F7FF",
"Q+	c #E9ECED",
"R+	c #96A4A9",
"S+	c #536563",
"T+	c #B39C52",
"U+	c #DDB552",
"V+	c #E7BD53",
"W+	c #D8AB46",
"X+	c #B0790F",
"Y+	c #C28B10",
"Z+	c #C38C11",
"`+	c #C48D11",
" @	c #976001",
".@	c #BA7E02",
"+@	c #DCAD38",
"@@	c #DCAD39",
"#@	c #DDAE3A",
"$@	c #DBAE3B",
"%@	c #D5AA3E",
"&@	c #C19F41",
"*@	c #767654",
"=@	c #88979C",
"-@	c #E6EAEB",
";@	c #FBFEFF",
">@	c #AAE1FF",
",@	c #53C2FF",
"'@	c #66C9FF",
")@	c #E7F7FF",
"!@	c #8C9BA2",
"~@	c #57665E",
"{@	c #B99F50",
"]@	c #DEB54E",
"^@	c #D7AC47",
"/@	c #AC760C",
"(@	c #C08910",
"_@	c #C08A10",
":@	c #966001",
"<@	c #B57A00",
"[@	c #D9A932",
"}@	c #D9AA34",
"|@	c #D4A737",
"1@	c #BF9B3C",
"2@	c #737454",
"3@	c #8B999E",
"4@	c #E8EBEC",
"5@	c #FAFDFF",
"6@	c #A4DFFF",
"7@	c #37B8FF",
"8@	c #19AEFF",
"9@	c #36B8FF",
"0@	c #5FC7FF",
"a@	c #92D9FF",
"b@	c #F5FBFF",
"c@	c #CFD5D8",
"d@	c #84949B",
"e@	c #5F6A5A",
"f@	c #BDA14C",
"g@	c #DEB44B",
"h@	c #E8BE55",
"i@	c #BC8B29",
"j@	c #BA840F",
"k@	c #BD870F",
"l@	c #945F01",
"m@	c #B37800",
"n@	c #D0A12B",
"o@	c #C09B36",
"p@	c #757651",
"q@	c #8D9AA0",
"r@	c #F8FCFF",
"s@	c #9EDDFF",
"t@	c #32B7FF",
"u@	c #31B6FF",
"v@	c #5AC5FF",
"w@	c #80D2FF",
"x@	c #B1E3FF",
"y@	c #C1CACD",
"z@	c #7A8C93",
"A@	c #686C55",
"B@	c #C0A149",
"C@	c #DEB347",
"D@	c #BC8D2A",
"E@	c #B8820E",
"F@	c #BA840E",
"G@	c #935E02",
"H@	c #AA7204",
"I@	c #7A754C",
"J@	c #8F9DA2",
"K@	c #EBEEEF",
"L@	c #F5FCFF",
"M@	c #97DAFF",
"N@	c #2FB6FF",
"O@	c #25B2FF",
"P@	c #4EC1FF",
"Q@	c #72CDFF",
"R@	c #93D9FF",
"S@	c #C2E9FF",
"T@	c #FCFDFD",
"U@	c #B6BFC3",
"V@	c #70838A",
"W@	c #717251",
"X@	c #C4A246",
"Y@	c #DDB144",
"Z@	c #E2B545",
"`@	c #E2B646",
" #	c #E4B94B",
".#	c #E5BA4E",
"+#	c #B88826",
"@#	c #B5800D",
"##	c #B6810D",
"$#	c #925C02",
"%#	c #9B6C0E",
"&#	c #6F7E7B",
"*#	c #ABB5B9",
"=#	c #E1E5E7",
"-#	c #E2F5FF",
";#	c #A2DEFF",
">#	c #55C3FF",
",#	c #3ABAFF",
"'#	c #5DC6FF",
")#	c #7CD1FF",
"!#	c #95DAFF",
"~#	c #C6EBFF",
"{#	c #F8F9F9",
"]#	c #ACB7BB",
"^#	c #657980",
"/#	c #7D774E",
"(#	c #C9A341",
"_#	c #DEB13F",
":#	c #E1B343",
"<#	c #E3B648",
"[#	c #B48422",
"}#	c #B27D0C",
"|#	c #B37E0C",
"1#	c #905B02",
"2#	c #C08F1C",
"3#	c #B48F2B",
"4#	c #80743F",
"5#	c #5D6C69",
"6#	c #E3E7E9",
"7#	c #9CDCFF",
"8#	c #22B1FF",
"9#	c #43BDFF",
"0#	c #75CFFF",
"a#	c #86D5FF",
"b#	c #C4EBFF",
"c#	c #F1F3F4",
"d#	c #A5B1B6",
"e#	c #5B7178",
"f#	c #8E8148",
"g#	c #CFA63E",
"h#	c #DDAF3D",
"i#	c #DFB13E",
"j#	c #E1B443",
"k#	c #B1811F",
"l#	c #AF7A0B",
"m#	c #AF7B0B",
"n#	c #8F5B02",
"o#	c #D29C1B",
"p#	c #BF9322",
"q#	c #646648",
"r#	c #7AD0FF",
"s#	c #23B1FF",
"t#	c #3EBBFF",
"u#	c #61C7FF",
"v#	c #69CAFF",
"w#	c #C3EAFF",
"x#	c #E7EBEC",
"y#	c #9DABAF",
"z#	c #566A6F",
"A#	c #A08944",
"B#	c #D2A739",
"C#	c #DDAF3B",
"D#	c #DEAF3C",
"E#	c #DEB03D",
"F#	c #DFB240",
"G#	c #AE7D1B",
"H#	c #AB770A",
"I#	c #AC780A",
"J#	c #8D5A02",
"K#	c #C38B0D",
"L#	c #D19B15",
"M#	c #BC8F1F",
"N#	c #5C685C",
"O#	c #FFFFFF",
"P#	c #59C5FF",
"Q#	c #2CB4FF",
"R#	c #39B9FF",
"S#	c #40BCFF",
"T#	c #47BFFF",
"U#	c #DCE0E2",
"V#	c #97A6AB",
"W#	c #536668",
"X#	c #AE913D",
"Y#	c #D4A735",
"Z#	c #DBAC36",
"`#	c #DCAC37",
" $	c #AB7A17",
".$	c #A87409",
"+$	c #A97509",
"@$	c #8C5902",
"#$	c #BF8609",
"$$	c #D09710",
"%$	c #B38A1D",
"&$	c #6A7B7B",
"*$	c #38B9FF",
"=$	c #CAECFF",
"-$	c #FEFFFF",
";$	c #CED5D7",
">$	c #93A2A7",
",$	c #556560",
"'$	c #BA9637",
")$	c #D5A631",
"!$	c #DAAA33",
"~$	c #DAAA34",
"{$	c #DBAB35",
"]$	c #A87614",
"^$	c #A57208",
"/$	c #8A5702",
"($	c #B98005",
"_$	c #CD950C",
":$	c #AD871D",
"<$	c #819297",
"[$	c #1CAFFF",
"}$	c #27B3FF",
"|$	c #BAC3C7",
"1$	c #B3BCC0",
"2$	c #E5E9EA",
"3$	c #BEC7C9",
"4$	c #89989E",
"5$	c #696C4E",
"6$	c #C59B30",
"7$	c #D8A72E",
"8$	c #D8A82F",
"9$	c #D9A830",
"0$	c #A57312",
"a$	c #A16F07",
"b$	c #A26F07",
"c$	c #875401",
"d$	c #A87202",
"e$	c #C48D08",
"f$	c #9C7D1F",
"g$	c #9DA9AE",
"h$	c #DCF3FF",
"i$	c #1BAFFF",
"j$	c #46BEFF",
"k$	c #FAFAFB",
"l$	c #4A5953",
"m$	c #555F4F",
"n$	c #556563",
"o$	c #516059",
"p$	c #777144",
"q$	c #B8942F",
"r$	c #D7A429",
"s$	c #D7A52A",
"t$	c #D7A62B",
"u$	c #D7A62D",
"v$	c #A2700F",
"w$	c #9E6C06",
"x$	c #845201",
"y$	c #905E03",
"z$	c #B07D05",
"A$	c #7F6D2C",
"B$	c #BAE7FF",
"C$	c #D0EEFF",
"D$	c #EEF9FF",
"E$	c #ADE2FF",
"F$	c #6ACBFF",
"G$	c #29B4FF",
"H$	c #EDEFF0",
"I$	c #7D8E95",
"J$	c #5C624B",
"K$	c #A0842F",
"L$	c #AC8B2C",
"M$	c #B48F2A",
"N$	c #C29727",
"O$	c #CE9D24",
"P$	c #D6A223",
"Q$	c #D6A325",
"R$	c #D6A326",
"S$	c #D6A428",
"T$	c #9F6D0C",
"U$	c #9A6905",
"V$	c #9B6905",
"W$	c #835001",
"X$	c #825B0B",
"Y$	c #5F5B36",
"Z$	c #D7DDDF",
"`$	c #99DBFF",
" %	c #F1FAFF",
".%	c #B7C1C4",
"+%	c #87979D",
"@%	c #C3CBCE",
"#%	c #EFF3F5",
"$%	c #CBEDFF",
"%%	c #70CCFF",
"&%	c #85D4FF",
"*%	c #DFE4E5",
"=%	c #6D8088",
"-%	c #6D6A42",
";%	c #B68E22",
">%	c #CD9A19",
",%	c #D19D1B",
"'%	c #D39D1B",
")%	c #D59F1D",
"!%	c #D5A01E",
"~%	c #D5A01F",
"{%	c #D5A121",
"]%	c #D6A222",
"^%	c #9C690A",
"/%	c #976604",
"(%	c #986604",
"_%	c #804D00",
":%	c #444E47",
"<%	c #F4F5F6",
"[%	c #78CFFF",
"}%	c #9BA9AE",
"|%	c #3C5257",
"1%	c #475650",
"2%	c #3F5354",
"3%	c #A8E1FF",
"4%	c #D2D8DB",
"5%	c #60747D",
"6%	c #7A6F38",
"7%	c #BE901B",
"8%	c #D29A13",
"9%	c #D39B14",
"0%	c #D39C16",
"a%	c #D49D17",
"b%	c #D49D19",
"c%	c #D49E1A",
"d%	c #D49F1B",
"e%	c #986607",
"f%	c #946303",
"g%	c #946203",
"h%	c #4A6169",
"i%	c #56C4FF",
"j%	c #4ABFFF",
"k%	c #F7F8F8",
"l%	c #89989F",
"m%	c #3E5353",
"n%	c #585B43",
"o%	c #545C45",
"p%	c #A8B3B8",
"q%	c #88D5FF",
"r%	c #C5CDD0",
"s%	c #54696F",
"t%	c #85732F",
"u%	c #C28F12",
"v%	c #D1970E",
"w%	c #D2990F",
"x%	c #D29A10",
"y%	c #D39A12",
"z%	c #D39B13",
"A%	c #D39C15",
"B%	c #D49D18",
"C%	c #956306",
"D%	c #906002",
"E%	c #905F02",
"F%	c #697D86",
"G%	c #7A8B93",
"H%	c #404F4D",
"I%	c #565338",
"J%	c #4E5545",
"K%	c #67CAFF",
"L%	c #E3F5FF",
"M%	c #B8C2C5",
"N%	c #485D5F",
"O%	c #8E7426",
"P%	c #C08D0C",
"Q%	c #CD9309",
"R%	c #CF950A",
"S%	c #D1970B",
"T%	c #D2980D",
"U%	c #D2990E",
"V%	c #D29A11",
"W%	c #925F03",
"X%	c #8D5D01",
"Y%	c #8B5B01",
"Z%	c #6F8289",
"`%	c #AFE3FF",
" &	c #67C9FF",
".&	c #26B2FF",
"+&	c #8AD6FF",
"@&	c #DCE1E2",
"#&	c #6B7E86",
"$&	c #374449",
"%&	c #444437",
"&&	c #414C49",
"*&	c #E2E6E8",
"=&	c #47BEFF",
"-&	c #1EB0FF",
";&	c #FCFEFF",
">&	c #425452",
",&	c #96751B",
"'&	c #BE8706",
")&	c #C48C05",
"!&	c #C68E06",
"~&	c #C89007",
"{&	c #CB9208",
"]&	c #CD9409",
"^&	c #D2980C",
"/&	c #8E5B02",
"(&	c #895A00",
"_&	c #885801",
":&	c #394E56",
"<&	c #A6B1B6",
"[&	c #EDF9FF",
"}&	c #5C727A",
"|&	c #2F3C43",
"1&	c #2E363C",
"2&	c #374C56",
"3&	c #FBFCFC",
"4&	c #FDFEFE",
"5&	c #8E9DA3",
"6&	c #44514C",
"7&	c #876515",
"8&	c #AF7D01",
"9&	c #BB8301",
"0&	c #BE8602",
"a&	c #C08803",
"b&	c #C28A05",
"c&	c #C58C06",
"d&	c #C78E07",
"e&	c #C99008",
"f&	c #CB9209",
"g&	c #8B5901",
"h&	c #875700",
"i&	c #845400",
"j&	c #7B4B02",
"k&	c #344750",
"l&	c #566973",
"m&	c #8F9EA5",
"n&	c #8C9CA1",
"o&	c #40555F",
"p&	c #2F363C",
"q&	c #2F3538",
"r&	c #536770",
"s&	c #F2F4F5",
"t&	c #3E4945",
"u&	c #5F4519",
"v&	c #774A05",
"w&	c #895902",
"x&	c #9E6901",
"y&	c #AE7800",
"z&	c #BA8301",
"A&	c #BC8502",
"B&	c #BE8703",
"C&	c #C18904",
"D&	c #C38B05",
"E&	c #8A5801",
"F&	c #845200",
"G&	c #825100",
"H&	c #69440D",
"I&	c #303D43",
"J&	c #2C3438",
"K&	c #2D3133",
"L&	c #2E3336",
"M&	c #6E8087",
"N&	c #F3FBFF",
"O&	c #9DDCFF",
"P&	c #ABE1FF",
"Q&	c #E0E5E7",
"R&	c #6D8188",
"S&	c #303C44",
"T&	c #2B3032",
"U&	c #362F25",
"V&	c #553D18",
"W&	c #6C440A",
"X&	c #7C4C01",
"Y&	c #875400",
"Z&	c #976300",
"`&	c #A87200",
" *	c #B67F00",
".*	c #976301",
"+*	c #825000",
"@*	c #4A381D",
"#*	c #324448",
"$*	c #8D9CA2",
"%*	c #C6CED1",
"&*	c #BFC9CC",
"**	c #546972",
"=*	c #2F383D",
"-*	c #523C18",
";*	c #69430C",
">*	c #784A04",
",*	c #814E00",
"'*	c #915D00",
")*	c #9B6700",
"!*	c #865400",
"~*	c #7E4D01",
"{*	c #2E2C29",
"]*	c #2D2D2D",
"^*	c #32434A",
"/*	c #344850",
"(*	c #2F3E44",
"_*	c #604010",
":*	c #714707",
"<*	c #7D4D01",
"[*	c #604112",
"                                                                                                ",
"                                                                                                ",
"                                                                                                ",
"                                                                                                ",
"              . + @ #                                                                           ",
"              $ % & % * = -                                                                     ",
"              ; > , ' ) ! ~ { ] ^                                                               ",
"              / ( _ : < [ > , } | 1                                                             ",
"              2 3 4 5 6 7 ( 8 : 9 0                                                             ",
"              a b c d e f g 4 5 6 h i                                                           ",
"              j k l m n o b c p e f q r s t                                                     ",
"              u v w x y z A B C D b c c p e E F G H                                             ",
"              I J K L M N v O x P z A B C D b c Q R S T U V                                     ",
"              W X Y Z Z `  ...+.@.#.v O x P $.A B C %.b c &.*.=.-.                              ",
"            ;.>.,.'.).!.~.~.~.{.].^./.(._.:.+.v O x P $.l m C %.D <.[.}.                        ",
"            |.1.2.3.4.'.5.6.7.8.~.~.~.~.~.8.9.0.a.b.c.d.e.O x P k l m f.g.h.i.                  ",
"          j.k.l.m.n.o.p.2.q.r.'.5.6.{.s.~.~.~.~.~.t.u.v.w.K x.y.d.e.z.x P k A.B.                ",
"          C.D.E.F.G.H.I.J.n.o.p.K.L.r.M.5.).{.s.~.~.~.N.O.P.Q.R.J S.L M N v T.U.                ",
"          V.W.X.Y.Z.`. +.+G.H.m.++@+#+$+%+L.r.M.&+).!.~.~.*+=+-+;+>+,+'+R.J '+)+                ",
"          !+~+{+]+^+/+(+Y._+:+<+[+}+|+1+2+3+4+2.3.4.'.5.6.7.8.5+6+7+8+9+0+a+b+c+                ",
"          d+e+f+~+g+D.k.h+i+j+k+l+m+n+o+p+q+r+s+++o.t+2.q.r.'.5.u+v+w+x+y+z+A+B+                ",
"          C+D+E+F+G+H+I+J+K+L+M+N+O+P+Q+R+S+T+U+V+H.I.m.n.o.p.2.L.r.W+X+Y+Z+`+ @                ",
"          .@+@@@#@$@%@&@*@=@-@;@>@,@'@)@n+!@~@{@]@`. +.+G.H.m.++n.o.p.^@/@(@_@:@                ",
"          <@[@}@|@1@2@3@4@5@6@7@8@9@0@a@b@c@d@e@f@g@(+Y.Z.:+ +.+G.h@m.++i@j@k@l@                ",
"          m@n@o@p@q@Q+r@s@t@8@8@8@u@v@w@x@;@y@z@A@B@C@]+^+/+(+Y.`.:+ +.+D@E@F@G@                ",
"          H@I@J@K@L@M@N@8@8@8@8@8@O@P@Q@R@S@T@U@V@W@X@Y@Z@`@k.h+^+ #(+.#+#@###$#                ",
"          %#&#*#=#-#;#>#8@8@8@8@8@8@,#'#)#!#~#{#]#^#/#(#_#f+:#~+Z@{+<#h+[#}#|#1#                ",
"            2#3#4#5#6#7#8@8@8@8@8@8@8#9#0@0#a#b#c#d#e#f#g#h#i#F+e+f+j#~+k#l#m#n#                ",
"            y+o#p#q#c#r#8@8@8@8@8@8@8@s#t#,@u#v#w#x#y#z#A#B##@C#D#E#i#F#G#H#I#J#                ",
"            K#L#M#N#O#P#8@8@8@8@8@8@8@8@8@Q#R#S#T#~#U#V#W#X#Y#Z#`#@@#@C# $.$+$@$                ",
"            #$$$%$&$O#*$8@8@8@8@8@8@8@8@8@8@8@8@P+=$-$;$>$,$'$)$!$~${$Z#]$^$^$/$                ",
"            ($_$:$<$5@[$8@8@8@8@8@8@8@8@8@8@8@}$O#|$1$2$3$4$5$6$7$8$9$[@0$a$b$c$                ",
"            d$e$f$g$h$8@8@8@8@7@i$8@8@8@8@8@8@j$k$!@l$m$n$o$p$q$r$s$t$u$v$w$w$x$                ",
"            y$z$A$|$B$8@8@8@8@C$D$E$F$G$8@8@8@'@H$I$J$K$L$M$N$O$P$Q$R$S$T$U$V$W$                ",
"              X$Y$Z$`$8@8@8@8@ %.%+%@%#%$%%%8@&%*%=%-%;%>%,%'%)%!%~%{%]%^%/%(%_%                ",
"                :%<%[%8@8@8@G$O#}%|%1%2%}%3%8@6@4%5%6%7%8%9%0%a%b%c%d%)%e%f%g%_%                ",
"                h%O#i%8@8@8@j%k%l%m%n%o%p%q%8@w#r%s%t%u%v%w%x%y%z%A%0%B%C%D%E%_%                ",
"                F%O#*$8@8@8@v#Q+G%H%I%J%r%K%8@L%M%N%O%P%Q%R%S%T%U%w%V%y%W%X%Y%_%                ",
"                Z%<% %`% &.&+&@&#&$&%&&&*&=&-&;&p%>&,&'&)&!&~&{&]&R%^&T%/&(&_&_%                ",
"                  :&#&<&*&5@[&;$}&|&1&2&3&}$,#4&5&6&7&8&9&0&a&b&c&d&e&f&g&h&i&j&                ",
"                        k&l&m&n&o&p&q&r&D$8@P#s&I$t&u&v&w&x&y&z&A&B&C&D&E&F&G&H&                ",
"                              I&J&K&L&M&N&O&P&Q&R&S&T&U&V&W&X&Y&Z&`& *9&.*G&+*@*                ",
"                                      #*l&$*%*&***=*          -*;*>*,*'*)*!*~*{*]*              ",
"                                            ^*/*(*                    _*:*<*[*                  ",
"                                                                                                ",
"                                                                                                ",
"                                                                                                ",
"                                                                                                "};
