/* XPM */
static char * xconsole_xpm[] = {
"48 48 383 2",
"  	c None",
". 	c #AAABAB",
"+ 	c #B2B3B3",
"@ 	c #B7B8B8",
"# 	c #BCBDBD",
"$ 	c #BEBFBF",
"% 	c #BEBFC0",
"& 	c #BFC0C0",
"* 	c #BFC0C1",
"= 	c #C0C1C1",
"- 	c #C0C1C2",
"; 	c #C1C2C2",
"> 	c #C1C2C3",
", 	c #C2C3C3",
"' 	c #C2C3C4",
") 	c #C3C4C4",
"! 	c #C3C4C5",
"~ 	c #C4C5C5",
"{ 	c #C5C5C6",
"] 	c #C5C6C6",
"^ 	c #C6C7C7",
"/ 	c #C7C7C8",
"( 	c #C7C8C8",
"_ 	c #C8C8C9",
": 	c #C8C9C9",
"< 	c #C9CACA",
"[ 	c #CACACB",
"} 	c #CACBCB",
"| 	c #CBCCCC",
"1 	c #C8C8C8",
"2 	c #C1C1C1",
"3 	c #AEAFAF",
"4 	c #B7B8B9",
"5 	c #C5C5C7",
"6 	c #D6D7D8",
"7 	c #DCDDDE",
"8 	c #DDDEDF",
"9 	c #DEDFE0",
"0 	c #DFE0E1",
"a 	c #E1E2E3",
"b 	c #E2E3E4",
"c 	c #E3E4E5",
"d 	c #E5E6E7",
"e 	c #E6E7E8",
"f 	c #E7E8E9",
"g 	c #E9E9EB",
"h 	c #EAEBEC",
"i 	c #EBECED",
"j 	c #EDEEEE",
"k 	c #EEEFEF",
"l 	c #EFF0F0",
"m 	c #F0F1F2",
"n 	c #F2F2F3",
"o 	c #F3F3F4",
"p 	c #F4F4F5",
"q 	c #F4F5F6",
"r 	c #F5F6F7",
"s 	c #F6F7F7",
"t 	c #F7F8F8",
"u 	c #F8F8F9",
"v 	c #F9F9FA",
"w 	c #FAFBFB",
"x 	c #FBFBFB",
"y 	c #FCFCFD",
"z 	c #FDFDFE",
"A 	c #FEFEFE",
"B 	c #FFFFFF",
"C 	c #F8F8F8",
"D 	c #F3F3F3",
"E 	c #EBEBEB",
"F 	c #DEDEDE",
"G 	c #D5D5D5",
"H 	c #AFB0B0",
"I 	c #A9AAAB",
"J 	c #ADAEAE",
"K 	c #B0B1B2",
"L 	c #131313",
"M 	c #121313",
"N 	c #131314",
"O 	c #141414",
"P 	c #141415",
"Q 	c #151515",
"R 	c #111111",
"S 	c #101010",
"T 	c #BABABA",
"U 	c #D9DADA",
"V 	c #ACADAD",
"W 	c #000000",
"X 	c #595959",
"Y 	c #5A5A5A",
"Z 	c #585858",
"` 	c #575757",
" .	c #565656",
"..	c #555555",
"+.	c #545454",
"@.	c #535353",
"#.	c #525252",
"$.	c #515151",
"%.	c #505050",
"&.	c #4F4F4F",
"*.	c #4F4E4E",
"=.	c #4D4D4D",
"-.	c #4C4C4C",
";.	c #4B4B4B",
">.	c #4A4A4A",
",.	c #494949",
"'.	c #484848",
").	c #474747",
"!.	c #464646",
"~.	c #444444",
"{.	c #434343",
"].	c #424242",
"^.	c #414141",
"/.	c #404040",
"(.	c #3F3F3F",
"_.	c #3E3E3E",
":.	c #3D3D3D",
"<.	c #242424",
"[.	c #B3B3B3",
"}.	c #C4C4C6",
"|.	c #AFAFB0",
"1.	c #616161",
"2.	c #626262",
"3.	c #606060",
"4.	c #5F5F5F",
"5.	c #5E5E5E",
"6.	c #5D5D5D",
"7.	c #5C5C5C",
"8.	c #5B5B5B",
"9.	c #4E4E4E",
"0.	c #1A1A1A",
"a.	c #B4B4B4",
"b.	c #D7D8D8",
"c.	c #AAABAC",
"d.	c #C6C6C7",
"e.	c #B2B2B3",
"f.	c #454545",
"g.	c #313131",
"h.	c #0A0A0A",
"i.	c #010101",
"j.	c #D6D6D6",
"k.	c #ABACAC",
"l.	c #C7C8C9",
"m.	c #B4B4B5",
"n.	c #A3A3A3",
"o.	c #A5A5A5",
"p.	c #1C1C1C",
"q.	c #ADADAE",
"r.	c #C9CACB",
"s.	c #B7B7B8",
"t.	c #909090",
"u.	c #E6E6E6",
"v.	c #B2B2B2",
"w.	c #6C6C6C",
"x.	c #0C0C0C",
"y.	c #D3D4D4",
"z.	c #B9B9BA",
"A.	c #838383",
"B.	c #C7C7C7",
"C.	c #E3E3E3",
"D.	c #767676",
"E.	c #3B3B3B",
"F.	c #1D1D1D",
"G.	c #D2D2D2",
"H.	c #CDCDCE",
"I.	c #BBBCBC",
"J.	c #ABABAB",
"K.	c #3C3C3C",
"L.	c #303030",
"M.	c #0E0E0E",
"N.	c #D0D1D1",
"O.	c #ACACAD",
"P.	c #CFCFD0",
"Q.	c #BEBEBF",
"R.	c #6B6B6B",
"S.	c #B7B7B7",
"T.	c #D8D8D8",
"U.	c #8E8E8E",
"V.	c #3A3A3A",
"W.	c #393939",
"X.	c #383838",
"Y.	c #1F1F1F",
"Z.	c #030303",
"`.	c #D1D1D2",
" +	c #C0C0C1",
".+	c #9C9C9C",
"++	c #F4F4F4",
"@+	c #C9C9C9",
"#+	c #7F7F7F",
"$+	c #373737",
"%+	c #363636",
"&+	c #2F2F2F",
"*+	c #CDCECE",
"=+	c #D3D3D4",
"-+	c #C3C3C3",
";+	c #717171",
">+	c #676767",
",+	c #353535",
"'+	c #343434",
")+	c #333333",
"!+	c #212121",
"~+	c #040404",
"{+	c #B1B2B2",
"]+	c #CBCCCD",
"^+	c #D4D5D5",
"/+	c #C5C5C5",
"(+	c #818181",
"_+	c #E7E7E7",
":+	c #323232",
"<+	c #2C2C2C",
"[+	c #121212",
"}+	c #D6D7D7",
"|+	c #262626",
"1+	c #0B0B0B",
"2+	c #050505",
"3+	c #020202",
"4+	c #D8D9D9",
"5+	c #CACACA",
"6+	c #0D0D0D",
"7+	c #090909",
"8+	c #080808",
"9+	c #070707",
"0+	c #B0B1B1",
"a+	c #C7C9C9",
"b+	c #DADADB",
"c+	c #CCCCCC",
"d+	c #0F0F0F",
"e+	c #B0B0B1",
"f+	c #C6C7C8",
"g+	c #DDDDDD",
"h+	c #CECECE",
"i+	c #2E2E2E",
"j+	c #2A2A2A",
"k+	c #191919",
"l+	c #181818",
"m+	c #171717",
"n+	c #161616",
"o+	c #C4C6C6",
"p+	c #DEDFDF",
"q+	c #D0D0D0",
"r+	c #252525",
"s+	c #202020",
"t+	c #1E1E1E",
"u+	c #1B1B1B",
"v+	c #E0E0E0",
"w+	c #272727",
"x+	c #232323",
"y+	c #222222",
"z+	c #ADAEAF",
"A+	c #C1C3C4",
"B+	c #AEAEAE",
"C+	c #E2E2E2",
"D+	c #D4D4D4",
"E+	c #282828",
"F+	c #2D2D2D",
"G+	c #2B2B2B",
"H+	c #292929",
"I+	c #AAACAC",
"J+	c #ABACAD",
"K+	c #E1E1E1",
"L+	c #D3D3D3",
"M+	c #ABABAC",
"N+	c #BDBFBF",
"O+	c #DFE0E0",
"P+	c #BCBDBE",
"Q+	c #DFDFDF",
"R+	c #A9AAAA",
"S+	c #BBBCBD",
"T+	c #A8A9AA",
"U+	c #B9BBBC",
"V+	c #DBDCDC",
"W+	c #A7A8A8",
"X+	c #B7B9BA",
"Y+	c #D0D0D1",
"Z+	c #A6A7A7",
"`+	c #B6B8B9",
" @	c #A9ABAB",
".@	c #CFD0D0",
"+@	c #A4A6A6",
"@@	c #B5B6B7",
"#@	c #D7D7D7",
"$@	c #898989",
"%@	c #787878",
"&@	c #7D7D7D",
"*@	c #848484",
"=@	c #868686",
"-@	c #888888",
";@	c #8A8A8A",
">@	c #8C8C8C",
",@	c #8D8D8D",
"'@	c #8F8F8F",
")@	c #919191",
"!@	c #919091",
"~@	c #828282",
"{@	c #7B7B7B",
"]@	c #807F7F",
"^@	c #A7A8A9",
"/@	c #B3B5B6",
"(@	c #D2D3D3",
"_@	c #DCDCDD",
":@	c #F0F1F1",
"<@	c #F8F9F9",
"[@	c #F6F6F6",
"}@	c #F5F6F6",
"|@	c #F4F5F5",
"1@	c #F3F4F5",
"2@	c #F2F3F3",
"3@	c #F1F2F2",
"4@	c #EFF0F1",
"5@	c #EEEFF0",
"6@	c #EDEEEF",
"7@	c #ECEDEE",
"8@	c #ECEDED",
"9@	c #EAEBEB",
"0@	c #E9EAEB",
"a@	c #E8EAEA",
"b@	c #E8E9EA",
"c@	c #E7E9E9",
"d@	c #E5E7E8",
"e@	c #E5E6E6",
"f@	c #E4E5E6",
"g@	c #E3E5E5",
"h@	c #E2E4E5",
"i@	c #E1E3E3",
"j@	c #DDDFE0",
"k@	c #D8DADA",
"l@	c #D3D5D6",
"m@	c #CCCECE",
"n@	c #B1B2B3",
"o@	c #DEDEDF",
"p@	c #EBECEC",
"q@	c #E9E9EA",
"r@	c #E8E8E9",
"s@	c #E6E8E8",
"t@	c #E4E5E5",
"u@	c #E0E2E2",
"v@	c #E0E1E2",
"w@	c #DEE0E0",
"x@	c #DBDDDD",
"y@	c #DADCDD",
"z@	c #DADBDC",
"A@	c #D9DBDB",
"B@	c #D8DADB",
"C@	c #D7D9DA",
"D@	c #D6D8D9",
"E@	c #D5D7D7",
"F@	c #D4D6D7",
"G@	c #D2D5D5",
"H@	c #D2D4D5",
"I@	c #CDCFD0",
"J@	c #C7C9CA",
"K@	c #BCBEBE",
"L@	c #D5D5D6",
"M@	c #E1E2E2",
"N@	c #F1F2F3",
"O@	c #ECEEEE",
"P@	c #E9EBEB",
"Q@	c #E5E7E7",
"R@	c #E1E3E4",
"S@	c #E0E2E3",
"T@	c #DFE1E2",
"U@	c #DEE0E1",
"V@	c #DDDFDF",
"W@	c #DCDEDF",
"X@	c #DBDDDE",
"Y@	c #D9DBDC",
"Z@	c #D7DADA",
"`@	c #C1C3C3",
" #	c #BBBDBE",
".#	c #B6B7B8",
"+#	c #A2A3A3",
"@#	c #DADBDB",
"##	c #DDDEDE",
"$#	c #DDDDDE",
"%#	c #DCDDDD",
"&#	c #D8D9DA",
"*#	c #D7D8D9",
"=#	c #D5D6D7",
"-#	c #D4D5D6",
";#	c #D1D2D2",
">#	c #C4C5C6",
",#	c #ACACAC",
"'#	c #ADADAD",
"                                                                                                ",
"                                                                                                ",
"                                                                                                ",
"                                                                                                ",
"                                                                                                ",
"  . + @ # $ $ % & & * = - ; ; > , ' ) ) ! ~ { ] ] ] ^ ^ / ( _ : : < < [ } } | | } 1 ] ) 2 $ 3   ",
"  . 4 5 6 7 8 9 0 a b c d e f g h i j k l m n o p q r s t u v w x y z A B B B B A C D E F G H   ",
"  I 4 5 6 7 8 9 0 a b c d e f g h i j k l m n o p q r s t u v w x y z A B B B B A C D E F G J   ",
"  . % K L M L L L L L N O O O O O O O O O P Q Q Q O O O O O O O O L L L L L L L L L R S T U J   ",
"  . ' V W X Y X Z `  ...+.@.#.$.%.&.*.=.-.-.;.>.,.'.).!.!.~.~.{.].^./.(.(._.:._.(.<.W W [.U J   ",
"  . }.|.W 1.2.1.3.4.4.5.6.7.8.Y X Z Z  . ...+.@.#.$.%.%.&.9.=.-.;.>.>.'.'.).>./.0.W W W a.b.J   ",
"  c.d.e.W 7.5.Y ..X Y X X Z `  ...+.@.@.$.$.%.&.9.=.-.-.>.>.,.'.).!.f.~.~.!.g.h.W i.W W a.j.J   ",
"  k.l.m.W Z ..n.o.5.9.$.+.+.@.#.$.%.%.&.9.=.-.;.>.>.'.'.).!.f.~.{.{.^.{.(.p.W W i.i.W W [.G q.  ",
"  k.r.s.W +.$.t.E u.v.w.-.>.%.&.=.=.-.;.>.>.'.'.).!.f.~.~.].].^././.^.g.x.W i.i.i.i.W W [.y.V   ",
"  k.| z.W %.@.=...A.B.C.2 D.,.;.>.,.'.).).!.~.~.{.].^.^.(.(._.:._.E.F.i.W i.i.i.i.i.W W [.G.V   ",
"  k.H.I.W =.&.=.).:.$.J.B 2 {.!.).f.f.~.{.].^././._._.:.K.E.E.:.L.M.W W i.i.i.i.i.i.W W [.N.V   ",
"  O.P.Q.W ,.-.'.R.S.E T.U.@.{.~.].].^./.(._._.K.K.E.V.W.X.W.X.Y.Z.W i.i.i.i.i.i.i.i.W W e.P.V   ",
"  V `. +W ~.^..+++@+#+).V.(.^._.V._.:.K.E.E.V.W.X.$+%+%+$+&+S W W i.i.i.i.i.i.i.i.i.W W v.*+V   ",
"  V =+-+W /.].;+>+:.W._.(._.E.=.2./.W.W.X.$+%+,+'+)+'+'+!+~+W i.i.i.i.i.i.i.i.i.i.i.W W {+]+V   ",
"  V ^+/+W :.^.E.V.:.:.K.E.V.g.(+_+=.:+,+'+)+)+:+g.:+<+[+W W i.i.i.i.i.i.i.i.i.i.i.i.W W {+} V   ",
"  V }+B.W W.:.K.E.V.W.X.X.$+%+K.{.$+,+,+'+'+)+)+'+|+1+Z.2+2+~+Z.Z.3+i.i.i.i.i.i.i.i.W W K < k.  ",
"  J 4+5+W ,+W.W.$+$+%+%+%+%+$+%+,+%+$+%+%+%+$+)+F.x.x.6+x.x.1+h.7+8+9+2+~+Z.i.i.i.i.W W 0+a+k.  ",
"  J b+c+W g.%+,+,+%+$+$+X.X.X.X.X.W.X.X.X.W.L.0.R L L L L [+R S d+M.6+x.h.8+9+2+Z.i.W W e+f+k.  ",
"  J g+h+W i+,+%+$+$+X.W.W.V.V.V.V.V.V.E.V.j+k+l+0.0.0.k+k+l+l+m+n+O L [+S d+6+1+7+9+W W |.o+k.  ",
"  J p+q+2+&+%+$+X.W.V.V.E.E.K.K.K.K._.X.r+F.Y.s+s+s+s+s+Y.t+t+F.p.u+k+l+n+Q L R d+6+2+2+3 ! k.  ",
"  J v+G.1+L.X.W.W.V.E.K.:._._._./.(.)+r+<.|+|+|+w+|+|+|+r+r+<.x+y+!+s+t+p.u+k+m+Q L 1+1+z+A+k.  ",
"  B+C+D+R :+W.V.E.K.:._.(././.^._.g.E+j+<+<+<+F+F+F+<+<+<+G+j+H+E+w+|+<.y+s+Y.p.u+k+R R q.- I+  ",
"  3 C.D+m+)+V.K.:.(.(././.].{.E.&+i+L.g.:+:+)+)+)+)+)+:+:+g.L.&+i+F+<+j+E+|+r+x+!+t+m+m+J+* .   ",
"  3 K+L+F.,+K._.(.^.^.].{.].X.:+'+%+$+$+X.W.W.W.W.W.W.W.X.$+%+,+'+)+:+L.i+<+j+E+|+<.F.F.M+N+.   ",
"  B+O+L+y+$+(./.^.{.~.!.^.$+%+W.E.K.:.:._.(.(.(.(.(.(.(._.:.K.E.V.W.X.%+'+:+L.i+<+H+y+y+. P+.   ",
"  J Q+G.E+W./.].{.!.!.(.V.K._./.^.].{.~.~.f.f.!.!.!.!.f.~.~.{.].^.(._.K.V.X.%+'+:+&+E+E+R+S+.   ",
"  J g+G.i+E.].~.!.~._.:./.].~.f.).'.,.>.;.;.-.-.-.-.-.;.;.>.,.'.!.f.{.^./._.K.W.$+,+i+i+T+U+.   ",
"  J V+`.'+:.f.!.]./.^.f.!.'.>.-.=.9.&.%.$.#.#.#.#.#.#.#.$.%.&.9.=.;.>.'.!.~.]./.:.E.'+'+W+X+.   ",
"  J U Y+V./.!.].].f.'.>.-.9.%.#.@.+...` ` Z Z X X X Z Z `  ...+.@.$.%.9.-.>.).f.{./.V.V.Z+`+ @  ",
"  J 4+.@$+%+E.:./.~.!.'.;.=.&.%.#.+... .` Z Z Z Z Z Z ` `  ...+.#.%.9.=.>.'.!.{.^._.$+$++@@@I   ",
"  J #@*+$@%@&@#+(+A.*@=@-@$@;@>@,@U.'@'@t.)@)@)@)@)@)@!@t.'@'@U.,@>@;@$@-@=@*@~@(+#+{@]@^@/@I   ",
"  V (@_@:@<@s [@}@|@1@o 2@3@m :@4@5@k 6@7@8@i h 9@0@a@b@c@f e d@d e@f@g@c h@b i@j@k@l@m@X+n@I   ",
"  V Y+o@9@j 8@p@9@0@q@r@s@e d f@t@c b a u@v@0 w@j@8 7 x@y@z@A@B@C@D@D@E@F@l@G@H@I@J@A+K@X+n@ @  ",
"  J L@M@k N@m 4@l k 6@O@8@i h P@0@b@f s@Q@d f@g@h@R@S@u@T@U@j@V@W@X@y@Y@A@B@Z@C@l@I@J@`@ #.#.   ",
"  +#@#@#####$#%#%#V+V+@#@#@#U U U U k@&#4+4+4+4+*#b.b.b.6 }+}+}+}+}+E@=#=#E@}+6 E@-#y.(@;#>#+#  ",
"  3 3 3 J J J V V V ,#k.k.k.k.k.k.k.k.k.k.k.k.k.k.k.k.k.k.k.k.k.k.k.k.k.k.,#V V V '#J J J 3 3   ",
"                                                                                                ",
"                                                                                                ",
"                                                                                                ",
"                                                                                                ",
"                                                                                                ",
"                                                                                                ",
"                                                                                                "};
