/* XPM */
static char * cal_xpm[] = {
"56 56 7 1",
" 	c None",
".	c #CCCCCC",
"+	c #999999",
"@	c #333333",
"#	c #FFFFFF",
"$	c #666666",
"%	c #7A7A7A",
"                                                        ",
"                                                        ",
"                ..+                    ..+              ",
"          @@@@@@.@+@@@@@@@@@@@@@@@@@@@@.@+@@@@@         ",
"          @......++.....................++....@         ",
"          @......@+.....................@+....@         ",
"          @#.#.$.@+@..................$.@+@..+@         ",
"          @#.#.$.@+@..................$.@+@..+@         ",
"          @#.#.$.++@..................$.++@..+@         ",
"          @###..$@@....................$@@...+@         ",
"          @#.#...............................+@         ",
"          @###...............................+@         ",
"          @#.#...............................+@         ",
"          @###...............................+@         ",
"          @#.#...............................+@         ",
"          @###...............................+@         ",
"          @#.#...............................+@         ",
"          @###...............................+@         ",
"          @#.#...............................+@         ",
"          @###...............................+@         ",
"          @#.#...............................+@         ",
"          @###...............................+@         ",
"          @#.#...............................+@         ",
"          @###...............................+@         ",
"          @#.#...............................+@         ",
"          @###...............................+@         ",
"          @#.#...............................+@         ",
"          @###...............................+@         ",
"          @#.#...............................+@         ",
"          @###...............................+@         ",
"          @#.#...............................+@         ",
"          @###...............................+@         ",
"          @#.#...............................+@         ",
"          @###...............................+@         ",
"          @#.#...............................+@         ",
"          @###...............................+@         ",
"          @#.#...............................+@         ",
"          @###...............................+@         ",
"          @#.#...............................+@         ",
"          @###...............................+@         ",
"          @#.#...............................+@         ",
"          @###...............................+@         ",
"          @#.#......................#########+@         ",
"          @###......................#.......%+@         ",
"          @#.#......................#......%++@         ",
"          @###......................#.....%+++@         ",
"          @#.#......................#....%++++@         ",
"          @###......................#...%+++++@         ",
"          @#.#......................#..%++++++@         ",
"          @###......................#.%+++++++@         ",
"          @#.########################%++++++++@         ",
"          @##.++++++++++++++++++++++++++++++++@         ",
"          @@@@@@@@@@@@@@@@@@@@@@@@@@@@@@@@@@@@@         ",
"                                                        ",
"                                                        ",
"                                                        "};
