/* XPM */
static char * clock_xpm[] = {
"48 48 5 1",
" 	c None",
".	c #787878",
"+	c #000000",
"@	c #999999",
"#	c #CCCCCC",
"                                                ",
"  .+++++++++++++++++++++++++++++++++++++++++.   ",
" .+@@@@@@@@@@@@@@@@@@@@@@@@@@@@@@@@@@@@@@@@@+.  ",
" +@#########################################@+@#",
" +@#########################################@+@@",
" +@#########################################@+@@",
" +@###.+++++++++++++++++++++++++++++++++.###@+@@",
" +@###+#@#@#@#@#@#@#@##+@#@#@#@#@#@#@#@#+###@+@@",
" +@###+@#@#@#@#@#@#@#@#+@@#@#@#@#@#@#@#@+###@+@@",
" +@###+#@#@#@#@#@#@#@##+@#@#@#@#@#@#@#@#+###@+@@",
" +@###+@#@#@#@#@+@#@#@#@#@#@#@+@#@#@#@#@+###@+@@",
" +@###+#@#@#@#@#@#@#@#@#@#@#@#@#@#@#@#@#+###@+@@",
" +@###+@#@#@#@#@#@#@#@#@#@#@#@#@#@#@#@#@+###@+@@",
" +@###+#@#@#@#@#@#@#@#@#@#@#@#@#@#@#@#@#+###@+@@",
" +@###+@#@#@#@#@#@#@#@#@#@#@#@#@#@#@#@#@+###@+@@",
" +@###+#@#@#@#@#@#@#@#@#@#@#@#@#@#@#@#@#+###@+@@",
" +@###+@#@+@#@#@#@#@#@#@#@#@#@#@#@#@+@#@+###@+@@",
" +@###+#@#@#@#@#@#@#@#@#@#@#@#@#@#@#@#@#+###@+@@",
" +@###+@#@#@#@#@#@#@#@#@#@#@#@#@#@#@#@#@+###@+@@",
" +@###+#@#@#@#@#@#@#@#@#@#@#@#@#@#@#@#@#+###@+@@",
" +@###+@#@#@#@#@#@#@#@#@#@#@#@#@#@#@#@#@+###@+@@",
" +@###+#@#@#@#@#@#@#@#@#@#@#@#@#@#@#@#@#+###@+@@",
" +@###+####@#@#@#@#@#@#@#@#@#@#@#@#@#@#@+###@+@@",
" +@###++++@#@#@#@#@#@#@#@#@#@#@#@#@#@++++###@+@@",
" +@###+@@@@@#@#@#@#@#@#@#@#@#@#@#@#@#@@@+###@+@@",
" +@###+#@#@#@#@#@#@#@#@#@#@#@#@#@#@#@#@#+###@+@@",
" +@###+@#@#@#@#@#@#@#@#@#@#@#@#@#@#@#@#@+###@+@@",
" +@###+#@#@#@#@#@#@#@#@#@#@#@#@#@#@#@#@#+###@+@@",
" +@###+@#@#@#@#@#@#@#@#@#@#@#@#@#@#@#@#@+###@+@@",
" +@###+#@#@#@#@#@#@#@#@#@#@#@#@#@#@#@#@#+###@+@@",
" +@###+@#@+@#@#@#@#@#@#@#@#@#@#@#@#@+@#@+###@+@@",
" +@###+#@#@#@#@#@#@#@#@#@#@#@#@#@#@#@#@#+###@+@@",
" +@###+@#@#@#@#@#@#@#@#@#@#@#@#@#@#@#@#@+###@+@@",
" +@###+#@#@#@#@#@#@#@#@#@#@#@#@#@#@#@#@#+###@+@@",
" +@###+@#@#@#@#@#@#@#@#@#@#@#@#@#@#@#@#@+###@+@@",
" +@###+#@#@#@#@#@#@#@#@#@#@#@#@#@#@#@#@#+###@+@@",
" +@###+@#@#@#@#@+@#@#@#@#@#@#@+@#@#@#@#@+###@+@@",
" +@###+#@#@#@#@#@#@#@##+@#@#@#@#@#@#@#@#+###@+@@",
" +@###+@#@#@#@#@#@#@#@#+@@#@#@#@#@#@#@#@+###@+@@",
" +@###+#@#@#@#@#@#@#@##+@#@#@#@#@#@#@#@#+###@+@@",
" +@###.+++++++++++++++++++++++++++++++++.###@+@@",
" +@#########################################@+@@",
" +@#########################################@+@@",
" +@#########################################@+@@",
" .+@@@@@@@@@@@@@@@@@@@@@@@@@@@@@@@@@@@@@@@@@+.@@",
"  .+++++++++++++++++++++++++++++++++++++++++.@@@",
"   @@@@@@@@@@@@@@@@@@@@@@@@@@@@@@@@@@@@@@@@@@@@@",
"    #@@@@@@@@@@@@@@@@@@@@@@@@@@@@@@@@@@@@@@@@@@ "};
