/* XPM */
static char * dtterm_xpm[] = {
"56 56 48 1",
" 	c None",
".	c #000000",
"+	c #FFE4C4",
"@	c #EED5B7",
"#	c #FFEFDB",
"$	c #CDB79E",
"%	c #FFFFFF",
"&	c #8B7D6B",
"*	c #7A7A7A",
"=	c #A3A3A3",
"-	c #CCCCCC",
";	c #969696",
">	c #727272",
",	c #656565",
"'	c #060606",
")	c #0F0F0F",
"!	c #9A9A9A",
"~	c #404040",
"{	c #C6C6C6",
"]	c #979797",
"^	c #2C2C2C",
"/	c #262626",
"(	c #B9B9B9",
"_	c #999999",
":	c #C9C9C9",
"<	c #666666",
"[	c #B1B1B1",
"}	c #3D3D3D",
"|	c #2E2E2E",
"1	c #C3C3C3",
"2	c #424242",
"3	c #8E8E8E",
"4	c #CBCBCB",
"5	c #A9A9A9",
"6	c #0E0E0E",
"7	c #171717",
"8	c #A6A6A6",
"9	c #A0A0A0",
"0	c #BCBCBC",
"a	c #545454",
"b	c #565656",
"c	c #797979",
"d	c #121212",
"e	c #535353",
"f	c #9F9F9F",
"g	c #2A2A2A",
"h	c #929292",
"i	c #696969",
"                                                        ",
"                                                        ",
"                                                        ",
"                                                        ",
"                                                        ",
"                                                        ",
"                                                        ",
"                                                        ",
"    ................................................    ",
"    .++++++@@@@@@@@@@@@@@@@@@@@@@@@@@@@@@@@@@@@###$.    ",
"    .+%%%++@@@@@@@@@@@@@@@@@@@@@@@@@@@@@@@@$&@@$&&$.    ",
"    .++&&&+@@@@@@@@@@@@@@@@@@@@@@@@@@@@@@@@&&@@&&&$.*   ",
"    .++@@@+@@@@@@@@@@@@@@@@@@@@@@@@@@@@@@@@@@@@$$$$.*   ",
"    .&............................................&.*   ",
"    .@.==========================================.@.*   ",
"    .@.=-----------------------------------------.@.*   ",
"    .@.=--;--------------------------------------.@.*   ",
"    .@.=->.,---'.--------------------------------.@.*   ",
"    .@.=-).!----.---.----.-----------------------.@.*   ",
"    .@.=-~.{-]^/.-(..'-(..'-_..-:..<.[.}||<------.@.*   ",
"    .@.=-1.2-|34.---.----.--.-.---.-_-.5.-.------.@.*   ",
"    .@.=-5.6-789.---.:---.:-.<--0-.---.-.-.------.@.*   ",
"    .@.=-a.b-cde.f--gg---gg-_.._:...h-.[.-._-----.@.*   ",
"    .@.=--i--------------------------------------.@.*   ",
"    .@.=-----------------------------------------.@.*   ",
"    .@.=-----------------------------------------.@.*   ",
"    .@.=-----------------------------------------.@.*   ",
"    .@.=-----------------------------------------.@.*   ",
"    .@.=-----------------------------------------.@.*   ",
"    .@.=-----------------------------------------.@.*   ",
"    .@.=-----------------------------------------.@.*   ",
"    .@.=-----------------------------------------.@.*   ",
"    .@.=-----------------------------------------.@.*   ",
"    .@.=-----------------------------------------.@.*   ",
"    .@.=-----------------------------------------.@.*   ",
"    .@.=-----------------------------------------.@.*   ",
"    .@.=-----------------------------------------.@.*   ",
"    .@.=-----------------------------------------.@.*   ",
"    .@.=-----------------------------------------.@.*   ",
"    .@.=-----------------------------------------.@.*   ",
"    .@.=-----------------------------------------.@.*   ",
"    .@.=-----------------------------------------.@.*   ",
"    .@.=-----------------------------------------.@.*   ",
"    .@.=-----------------------------------------.@.*   ",
"    .@.=-----------------------------------------.@.*   ",
"    .@.=-----------------------------------------.@.*   ",
"    .@............................................+.*   ",
"    .&@@@@@@@@@@@@@@@@@@@@@@@@@@@@@@@@@@@@@@@@@@@@&.*   ",
"    _..............................................*    ",
"      *********************************************     ",
"                                                        ",
"                                                        ",
"                                                        ",
"                                                        ",
"                                                        ",
"                                                        "};
