/* XPM */
static char * Mail2_xpm[] = {
"56 46 22 1",
" 	c None",
".	c #9E9A9E",
"+	c #6986BE",
"@	c #AEAAAE",
"#	c #010101",
"$	c #BEBABE",
"%	c #717986",
"&	c #C7BAC7",
"*	c #FFFFFF",
"=	c #867986",
"-	c #AEB2CF",
";	c #7992B6",
">	c #000014",
",	c #BEC3CF",
"'	c #386DA6",
")	c #AEAEB6",
"!	c #A69EA6",
"~	c #9696AE",
"{	c #F7B2AE",
"]	c #DFBA8E",
"^	c #79869E",
"/	c #B6AEB6",
"                                                        ",
"                                                        ",
"                                                        ",
"                                        .+...           ",
"                                      ++@+#+.+#+        ",
"                                     ++$++++$.++#       ",
"                                    %+&+.$$$$#.++#      ",
"                                   ++++.$*$$$.+#.++     ",
"                                  ++=-&**$$$$$+.#+#     ",
"                                  +-+*****$$$++++#+#    ",
"                                  ++*$***$$$.+++++##    ",
"                                 +$+$*$*$*$.&.;++#+#    ",
"                                 %&%+.$$$$$$.$%%>+##    ",
"                    *#           .,&++@@@$$.$.-+.#+#    ",
"                  $***#          +@$++++.$.$..'@%+##    ",
"                 @*****#         .))++++%+$!~%@+>+##    ",
"                $*******#  @      .@.+++++..+!+>+##+    ",
"               @***$****$#$*#     +.@!++++.+!+++###     ",
"              $***$*$**$$$**$     .+..+++!+.+#+###+     ",
"             @***$*$*$$$*****#     ++!++!.++#+####      ",
"            $***$*$$$$****$**$+     +#+++%+#+####       ",
"           @***$*$$$****$$****#      ++#+>++###+        ",
"          @***$*$$****$$**$$**$+       +#+###+          ",
"        @@*****$****$$**$$*****#                        ",
"      $$$$$$$$$$$$$$$$$$$$$$$$$$@                       ",
"     ****************************@                      ",
"     **$*$*$*********************+@                     ",
"     **$$*$*****************@{@**#+                     ",
"     **$*$*$****************@]@**#+                     ",
"     ***********************^{{**#+                     ",
"     ***********************/{;**#+                     ",
"     ****************************#+                     ",
"     ***********%+.$+$$**********#+                     ",
"     ****************************#+                     ",
"     ***********+.$+$$%,%)$******#+                     ",
"     ****************************#+                     ",
"     ***********+.$+.$+.$$*******#+                     ",
"     ****************************#+                     ",
"     ****************************#+                     ",
"     ****************************#+                     ",
"     ++###########################+                     ",
"      +++++++++++++++++++++++++++++                     ",
"                                                        ",
"                                                        ",
"                                                        ",
"                                                        "};
