/* XPM */
static char * image_name[] = {
"56 46 22 1",
" 	c #FFFFFAFAFFFF",
".	c #BEBEB6B6BEBE",
"X	c #000000001111",
"o	c #C7C7BABAC7C7",
"O	c #AEAEA6A6AEAE",
"+	c #F7F7B2B2AEAE",
"@	c #969696969696",
"#	c #070705050808",
"$	c #DFDFBABA8E8E",
"%	c #8E8E8A8A8E8E",
"&	c #69698686BEBE",
"*	c #A6A69E9EA6A6",
"=	c #BEBEC3C3BEBE",
"-	c #AEAEA6A67171",
";	c #B6B6AEAEB6B6",
":	c #CFCFC7C7CFCF",
">	c #717179798686",
",	c #96969696AEAE",
"<	c #717175757171",
"1	c #AEAEAEAEB6B6",
"2	c #EFEFF3F3F7F7",
"3	c #BEBEC3C3CFCF",
"                                                       .",
" ......................................................X",
" .o.o.o.o.o.o.o.o.o.o.o.o.o.o.o.o.o.o.o.o.o.o.o.o.o.o..X",
" ....................................................o.X",
" O.o.Oo.oO..oO..oO..oO..oO..oO..oO..oO..oO..oO..oO...O.X",
" .........o.......o.......o.......o.......o.........o..X",
" OoO.                .oO.O.O.OoO.                 .O.O.X",
" .... .+.+.+.+.+.+.+@XO.o...o.O.. .O.O.O.O.O.O.O.@X..oOX",
" O.O. +.+o+XXXXXXo+.@X@O.O.O.O.O. O.O.@###@.O.O.$%X@.O.X",
" .o.O o+.++X+o+.X+.+@X&.O..oO.o.* =-;$# ;X#-.O$O.@X&O..X",
" O.O. +.+o+XXXXXX.+o@X&O.OoO.O.O. O:O;X*>XX:O.O.O@X&.OoX",
" .Oo. o+.++X++++X+.+@X&oO.O...O.O .O.$XXXX#O$O:-.@X&..OX",
" O.O. +.+++X++&XX.+.@X&O.O.O.OoO. -o-:%XXX,oO.Oo$@X&.O.X",
" .O.O .++&XX:+XX&+o+@X&oO.OoO.O.* .O.O.O.O@@OO.O;@X&OoOX",
" O.O. +.+XX&+.+.+.+.@X&O.O.O.O.O. O.$;O:OO<*>@<:O@X&.O.X",
" OOoO @@O@*@*@O@O@@@@X&oOOO.OOO.O @*@@O@@,@,@,*@*@X&OOOX",
" O.O..XXXXXXXXXXXXXXXX&O.OoO.OoO..#XXX###XXXXXX#XXX&.O.X",
" OOOOOOO&&&&&&&&&&&&&&&OOOOOOOOOOO;O&&&&&&&&&&&&&&&&OOOX",
" O.O.O.O.O.O.O.O.O.1.O.O.O.O.O.O.O.O.O.O.O.O.O.O.O.O.O.X",
" OOOOOOOOOOOOOO1OOOOOOOOOOOOOOOOOOOOOOOOOOOOOOOOOOOOOOOX",
" OOOoO OOO O.OOO.OOO.OOO.OOO OOO OOO.OOO.OOO.OOO.OOO.OOX",
" OOOOO  O  & &O & &O   &O &O  O  &    &   &O &O  &OOOOOX",
" OOOOO . . & &O & &OO &OO &O . . & &OOO >1 & & &O &OOOOX",
" OOOOO & & & &O & &OO &OO &O & & &   &O &1 & &    &OOOOX",
" @OOOO &O& &2&@ &2&1O &OO &O >1& & &OO@ &O > & &O &1O@OX",
" OOOOO &O12&1  &O   & &OO &O &1O2&    &   &1 & &O &OOOOX",
" OO@O@O@OOO@O@1@1OO@O@O@OOO@O@O@O1O@O@O@OOO@O@O@OOO@O@OX",
" OOOOOOOOOOOOOOOOOOOOO1OOOOO1OOOOOOOOO1OOO1OO1OO1OOOOOOX",
" @O@O@O@O@O@O@O@O@O@O@O@O@O@O@O@O@O@O@O@O@O@O@O@O@O@O@OX",
" OOOO                .OOOOOOOOOOOO                .OOOOX",
" @O@O .....O..O.O.O.@XO@O@O@O@O@O@ .+.+.+&+.+.+.+.X@O@OX",
" O@OO .@XX@.#O;$=-.O@X@OOO@OOO@OOO +.+.++X++.+.+.@X@OO@X",
" @O@O O#..X.#..;..;.@X&@O@O@O@O@O@ .+o+&+X+o+&+o+@X&O@OX",
" O@O@ .X..X.X#X*.*##@X&O@O@O@O@O@O ++++X+X+&+X+++@X&@O@X",
" @O@O O#XXX.Xo.X.X..@X&@O@O@O@O@O@ .&XXX+X+X+X+X&*X&O@OX",
" @@O@ .X..X.X..X.X..@X&O@@@O@@@O@@ +++X+X+X+X+X+.@X&@@@X",
" @O@O O#..X.XXX@.@XX@X&@O@O@O@O@O@ .++&+X+X+&+&++*X&O@OX",
" @@@@ ;$.O.O...O.O..@X&@@@@@@@@@@@ +.+3+&+X+3+:+.@X&@@@X",
" @O@1 @@@@@@@@@@@@@@@X&@O@O@O@O@O@ O@O@O@,X1@O@O@@X&O@OX",
" @@@@.XX#X##X#X####XXX&@@@@@@@@@@@.XXXXXXXXXXXXXXXX&@@@X",
" @@@O@@@&&&&&&&&&&&&&&&@O@@@O@@@O@@@O&&&&&&&&&&&&&&&1@@X",
" @@@@@@@@@@@@@@@@@@@@@@@@@@@@@@@@@@@@@@@@@@@@@@@@@@@@@@X",
" @O@@@@@@@O@@@@@@@O@@@@@@@O@@@@@@@O@@@@@@@1@@@@@@@O@@@@X",
" @@@@@@@@@@@@@@@@@@@@@@@@@@@@@@@@@@@@@@@@@@@@@@@@@@@@@@X",
" @@@@@@@@@@@@@@@@@@@@@@@@@@@@@@@@@@@@@@@@@@@@@@@@@@@@@@X",
".XXXXXXXXXXXXXXXXXXXXXXXXXXXXXXXXXXXXXXXXXXXXXXXXXXXXXXX"};
