/* XPM */
static char * image_name[] = {
"56 46 29 1",
" 	c #FFFFFFFFFFFF",
".	c #D7D7D3D3D7D7",
"X	c #010101010101",
"o	c #E7E7E7E7EFEF",
"O	c #515155554949",
"+	c #9A9A98989A9A",
"@	c #ADADACACADAD",
"#	c #616161616161",
"$	c #AEAEAEAEB6B6",
"%	c #A6A69E9EA6A6",
"&	c #BEBEB6B6BEBE",
"*	c #CFCFC7C7CFCF",
"=	c #717175757171",
"-	c #303034343030",
";	c #28282C2C3030",
":	c #202020202020",
">	c #696969697171",
",	c #B6B6AEAEB6B6",
"<	c #181820202020",
"1	c #8E8E8A8A8E8E",
"2	c #797986869E9E",
"3	c #EFEFF3F3F7F7",
"4	c #D7D7DFDFE7E7",
"5	c #BEBEC3C3BEBE",
"6	c #C7C7BABAC7C7",
"7	c #8E8E86867979",
"8	c #AEAE9E9E5959",
"9	c #5151A2A24949",
"0	c #000000001818",
"                                                      .X",
"  ...................................................oOX",
"  +@@@+@@@+@@@+@@@+@@@+@@@+@@@+@@@+@@@+@@@+@@@+@@@+@@@#X",
"  @@@@@@@@@@@@@@@@@@@@@@@@@@@@@@@@@@@@@@@@@@@@@@@@@@$$#X",
"  %@@@@@@&$&&*&&$*&&*&&*&&*&&*&&$*&&*&&*&&*&&&$@@@@@@&=X",
"  %@@@@@&+O----O-----;--;---;--O-----;--;---;O+&@@@@@$#X",
"  @@@@@$OXXXXXXXXXXXXXXXXXXXXXXXXXXXXXXXXXXXXXXO&@@@@&=X",
"  %@@@&=X:---OO-------------------------------:X>&@@@$=X",
"  %@@@,OX:=:#<X@12++++@+@@++,@@@@++121211211+=XXO&@@@&OX",
"  @@@@&OXXO@=&X   &> 1X.OXX XXXXX=           .XXO*@@@,=X",
"  %@@@*OX:+>+=X    . o...  *..34.*           4XXO&@@@&=X",
"  @@@@&OXX-,-.X   @O =->X@@O>#:X<-+,@*+o +.  .XXO,@@@@OX",
"  %@@@,OXX@ o X    o o    3    o   4.4.  *o  .XXO&@@@&=X",
"  %@@$5OX:o&@*X   $# =@#Xo:X X- &X1          oXXO*@@@,=X",
"  @@@@,OXX4&@.X   .$ $o&2 +1 12@ o+>=.       *XXO,@@@&OX",
"  %@@@,OXXo*@*X   3* .3*@ 6@ ,@*  ,@+o       .XXO&@@@&OX",
"  +@@@*OXX3<@,X   @= =@ OXX XXOoX:@          4XXO&@@@,#X",
"  @@@@,OXX4*o.X   o* .+o*@  @&@@.            .XXO&,@@$=X",
"  %@@@&OXX.&@*X   .$ .2o@1  +++2@            .XXO&@@@&=X",
"  %@@@,OX<3*@*X   @= 1X& -XXX -              oXXO@@@@&OX",
"  @@@@*OXX@+1+X    3 o 4oo o .               .XXO,@@@@=X",
"  %@@@,OXX+,$.X   @O =>&.XOX.@oOO+           .XXO,&@@&OX",
"  %@@@,OX:3@=oX   oo o   o..   @*.           4XXO&@@@,=X",
"  %@@@,OXXoOX=X   $# >@OXoX                  .XXO,@@@&=X",
"  @@@@*OXX=OO#X   .@ @.    =>   .>.          .XXO,@@@,OX",
"  @@@@,OXX@..4X   o. .o    ,@   o@o          .XXO,@@@&OX",
"  %@@@&OXX3<X=X   ,# >X*OXX  oX-             .XXO.@@@,#X",
"  %@@@,OXX @1.X   3$ .3*+@@21                .XXO@@@@$=X",
"  @@@@*OX:O-;OX    . 4 .,@,&@                oXXO&@@@&#X",
"  %@@@,OXXXXXXXXXXXXXXXXXXXXXXXXXXXXXXXXXXXXXXXXO,@@@$=X",
"  %@@@,OX:X-X-X-X:X:XX:X-XOXOX-X:X::X:X:X-X-X:XXO,@@@&=X",
"  @@@@&2#==##=====-XXXXXXXXXXXXXXXXXX-======##==1&@@@@OX",
"  @@@@@@,$$&$,$,$&@=::OX-XOXOXOX-XOXO&,@,,&$&$&@@@@@@&=X",
"  %@@@@@@@@@@@@@@@@*1XX-XOXOXOX-X-X=*@@@@@@@@@@@@@@@@,=X",
"  %@@@@@@@@@@@@@@@,+<XXXXXXXXXXXXXX:+&@@@@@@@@@@@@@@@&OX",
"  %@@@@@@@@@@@@@@$1:XXOX-XOXOX-X:XOX-@,@@@@@@@@@@@,@@,OX",
"  @@@@@@&@@@@+@++1OOOOOOOOOOOOOOOOOOO-1++@+@@@@@@@@@@&=X",
"  %@,@@@,OXX:XOXXXXXXXXXXXXXXXXXXXXXXXXXXOX:XXO&@@@@@$#X",
"  @@@@@@,O:--XOXXXXXXXXXXXXXXXXXXXXXXXXXXOX--:O,@@@@@&=X",
"  @@@@@@&=O#OO,OOOOOOOOOOOOOOOOOOOOOOOOOO.OOOO=,@&@@@&OX",
"  %@@@@@@,&$&,&@&,,@&@,&,&,&,&,&,&,&@,&&$@,&,&&@@@@@@,=X",
"  @@@@,@@@@@@@@@@@@@@@@@@@@@@@@@@@@@&@@@@@@@@@@@@@@@@&=X",
"  %@@@@@@@@@@@@@@@@@@@@@@@@@@@@@@@@@@@@@@@@@@@@@@@@@@@OX",
"  @@,&,,&,,&,&,&,@&,&,&,&,&,&,&,&,&,,&,&,&&,&,,,,,&,,.=X",
"  =127212127212721282911212721272127212721272121212721>X",
"o-XXXXXXXXXXXXXXXXXXX0XXXXXXXXXXXXXXXXXXXXXXXXXXXXXXXXXX"};
