/* XPM */
static char * image_name[] = {
"56 46 15 1",
" 	c #FFFFFFFFFFFF",
".	c #BEBEBABABEBE",
"X	c #010101010101",
"o	c #AEAEAAAAAEAE",
"O	c #C7C7BABAC7C7",
"+	c #69698686BEBE",
"@	c #9E9E9A9A9E9E",
"#	c #717179798686",
"$	c #000000001414",
"%	c #AEAEAEAEB6B6",
"&	c #AEAEB2B2CFCF",
"*	c #38386D6DA6A6",
"=	c #5959A2A2D7D7",
"-	c #51515555FFFF",
";	c #79799292B6B6",
"                                                       .",
" ......................................................X",
" ......................................................X",
" ......................................................X",
" o...o.O.o...o...oO..o...o.O.o...o...oO..o...o.O.o...o.X",
" .....                                           .O....X",
" o.o.o +@++ @+@+@+@+@+@+@+@+@+++++++++++ +++X +++X.o.o.X",
" ..... @+@+ @@+@+@+@+@+@+@+@+@+@+@+@++++ +++X +++X....oX",
" o.o.o +@++ @+@+@+@+@+@+@+@+@+@+@+#++++X +++X +++X.o.o.X",
" ...o..XXXXXXXXXXXXXXXXXXXXXXXXXXX$XXXXXXXXXXXXXXX..o..X",
" o.o.o X..................................... @@@X.o.o.X",
" .o... X..................................... @+@Xo...oX",
" o.o.o X..................................... +@+X.o.o.X",
" .o.o. X....X................................ @+@Xo.o.oX",
" o.o.o X...XX..X@....   ..........O.......... +@+X.o.o.X",
" oo.oo X..@+X..@X@...   ..................... @++Xo.oooX",
" o.o.o X....X..@X@...   ......O......O....... +@+X.o.o.X",
" ooooo X....X..X@....   O.................O.. @++XoooooX",
" o.o.o X....@......O.   ...O................. +@+X.o.o.X",
" ooooo X..........................O...O...... @++XoooooX",
" ooo.o X...O................................. +@+Xoo.ooX",
" ooooo X......O.................O............ @++XoooooX",
" ooooo X..........O........O........O........ #%#$oooooX",
" ooooo X..................................O.. &*+XoooooX",
" @ooo@ X..............O...................... #=#$ooo@oX",
" ooooo X.....O...O..............O......O..... o-+XoooooX",
" oo@o@ X..O........................O......... #;+Xo@o@oX",
" ooooo X............O.....O...O...........O.. %++XoooooX",
" @o@o@ X..................................... +++$o@o@oX",
" ooooo X.......O.....................O....... @++XoooooX",
" @o@o@ X..............O...................... +++Xo@o@oX",
" o@ooo X...O......O.......O...O...O.......... +++X@ooo@X",
" @o@o@ X...................................O. +++Xo@o@oX",
" o@o@o X..................................... +++X@o@o@X",
" @o@o@ X......................O......O....... +++Xo@o@oX",
" @@o@@ X....O..O..........O.......O.......... #++X@o@@@X",
" @o@o@ X..........O...O................O..... +++Xo@o@oX",
" @@@@@ X..................................... +++X@@@@@X",
" @o@o@ X.....O................O.............. +++Xo@o@oX",
" @@@@@ X                                      +++X@@@@@X",
" @@@o@ XXXXXXXXXXXXXXXXXXXXXXXXXXXXXXXXXXXXXXXXXXX@@o@@X",
" @@@@@@@@@@@@@@@@@@@@@@@@@@@@@@@@@@@@@@@@@@@@@@@@@@@@@@X",
" @@@@@@@@@@@@@@@@@@@@@@@@@@@@@@@@@@@@@@@@@@@@@@@@@@@@@@X",
" @@@@@@@@@@@@@@@@@@@@@@@@@@@@@@@@@@@@@@@@@@@@@@@@@@@@@@X",
" @@@@@@@@@@@@@@@@@@@@@@@@@@@@@@@@@@@@@@@@@@@@@@@@@@@@@@X",
".XXXXXXXXXXXXXXXXXXXXXXXXXXXXXXXXXXXXXXXXXXXXXXXXXXXXXXX"};
