/* XPM */
static char * controlpanel_xpm[] = {
"56 56 14 1",
" 	c None",
".	c #999999",
"+	c #CCCCCC",
"@	c #666666",
"#	c #333333",
"$	c #B4C3C3",
"%	c #FFFFFF",
"&	c #000000",
"*	c #FF6A6A",
"=	c #52B553",
"-	c #3A5FCD",
";	c #CDCD00",
">	c #E066FF",
",	c #8B7D6B",
"                                                        ",
"                                                        ",
"  ....................................................  ",
"  .+++++++++++++++++++++++++++++++++++++++++++++++++@#  ",
"  .+$$$$$$$$$$$$$$$$$$$$$$$$$$$$$$$$$$$$$$$$$$$$$$$$@#  ",
"  .+$$$$$$$$$$$$$$$$$$$$$$$$$$$$$%+.$$$$$$$$$$$$$$$$@#  ",
"  .+$$$$###$$$$$###$$$$$###$$$$$$%.@$$$$$$$$$$$$$$$$@#  ",
"  .+$$$$#@#$@$$$#@#$@$$$#@#$@$$$$+.@$$$$$$$$$$$$$$$$@#  ",
"  .+$$$#####$$$$#@#$$$$$#@#$$$$$$$..@$$$$$$$$$$$$$$$@#  ",
"  .+$$@##@##@$$$#@#$$$$$#@#$$$$$$#..@#$$######$###$$@#  ",
"  .+$$$#####$$$$#@#$$$$$#@#$$$$$$#..@#$$......$...$$@#  ",
"  .+$$$$#@#$@$$$#@#$@$$$#@#$@$$$$#@@@#$$$$$$$$$$$$$$@#  ",
"  .+$$$$#@#$$$$$#@#$$$$$#@#$$$$$$$###$$$$$$$$$$$$$$$@#  ",
"  .+$$$$#@#$$$$$#@#$$$$$#@#$$$$$$$$$$$$$$$$$$$$$$$$$@#  ",
"  .+$$$$#@#$$$$#####$$$$#@#$$$$$$$###$$$$$$$$$$$$$$$@#  ",
"  .+$$$$#@#$@$@##@##@$$$#@#$@$$$$#@@@#$$###$######$$@#  ",
"  .+$$$$#@#$$$$#####$$$$#@#$$$$$$#+..#$$...$......$$@#  ",
"  .+$$$$#@#$$$$$#@#$$$$$#@#$$$$$$#+.@#$$$$$$$$$$$$$$@#  ",
"  .+$$$$#@#$$$$$#@#$$$$$#@#$$$$$$$+.@$$$#####$##$#$$@#  ",
"  .+$$$$#@#$@$$$#@#$@$$$#@#$@$$$$+.@$$$$.....$..$.$$@#  ",
"  .+$$$$#@#$$$$$#@#$$$$$#@#$$$$$$+..$$$$$$$$$$$$$$$$@#  ",
"  .+$$$$#@#$$$$$#@#$$$$$#@#$$$$$$$.$$$$$$$$$$$$$$$$$@#  ",
"  .+$$$$#@#$$$$$#@#$$$$$#@#$$$$$$$$$$$$$$$$$$$$$$$$$@#  ",
"  .+$$$$#@#$@$$$#@#$@$$$#@#$@$$$$%+.$$$$$$$$$$$$$$$$@#  ",
"  .+$$$$#@#$$$$$#@#$$$$#####$$$$$%.@$$$$$$$$$$$$$$$$@#  ",
"  .+$$$$#@#$$$$$#@#$$$@##@##@$$$$+.@$$$$$$$$$$$$$$$$@#  ",
"  .+$$$$#@#$$$$$#@#$$$$#####$$$$$$..@$$$$$$$$$$$$$$$@#  ",
"  .+$$$$#@#$@$$$#@#$@$$$#@#$@$$$$#..@#$##$####$###$$@#  ",
"  .+$$$$###$$$$$###$$$$$###$$$$$$#..@#$++$++++$+++$$@#  ",
"  .+$$$$$$$$$$$$$$$$$$$$$$$$$$$$$#@@@#$#########$#$$@#  ",
"  .+$$$$$$$$$$$$$$$$$$$$$$$$$$$$$$###$$+++++++++$+$$@#  ",
"  .+$$$$$$$$$$$$$$$$$$$$$$$$$$$$$$$$$$$$$$$$$$$$$$$$@#  ",
"  .+$$$$$$$$$$$$$$$$$$$$$$$$$$$$$$$$$$$$$$$$$$$$$$$$@#  ",
"  .+$$$$$$$&$&$$$$$$$$$$$$$$$$$$$$$$$$$$$$$$$$$$$$$$@#  ",
"  .+$$$$$&$$$$$&$$$$$$$$$$$$@@@@@@$$######$$@@@@@@$$@#  ",
"  .+$$$$$$$$$$$$+&$$$$$$$$$$@****@$$#====#$$@----@$$@#  ",
"  .+$$$&$$$$$$$+&&$$$$$$$$$$@****@$$#====#$$@----@$$@#  ",
"  .+$$$$$$$@.++&&$&$$$$$$$$$@****@$$#====#$$@----@$$@#  ",
"  .+$$&$$$@+@@&&&$$$$$$$$$$$@****@$$#====#$$@----@$$@#  ",
"  .+$$$$$@+@&&&&@$$$$$$$$$$$@@@@@@$$######$$@@@@@@$$@#  ",
"  .+$$&$$.@&&&&#@$$&$$$$$$$$$$$$$$$$$$$$$$$$$$$$$$$$@#  ",
"  .+$$$$$.@&&&&#@$$$$$$$$$$$$$$$$$$$$$$$$$$$$$$$$$$$@#  ",
"  .+$$$$$@@&&&&@@$$$$$$$$$$$$$$$$$$$$$$$$$$$$$$$$$$$@#  ",
"  .+$$$$$$@@&&@@$$$$$$$$$$$$######$$@@@@@@$$@@@@@@$$@#  ",
"  .+$$$$$$$@@@@$$$$$$$$$$$$$#;;;;#$$@>>>>@$$@,,,,@$$@#  ",
"  .+$$$$$$$$$$$$$$$$$$$$$$$$#;;;;#$$@>>>>@$$@,,,,@$$@#  ",
"  .+$$$$$$$$$$$$$$$$$$$$$$$$#;;;;#$$@>>>>@$$@,,,,@$$@#  ",
"  .+$$$$######$###$$$$$$$$$$#;;;;#$$@>>>>@$$@,,,,@$$@#  ",
"  .+$$$$++++++$+++$$$$$$$$$$######$$@@@@@@$$@@@@@@$$@#  ",
"  .+$$$$####$###$#$$$$$$$$$$$$$$$$$$$$$$$$$$$$$$$$$$@#  ",
"  .+$$$$++++$+++$+$$$$$$$$$$$$$$$$$$$$$$$$$$$$$$$$$$@#  ",
"  .+$$$$$$$$$$$$$$$$$$$$$$$$$$$$$$$$$$$$$$$$$$$$$$$$@#  ",
"  .+@@@@@@@@@@@@@@@@@@@@@@@@@@@@@@@@@@@@@@@@@@@@@@@@@#  ",
"  .##################################################@  ",
"                                                        ",
"                                                        "};
