/* XPM */
static char * dtterm_root_m_xpm[] = {
"32 32 56 1",
" 	c None",
".	c #000000",
"+	c #666666",
"@	c #CCCCCC",
"#	c #FFFFFF",
"$	c #FFE4C4",
"%	c #B59E88",
"&	c #FFEFDB",
"*	c #EED5B7",
"=	c #999999",
"-	c #8B7D6B",
";	c #333333",
">	c #BABABA",
",	c #E7E7E7",
"'	c #AAAAAA",
")	c #828282",
"!	c #CECECE",
"~	c #5F5F5F",
"{	c #787878",
"]	c #B4B4B4",
"^	c #9B9B9B",
"/	c #919191",
"(	c #ADADAD",
"_	c #B0B0B0",
":	c #545454",
"<	c #343434",
"[	c #525252",
"}	c #393939",
"|	c #4D4D4D",
"1	c #909090",
"2	c #7B7B7B",
"3	c #DADADA",
"4	c #484848",
"5	c #E4E4E4",
"6	c #C2C2C2",
"7	c #5C5C5C",
"8	c #878787",
"9	c #797979",
"0	c #D4D4D4",
"a	c #585858",
"b	c #464646",
"c	c #C7C7C7",
"d	c #515151",
"e	c #3C3C3C",
"f	c #424242",
"g	c #434343",
"h	c #AFAFAF",
"i	c #D6D6D6",
"j	c #B3B3B3",
"k	c #BEBEBE",
"l	c #8B8B8B",
"m	c #DEDEDE",
"n	c #E0E0E0",
"o	c #6A6A6A",
"p	c #CFCFCF",
"q	c #C6C6C6",
"                                ",
"                                ",
"  ....+................+......@@",
" .##$$%$$$$$$$$$$$$$$$$%&$&#*$.=",
" .$--$%$$$$$$$$$$$$$$$$%*-*--$.=",
" .$$$$%$$$$$$$$$$$$$$$$%$$$**$.=",
" .;...+................+.....;.=",
" .>>>>>>>>>>>>>>>>>>>>>>>>>>>>.=",
" .>,,,,,,,,,,,,,,,,,,,,,,,,,,,.=",
" .>,,,,,,,,,,,,,,,,,,,,,,,,,,,.=",
" .>,,,,')!~,,,,,,,,,,,,,,,,,,,.=",
" .>,,,,{]^/,,(,,,,,,,,,,,,,,,,.=",
" .>,,_:<[}|1,2+@,,,,,,,,,,,,,,.=",
" .>,,,3[,45,,,678,,,,,,,,,,,,,.=",
" .>,,,]90a,,,,,,1bc,,,,,,,,,,,.=",
" .>,,defged,,,,^:h,,,,,,,,,,,,.=",
" .>,,,ai9j,,,k7l,,,,,,,,,,,,,,.=",
" .>,,md,|n,,,op,,,,,,,,,,,,,,,.=",
" .>,,,,,,,,,,,,,,,,,,,,,,,,,,,.=",
" .>,,,,,,,,,,,,,,,,,,,,,,,,,,,.=",
" .>,,,,,,,,,,,,,,,,,,,,,,,,,,,.=",
" .>,,,,,,,,,,,,,,,,,,,,,,,,,,,.=",
" .>,,,,,,,,,,,,,,,,,,,,,,,,,,,.=",
" .>,,,,,,,,,,,,,,,,,,,,,,,,,,,.=",
" .>,,,,,,,,,,,,,,,,,,,,,,,,,,,.=",
" .>,,,,,,,,,,,,,,,,,,,,,,,,,,,.=",
" .>,,,,,,,,,,,,,,,,,,,,,,,,,,,.=",
" .>,,,,,,,,,,,,,,,,,,,,,,,,,,,.=",
" @............................=@",
"  q===========================@ ",
"                                ",
"                                "};
