/* XPM */
static char * dtterm_m_xpm[] = {
"32 32 45 1",
" 	c None",
".	c #000000",
"+	c #666666",
"@	c #CCCCCC",
"#	c #FFFFFF",
"$	c #FFE4C4",
"%	c #B59E88",
"&	c #FFEFDB",
"*	c #EED5B7",
"=	c #999999",
"-	c #8B7D6B",
";	c #333333",
">	c #BABABA",
",	c #E7E7E7",
"'	c #5A5A5A",
")	c #A9A9A9",
"!	c #424242",
"~	c #464646",
"{	c #515151",
"]	c #ADADAD",
"^	c #C5C5C5",
"/	c #7B7B7B",
"(	c #AFAFAF",
"_	c #C2C2C2",
":	c #5C5C5C",
"<	c #878787",
"[	c #DFDFDF",
"}	c #B9B9B9",
"|	c #D4D4D4",
"1	c #E5E5E5",
"2	c #909090",
"3	c #C7C7C7",
"4	c #DADADA",
"5	c #4C4C4C",
"6	c #9B9B9B",
"7	c #545454",
"8	c #DEDEDE",
"9	c #BEBEBE",
"0	c #8B8B8B",
"a	c #E1E1E1",
"b	c #6A6A6A",
"c	c #CFCFCF",
"d	c #525252",
"e	c #4F4F4F",
"f	c #C6C6C6",
"                                ",
"                                ",
"  ....+................+......@@",
" .##$$%$$$$$$$$$$$$$$$$%&$&#*$.=",
" .$--$%$$$$$$$$$$$$$$$$%*-*--$.=",
" .$$$$%$$$$$$$$$$$$$$$$%$$$**$.=",
" .;...+................+.....;.=",
" .>>>>>>>>>>>>>>>>>>>>>>>>>>>>.=",
" .>,,,,,,,,,,,,,,,,,,,,,,,,,,,.=",
" .>,,,,,@,,,,,,,,,,,,,,,,,,,,,.=",
" .>,,,,,',,,,,,,,,,,,,,,,,,,,,.=",
" .>,,,)!~{=,,],,,,,,,,,,,,,,,,.=",
" .>,,,~^~@+,,/+@,,,,,,,,,,,,,,.=",
" .>,,,!(~,,,,,_:<[,,,,,,,,,,,,.=",
" .>,,,}~~|,,,,,12~3,,,,,,,,,,,.=",
" .>,,,,4~5,,,,167(,,,,,,,,,,,,.=",
" .>,,,8,~@~,,9:0a,,,,,,,,,,,,,.=",
" .>,,,:,~@~,,bc,,,,,,,,,,,,,,,.=",
" .>,,,/d~~=,,,,,,,,,,,,,,,,,,,.=",
" .>,,,,,e,,,,,,,,,,,,,,,,,,,,,.=",
" .>,,,,,@,,,,,,,,,,,,,,,,,,,,,.=",
" .>,,,,,,,,,,,,,,,,,,,,,,,,,,,.=",
" .>,,,,,,,,,,,,,,,,,,,,,,,,,,,.=",
" .>,,,,,,,,,,,,,,,,,,,,,,,,,,,.=",
" .>,,,,,,,,,,,,,,,,,,,,,,,,,,,.=",
" .>,,,,,,,,,,,,,,,,,,,,,,,,,,,.=",
" .>,,,,,,,,,,,,,,,,,,,,,,,,,,,.=",
" .>,,,,,,,,,,,,,,,,,,,,,,,,,,,.=",
" @............................=@",
"  f===========================@ ",
"                                ",
"                                "};
