/* XPM */
static char * earth_3d_s_xpm[] = {
"32 32 14 1",
" 	c None",
".	c #010101",
"+	c #285D49",
"@	c #188651",
"#	c #202496",
"$	c #28FF20",
"%	c #51A249",
"&	c #5155FF",
"*	c #307159",
"=	c #AEA671",
"-	c #59A2D7",
";	c #8E8679",
">	c #284D96",
",	c #303430",
"            .......             ",
"         .++@.##.#....          ",
"       @.$#########.#...        ",
"      ##$+######@+++..#..       ",
"     ####%$###%#$.+@+#....      ",
"    ###&$@%$%#$%@@#+@.#....     ",
"   ##&&#$#$@$$+$%%$.####.#..    ",
"  ##&#&&#&$$$%%$##+@#.#.#....   ",
"  #&#&&#&&%%$%$@##$*%###.#...   ",
" #&#&&&&&#$$%$%$$$+$####.#....  ",
" ##&&&#&&&$$$$$#*%$+$####.#...  ",
" &&&#&&&&&$$$%$$@$+%####.#....  ",
"#&#&&&&&&&$$%$$%$$@$#####.#.#.. ",
"#&&&&&&&&&=$$$%$%$+$######..... ",
"#&#&&&&&&&-$%$$$%$%#####.##.#.. ",
"#&&&&&&&&&&$$$;$%#$#######....# ",
"#&#&&&&&&&&$$$$#&#&#&####.#.#.. ",
"#&&&&&&&&&&&&$$&#&##&#####..... ",
"&#&&&&&&&&&&&$$&%#&#######.#.#. ",
" #&#&&&&&&&#&&&#$%$####@.#....  ",
" #&&&&&&&&&&&&&#&#$#%+%%*+.#..  ",
" #&#&&#&&>&&#&#&#&##$$@++.+...  ",
"  #&#&&&&&&&&&&&#&##,%+@++...   ",
"  #&&&#&&#&#&##&##&#$+++.+.+.   ",
"   #&#&&#&&&#&&#&###++%.$...    ",
"    #&#&&#&#&##&####@++...+     ",
"     #&##&#&#&##&####.+++.      ",
"      #&#&#>&#######.+.+.       ",
"       ###&###&#####.+..        ",
"        %#########.#..          ",
"            #####.#             ",
"                                "};
