/* XPM */
static char * image_name[] = {
"56 46 26 1",
" 	c #FFFFFAFAFFFF",
".	c #BEBEB6B6BEBE",
"X	c #000000001111",
"o	c #C7C7BABAC7C7",
"O	c #AEAEA6A6AEAE",
"+	c #969696969696",
"@	c #080804040808",
"#	c #DFDFBABA8E8E",
"$	c #B6B6AEAEB6B6",
"%	c #AEAEA6A67171",
"&	c #BEBEC3C3BEBE",
"*	c #A6A69E9EA6A6",
"=	c #717179798686",
"-	c #96969696AEAE",
";	c #F7F7B2B2AEAE",
":	c #69698686BEBE",
">	c #AEAEAEAEB6B6",
",	c #BEBEC3C3CFCF",
"<	c #CFCFC7C7CFCF",
"1	c #79799292B6B6",
"2	c #DFDFAEAE6969",
"3	c #D7D7D3D3D7D7",
"4	c #AEAE61616161",
"5	c #717175757171",
"6	c #AEAEB2B2CFCF",
"7	c #EFEFF3F3F7F7",
"                                                       .",
" ......................................................X",
" .o.o.o.o.o.o.o.o.o.o.o.o.o.o.o.o.o.o.o.o.o.o.o.o.o.o..X",
" .....................................................oX",
" O.o.O                .o.Oo.oO..oO.o.Oo.oO..oO.o.Oo..O.X",
" ..... O.O.O.O.O.O.O.+X.......o...........o.........o..X",
" OoO.O .+@@+O@#$O.%&O*XO.O.O.O.OoO.OoO.O.O.OoO.OoO.O.OoX",
" ..... O@..@.@&O$#.#.+X..o.o.oO...o...Oo..o...O....o..OX",
" O.O.* .@.oXO@X@O$+XX+XO.O.O.O.O.O.O.O.O.O.OoO.$.O.O.O.X",
" ..oO. OXXX@.X..@O@O.+X.Oo..O..oO.o.O.o.O...O...Oo.oO..X",
" O.O.O .@$.XO@o.X.@.O+@O.O.O.O.O.O.OoO.O.OoO.OoO.O.O.OoX",
" .O... O@Oo@.XX@+O*@@+XoO.Oo.oO.O.O...OoO.O.o.O.O.O.o.OX",
" O.O.O .=oO=$+*+O.OO++@O.O.O.O.$.OoO.O.O.O.O.O.O.O.O.O.X",
" .OoO. +-*+-++                ..O.O.O.O.OoO.O.$.OoO.O.OX",
" O.O.O.XXXXXXX .;.;.;:;.;.;.;.XO.O.OoO.O.O.O.O.O.O.OoO.X",
" OO.OOO.O::::= ;.;.;;X.;.;.;.+XoOOO.OOOoOOOoOOOoOOO.OOOX",
" O.O.O.O.O.O.> .;.;:;X;.;:;o;+XO.OoO.O.O.O.O.O.O.O.O.O.X",
" OOOOOOOOOOO$O ;.;.X;X;:;X.;.+XOOOOOOOOOOOOOOOOOOOOOOOOX",
" O.O.O.O.O.O.O .=XXX;X;X;X;X:+XO.O.O.O.O.OoO.OoO.OoO.O.X",
" OOOOOOOOOOOO$ ;,;X;X;X;X;X;.+XOOOOOOOOOOOOOOOOOOOOOOOOX",
" OOOoOOOoOOO.O .;.:;X;X;:;:.;+XO.OOO.OOO.OOO.OOO.OOO.OOX",
" OOOOOOOOOOOOO ;.;<;X;1;.;.;.+XOOOOOOOOOOOOOOOOOOOOOOOOX",
" OOOOOOOOOOOOO ++++O***                 .OOOOOOOOOOOOOOX",
" OOOOOOOOOOOOO.XXXXXXXX .O.O.O.O.O.O.O.+XOOOOOOOOOOOOOOX",
" +OOO+OOO+OOO+OOO:::::: O.%&O@@@+.O.O.O+X+OOO+OOO+OOO+OX",
" OOOOOOOOOOOOOOOOOOOOOO $#.OX $XX%o%.2.+X:OOOOOOOOOOOOOX",
" OO+O+O+OOO+O+O+OOO+O+O O.O<@+=XX3O.OoO+@:O+O+O+OOO+O+OX",
" OOOOOOOOOOOOOOOOOOOOOO <OO#XXXX@O$#o%.+X:OOOOOOOOOOOOOX",
" +O+O+O+O+O+O+O+O+O+O+O O#Oo+XXX-.#>O.#+X:O+O+O+O+O+O+OX",
" OOOOOOOOOOOOOOOOOOOOO+ .#.O.O.O++-4<O$+X:OOOOOOOOOOOOOX",
" +O+O+O+O+O+O+O+O+O+O+O O.O$%<OO5-=6=&O*X:O+O+O+O+O+O+OX",
" O+OOO+OOO+OOO+OOO+OOO+ +++*+++-   7            .O+OOO+X",
" +O+O+O+O+O+O+O+O+O+O+O.@@@X@XXX .;.;.;.;.;.;.;+X+O+O+OX",
" O+O+O+O+O+O+O+O+O+O+O+$+$:::::: ;.;.;XXXXXX.;.+XO+O+O+X",
" +O+O+O+O+O+O+O+O+O+O+O+O+O+O+O+ .;o;.X;.;.X;.;+X:O+O+OX",
" ++O+++O+++O+++O+++O+++O+++O+++O ;.;.;XXXXXXo;.+X:+O+++X",
" +O+O+O+O+O+O+O+O+O+O+O+O+O+O+O+ .;o;.X;;;;X;.;+X:O+O+OX",
" +++++++++++++++++++++++++++++++ ;.;.;X;;:XXo;.+X:+++++X",
" +O+O+O+O+O+O+O+O+O+O+O+O+O+O+O+ .;;:XX.;XX:;.;+X:O+O+OX",
" +++++++++++++++++++++++++++++++ ;o;XX:;.;.;.;.+X:+++++X",
" +++O+++O+++O+++O+++O+++O+++O+++ ++O+*+O+O++++++X:++O++X",
" +++++++++++++++++++++++++++++++.XXXXXXXXXXXXXXXX:+++++X",
" +O+++++++O+++++++O+++++++O+++++++O:::::::::::::::O++++X",
" ++++++++++++++++++++++++++++++++++++++++++++++++++++++X",
" ++++++++++++++++++++++++++++++++++++++++++++++++++++++X",
".XX@XXXXXXXXXXXXXXXXXXXX@X@XX@XXXXXXXXXXXXXXXXXXXXXXXXXX"};
