/* XPM */
static char * calculator_m_xpm[] = {
"32 32 10 1",
" 	c None",
".	c #000000",
"+	c #CCCCCC",
"@	c #999999",
"#	c #FFFACD",
"$	c #FFF68F",
"%	c #8B5A00",
"&	c #FFFFFF",
"*	c #333333",
"=	c #666666",
"                                ",
"                                ",
"       ..................       ",
"      .++++++++++++++++++.      ",
"      .+++++++++++++++++@.      ",
"      .+................@.      ",
"      .+.##############.@.      ",
"      .+.#######.#.#..#.@.      ",
"      .+.#######...#$%#.@.      ",
"      .+.#########.#..#.@.      ",
"      .+.##############.@.      ",
"      .+................@.      ",
"      .+++++++++++++++++@.      ",
"      .+&*@+&=@+&==+&==+@.      ",
"      .+*+*+*+*+*+*+*+*+@.      ",
"      .+=**+=**+=**+=**+@.      ",
"      .+++++++++++++++++@.      ",
"      .+&*=+&*=+&*=+&*=+@.      ",
"      .+*+*+*+*+*+*+*+*+@.      ",
"      .+=**+=**+=**+=**+@.      ",
"      .+++++++++++++++++@.      ",
"      .+&*=+&*=+&*=+&*=+@.      ",
"      .+*+*+*+*+*+*+*&+*@.      ",
"      .+=**+=**+=**+*++*@.      ",
"      .+++++++++++++*+@*@.      ",
"      .+&*=+&*=+&*=+*@@*@.      ",
"      .+*+*+*+*+*+*+*++*@.      ",
"      .+=**+=**+=**+=**+@.      ",
"      .+@@@@@@@@@@@@@@@@@.      ",
"       ..................       ",
"                                ",
"                                "};
