/* XPM */
static char * controlpanel_xpm[] = {
"56 56 28 1",
" 	c None",
".	c #9B9B9B",
"+	c #E9E9E9",
"@	c #646464",
"#	c #373737",
"$	c #C8C8C8",
"%	c #FFFFFF",
"&	c #BCBCBC",
"*	c #C8BCC8",
"=	c #BCC8BC",
"-	c #B1B1B1",
";	c #BCBCB1",
">	c #B1BCB1",
",	c #C8C8BC",
"'	c #BCC8C8",
")	c #BCBCC8",
"!	c #C8BCBC",
"~	c #000000",
"{	c #FF6F6F",
"]	c #B1BCBC",
"^	c #4EB14E",
"/	c #3764C8",
"(	c #BCB1B1",
"_	c #BCB1BC",
":	c #B1B1BC",
"<	c #C8C800",
"[	c #DE64FF",
"}	c #907A6F",
"                                                        ",
"                                                        ",
"  ....................................................  ",
"  .+++++++++++++++++++++++++++++++++++++++++++++++++@#  ",
"  .+$$$$$$$$$$$$$$$$$$$$$$$$$$$$$$$$$$$$$$$$$$$$$$$$@#  ",
"  .+$$$$$$$$$$$$$$$$$$$$$$$$$$$$$%$.$$$$$$$$$$$$$$$$@#  ",
"  .+$$$$###$$$$$###$$$$$###$$$$$$%.@$$$$$$$$$$$$$$$$@#  ",
"  .+$$$$#@#$@$$$#@#$@$$$#@#$@$$$$$.@$$$$$$$$$$$$$$$$@#  ",
"  .+$$$#####$$$$#@#$$$$$#@#$$$$$$$..@$$$$$$$$$$$$$$$@#  ",
"  .+$$@##@##@$$$#@#$$$$$#@#$$$$$$#..@#$$######$###$$@#  ",
"  .+$$$#####$$$$#@#$$$$$#@#$$$$$$#..@#$$......$...$$@#  ",
"  .+$$$$#@#$@$$$#@#$@$$$#@#$@$$$$#@@@#$$$$$$$$$$$$$$@#  ",
"  .+$$$$#@#$$$$$#@#$$$$$#@#$$$$$$$###$$$$$$$$$$$$$$$@#  ",
"  .+$$$$#@#$$$$$#@#$$$$$#@#$$$$$$$$$$$$$$$$$$$$$$$$$@#  ",
"  .+$$$$#@#$$$$#####$$$$#@#$$$$$$$###$$$$$$$$$$$$$$&@#  ",
"  .+$$$$#@#$@$@##@##@$$$#@#$@$$$$#@@@#$$###$######&&@#  ",
"  .+$$$$#@#$$$$#####$$$$#@#$$$$$$#$..#$$...$......&&@#  ",
"  .+$$$$#@#$$$$$#@#$$$$$#@#$$$$$$#$.@#$$$$$$$*&&&&&&@#  ",
"  .+$$$$#@#$$$$$#@#$$$$$#@#$$$$$$$$.@$$$#####&##&#&&@#  ",
"  .+$$$$#@#$@$$$#@#$@$$$#@#$@$$$$$.@$$$$.....&..&.&&@#  ",
"  .+$$$$#@#$$$$$#@#$$$$$#@#$$$$$$$..$$$$*&&&&&&&&&&&@#  ",
"  .+$$$$#@#$$$$$#@#$$$$$#@#$$$$$$$.$$$*&&&&&&&&&&&&&@#  ",
"  .+$$$$#@#$$$$$#@#$$$$$#@#$$$$$$$$$$&&&&&&&&&&&&&&&@#  ",
"  .+$$$$#@#$@$$$#@#$@$$$#@#$@$$$$%$.&&&&&&&&&&&&&&&&@#  ",
"  .+$$$$#@#$$$$$#@#$$$$#####$$$$$%.@&&&&&&&&&&&&&&&&@#  ",
"  .+$$$$#@#$$$$$#@#$$$@##@##@$$=&&.@&&&&&&&&&&&&&&&&@#  ",
"  .+$$$$#@#$$$$$#@#$$$$#####$$=&&&..@&&&&&&&&&&&&&&-@#  ",
"  .+$$$$#@#$@$$$#@#$@$$$#@#$@&&&&#..@#&##&####&###--@#  ",
"  .+$$$$###$$$$$###$$$$$###&&&&&&#..@#&&&&&&&&&;>---@#  ",
"  .+$$$$$$$$$$$$$$$$$$$$,=&&&&&&&#@@@#&#########-#--@#  ",
"  .+$$$$$$$$$$$$$$$$$$')&&&&&&&&&&###&&&&&&&>-------@#  ",
"  .+$$$$$$$$$$$$$$$$$$&&&&&&&&&&&&&&&&&&&&&---------@#  ",
"  .+$$$$$$$$$$$$$$$!&&&&&&&&&&&&&&&&&&&&;>----------@#  ",
"  .+$$$$$$$$$$~$~$&&&&&&&&&&&&&&&&&&&&&;------------@#  ",
"  .+$$$$$$$$~$$*&&~&&&&&&&&&@@@@@@&&######--@@@@@@--@#  ",
"  .+$$$$$$$$$$*&&&&&~&&&&&&&@{{{{@&]#^^^^#--@////@--@#  ",
"  .+$$$$$$~$&&&&&&&~~&&&&&&&@{{{{@--#^^^^#--@////@--@#  ",
"  .+$$$$$$,&&&@.&&~~&~&&&&&&@{{{{@--#^^^^#--@////@--@#  ",
"  .+$$$$,~&&&@$@@~~~&&&&&&&&@{{{{@--#^^^^#--@////@--@#  ",
"  .+$$$'&&&&@$@~~~~@&&&&&&&&@@@@@@--######--@@@@@@--@#  ",
"  .+$$&&&~&&.@~~~~#@&&~&&&;(------------------------@#  ",
"  .+*&&&&&&&.@~~~~#@&&&&&_--------------------------@#  ",
"  .+&&&&&&&&@@~~~~@@&&&(----------------------------@#  ",
"  .+&&&&&&&&&@@~~@@&&:------######--@@@@@@--@@@@@@--@#  ",
"  .+&&&&&&&&&&@@@@&]>-------#<<<<#--@[[[[@--@}}}}@--@#  ",
"  .+&&&&&&&&&&&&&&;---------#<<<<#--@[[[[@--@}}}}@--@#  ",
"  .+&&&&&&&&&&&&]-----------#<<<<#--@[[[[@--@}}}}@--@#  ",
"  .+&&&&&&&######-###-------#<<<<#--@[[[[@--@}}}}@--@#  ",
"  .+&&&&&&&&&---------------######--@@@@@@--@@@@@@--@#  ",
"  .+&&&&&&&####-###-#-------------------------------@#  ",
"  .+&&&&&;------------------------------------------@#  ",
"  .+&&&&:-------------------------------------------@#  ",
"  .+@@@@@@@@@@@@@@@@@@@@@@@@@@@@@@@@@@@@@@@@@@@@@@@@@#  ",
"  .##################################################@  ",
"                                                        ",
"                                                        "};
