/* XPM */
static char * clock_xpm[] = {
"48 48 6 1",
" 	c None",
".	c #787878",
"+	c #000000",
"@	c #FFFFFF",
"#	c #CCCCCC",
"$	c #999999",
"                                                ",
"  .+++++++++++++++++++++++++++++++++++++++++.   ",
" .+@@@@@@@@@@@@@@@@@@@@@@@@@@@@@@@@@@@@@@@@@+.  ",
" +@#########################################$+$#",
" +@#########################################$+$$",
" +@#########################################$+$$",
" +@###.+++++++++++++++++++++++++++++++++.###$+$$",
" +@###+.$$$$$$$$$$$$$$#+$$$$$$$$$$$$$$$$+###$+$$",
" +@###+$#$#$#$#$#$#$#$#+$$#$#$#$#$#$#$#$+###$+$$",
" +@###+$$#$#$#$#$#$#$##+$#$#$#$#$#$#$#$#+###$+$$",
" +@###+$#$#$#$#$+$#$#$#$#$#$#$+$#$#$#$#$+###$+$$",
" +@###+$$#$#$#$#$#$#$#$#$#$#$#$#$#$#$#$#+###$+$$",
" +@###+$#$#$#$#$#$#$#$#$#$#$#$#$#$#$#$#$+###$+$$",
" +@###+$$#$#$#$#$#$#$#$#$#$#$#$#$#$#$#$#+###$+$$",
" +@###+$#$#$#$#$#$#$#$#$#$#$#$#$#$#$#$#$+###$+$$",
" +@###+$$#$#$#$#$#$#$#$#$#$#$#$#$#$#$#$#+###$+$$",
" +@###+$#$+$#$#$#$#$#$#$#$#$#$#$#$#$+$#$+###$+$$",
" +@###+$$#$#$#$#$#$#$#$#$#$#$#$#$#$#$#$#+###$+$$",
" +@###+$#$#$#$#$#$#$#$#$#$#$#$#$#$#$#$#$+###$+$$",
" +@###+$$#$#$#$#$#$#$#$#$#$#$#$#$#$#$#$#+###$+$$",
" +@###+$#$#$#$#$#$#$#$#$#$#$#$#$#$#$#$#$+###$+$$",
" +@###+$$#$#$#$#$#$#$#$#$#$#$#$#$#$#$#$#+###$+$$",
" +@###+####$#$#$#$#$#$#$#$#$#$#$#$#$#$#$+###$+$$",
" +@###++++$#$#$#$#$#$#$#$#$#$#$#$#$#$++++###$+$$",
" +@###+$$$$$#$#$#$#$#$#$#$#$#$#$#$#$#$$$+###$+$$",
" +@###+$$#$#$#$#$#$#$#$#$#$#$#$#$#$#$#$#+###$+$$",
" +@###+$#$#$#$#$#$#$#$#$#$#$#$#$#$#$#$#$+###$+$$",
" +@###+$$#$#$#$#$#$#$#$#$#$#$#$#$#$#$#$#+###$+$$",
" +@###+$#$#$#$#$#$#$#$#$#$#$#$#$#$#$#$#$+###$+$$",
" +@###+$$#$#$#$#$#$#$#$#$#$#$#$#$#$#$#$#+###$+$$",
" +@###+$#$+$#$#$#$#$#$#$#$#$#$#$#$#$+$#$+###$+$$",
" +@###+$$#$#$#$#$#$#$#$#$#$#$#$#$#$#$#$#+###$+$$",
" +@###+$#$#$#$#$#$#$#$#$#$#$#$#$#$#$#$#$+###$+$$",
" +@###+$$#$#$#$#$#$#$#$#$#$#$#$#$#$#$#$#+###$+$$",
" +@###+$#$#$#$#$#$#$#$#$#$#$#$#$#$#$#$#$+###$+$$",
" +@###+$$#$#$#$#$#$#$#$#$#$#$#$#$#$#$#$#+###$+$$",
" +@###+$#$#$#$#$+$#$#$#$#$#$#$+$#$#$#$#$+###$+$$",
" +@###+$$#$#$#$#$#$#$##+$#$#$#$#$#$#$#$#+###$+$$",
" +@###+$#$#$#$#$#$#$#$#+$$#$#$#$#$#$#$#$+###$+$$",
" +@###+.$#$#$#$#$#$#$##+$#$#$#$#$#$#$#$#+###$+$$",
" +@###.+++++++++++++++++++++++++++++++++.###$+$$",
" +@#########################################$+$$",
" +@#########################################$+$$",
" +@#########################################$+$$",
" .+$$$$$$$$$$$$$$$$$$$$$$$$$$$$$$$$$$$$$$$$$+.$$",
"  .+++++++++++++++++++++++++++++++++++++++++.$$$",
"   $$$$$$$$$$$$$$$$$$$$$$$$$$$$$$$$$$$$$$$$$$$$$",
"    #$$$$$$$$$$$$$$$$$$$$$$$$$$$$$$$$$$$$$$$$$$ "};
