/* XPM */
static char * FileManager_xpm[] = {
"56 46 15 1",
" 	c None",
".	c #FFFFFF",
"+	c #BEBABE",
"@	c #010101",
"#	c #AEAAAE",
"$	c #6986BE",
"%	c #F7B2AE",
"&	c #717986",
"*	c #000014",
"=	c #C7BAC7",
"-	c #BEC3CF",
";	c #9E9A9E",
">	c #EFF3F7",
",	c #DFBA8E",
"'	c #BEC3BE",
"                                                        ",
"                                                        ",
"                                                        ",
"                                                        ",
"                                                        ",
"     .............................................      ",
"     .++++++++++++++++++++++++++++++++++++++++++++@     ",
"     .+...................##.....................+@$    ",
"     .+.$$$$$$$$$$$$$$$$$$@#.$$$$$$$$$$$$$$$$$$$@+@$    ",
"     .++@@@@@@@@@@@@@@@@@@@##@@@@@@@@@@@@@@@@@@@@+@$    ",
"     .+...................++....................++@$    ",
"     .+.++++++++++++++++++@+.+++++++++++++++++++@+@$    ",
"     .+.+.%.%.%+++++++++++@+.+%.%.%+++++++++++++@+@$    ",
"     .+.++++++++++++++++++@+.+++++++++++++++++++@+@$    ",
"     .+.+..%.%.+++++++++++@+.+%.%.%.++++++++++++@+@$    ",
"     .+.++++++++++++++++++@+.+++++++++++++++++++@+@$    ",
"     .+.+.%.%.++++++++++++@+.+&*@$@$$++++=++@$@$@+@$    ",
"     .+.+++++++++=+++=++++@+.+-++++++++=++++++++@+@$    ",
"     .+.+@@&*$@+++++++@$@$@+.+&*$@$+++++++++@$@$@+@$    ",
"     .+.+++-++++++++++++++@+.+-=++++++++++++++++@+@$    ",
"     .+.+@$@@$$+++++++@$@$@+.+$@@$@$$+++++++@$@$@+@$    ",
"     .+.++++++++++++++++++@+.+++++++++++++++++++@+@$    ",
"     .+.+@@$@$++=++=++@$@$@+.+$@@$@$=++=++++@$@$@+@$    ",
"     .+.++++++++++++++++++@+.+++++++++++++++++++@+@$    ",
"     .+.+@$@$@$+++++++@$@$@+.+$@$@$@$+++++++@$@$@+@$    ",
"     .+.++++++++++++++++++@+.+++++++++++++=+++++@+@$    ",
"     .++@@@@@@@@@@@@@@@@@@@++@@@@@@@@@@@@@@@@@@@@+@$    ",
"     .+...................++....................++@$    ",
"     .+.@@@@@@@@@@@@@@@@@+@+.@@@@@@@@@@@@@@@@@@+@+@$    ",
"     .+.@;;;;;;;;;;;;;;;;.@+.@;;;;;;;;;;;;;;;;;.@+@$    ",
"     .+.+.................@+.+..................@+@$    ",
"     .++@@@@@@@@@@@@@@@@@@@++@@@@@@@@@@@@@@@@@@@@+@$    ",
"     .+.....+.....+.....+.....+.....+.....+.....++@$    ",
"     .+.@@@@@>,###@.;,##@>,###@.$$$$@.++++@.%%%%@+@$    ",
"     .++@@@@@#@@@@@#@*@@@#@@@@@#@@@@@#@@@@@#@@@@@+@$    ",
"     .+.....#.....#.....#.....#.....#.....#.....++@$    ",
"     .+.@@@@@.&$&$@.%%%%@.#,##*.$$$$@.%%%%@.%%%%@+@$    ",
"     .++@@@@@+****@+@*@@@+@@*@@+@@@@@+@@@@@+@@*@@+@$    ",
"     .+++++++++++++++++++'++++++++++++++++++++++++@$    ",
"     ;@@@@@@@@@@@@@@@@@@@@@@@@@@@@@@@@@@@@@@@@@@@@@$    ",
"       $$$$$$$$$$$$$$$$$$$$$$$$$$$$$$$$$$$$$$$$$$$$$    ",
"                                                        ",
"                                                        ",
"                                                        ",
"                                                        ",
"                                                        "};
