/* XPM */
static char * docs_xpm[] = {
"56 56 9 1",
" 	c None",
".	c #1F3163",
"+	c #333333",
"@	c #FFE4C4",
"#	c #CDB79E",
"$	c #8B7D6B",
"%	c #666666",
"&	c #999999",
"*	c #EED5B7",
"                                                        ",
"                                                        ",
"                                                        ",
"                                                        ",
"                                                        ",
"                                                        ",
"                          .........                     ",
"                          ..     ....                   ",
"                         ..       ....                  ",
"                         ..       ....                  ",
"                                  ....                  ",
"                                  ...                   ",
"                                 ...                    ",
"                                ...                     ",
"                               ..                       ",
"                              ..                        ",
"                            ...                         ",
"                           ....                         ",
"                           ...                          ",
"                          ....                          ",
"                                                        ",
"                                                        ",
"                                                        ",
"                         ....                           ",
"                         ....                           ",
"                         ....                           ",
"                                                        ",
"             ++++++++++         ++++++++++              ",
"           +++@@@@@@@@+++     +++@@@@@@@@+++            ",
"          ++@@@@@@@@@@@@++    +@@@@@@@@@@@@++           ",
"        +++@@@@@@@@@@@@@@++ ++@@@@@@@@@@@@@@+++         ",
"       ++#$@@@%%%@%@%%@@@@+++@@@@%%@%@%%%@@@$#++        ",
"       +$#$@@%@@@&@@@@%@@@@+@@@@%@@@@&@@@%@@$#$+        ",
"       +$#$@@@@@@@@@@@@@%@@+@@%@@@@@@@@@@@@@$#$+        ",
"       +$#$@@@@%%%@%%@%@@@@+@@@@%@%%@%%%@@@@$#$+        ",
"       +$#$@@&@@@@@@@@@%%@@+@@%%@@@@@@@@@&@@$#$+        ",
"       +$#$@@@@@@@@@@@@@@@@+@@@@@@@@@@@@@@@@$#$+        ",
"       +$#$@@@%%%@%%%@@@@@@+@@@@@@%%%@%%%@@@$#$+        ",
"       +$@#$@@@@@@@@@@@%@@@+@@@%@@@@@@@@@@@$#@$+        ",
"        +$#$@@@%%@%%@@@@%@@+@@%@@@@%%@%%@@@$#$+         ",
"        +$#$@&@@@@@@@%%@@@@+@@@@%%@@@@@@@&@$#$+         ",
"        +$#$@@@%%@%%@@@@%@@+@@%@@@@%%@%%@@@$#$+         ",
"        +$#$@@@@@@@@@%@@@@@+@@@@@%@@@@@@@@@$#$+         ",
"        +$#$@@@*****@@@%&@@+@@&%@@@*****@@@$#$+         ",
"        +$#$$########@@@@@@+@@@@@@########$$#$+         ",
"        +$#$%%%%%%%%%#$@@@@+@@@@$#%%%%%%%%%$#$+         ",
"        +$+%%+++++++%%%#$@@+@@$#%%%+++++++%%+$+         ",
"        *+%+&       ++%%%%+++%%%%++       &+%+*         ",
"                      ++++$$$++++                       ",
"                         $+++$                          ",
"                                                        ",
"                                                        ",
"                                                        ",
"                                                        ",
"                                                        ",
"                                                        "};
