/* XPM */
static char * dtterm_root_m_xpm[] = {
"32 32 59 1",
" 	c None",
".	c #000000",
"+	c #666666",
"@	c #CCCCCC",
"#	c #FFFFFF",
"$	c #FFE4C4",
"%	c #B59E88",
"&	c #FFEFDB",
"*	c #EED5B7",
"=	c #999999",
"-	c #8B7D6B",
";	c #333333",
">	c #330000",
",	c #520000",
"'	c #6E2A2A",
")	c #D2BEBE",
"!	c #E3D7D7",
"~	c #5D1111",
"{	c #A27676",
"]	c #9F7272",
"^	c #6D2929",
"/	c #D5C2C2",
"(	c #8D5858",
"_	c #DFD0D0",
":	c #A47A7A",
"<	c #692222",
"[	c #530202",
"}	c #ECE4E4",
"|	c #540404",
"1	c #BFA2A2",
"2	c #814646",
"3	c #601515",
"4	c #976767",
"5	c #D0BBBB",
"6	c #D6C4C4",
"7	c #9D7070",
"8	c #631A1A",
"9	c #733131",
"0	c #E5DADA",
"a	c #5A0D0D",
"b	c #6D2828",
"c	c #D8C6C6",
"d	c #FCFBFB",
"e	c #976666",
"f	c #D0BABA",
"g	c #D7C5C5",
"h	c #9E7171",
"i	c #C8AEAE",
"j	c #7B3D3D",
"k	c #915E5E",
"l	c #B08B8B",
"m	c #A57B7B",
"n	c #692323",
"o	c #560606",
"p	c #E9DFDF",
"q	c #540303",
"r	c #C5AAAA",
"s	c #7E4141",
"t	c #C6C6C6",
"                                ",
"                                ",
"  ....+................+......@@",
" .##$$%$$$$$$$$$$$$$$$$%&$&#*$.=",
" .$--$%$$$$$$$$$$$$$$$$%*-*--$.=",
" .$$$$%$$$$$$$$$$$$$$$$%$$$**$.=",
" .;...+................+.....;.=",
" .>>>>>>>>>>>>>>>>>>>>>>>>>>>>.=",
" .>,,,,,,,,,,,,,,,,,,,,,,,,,,,.=",
" .>,,,,,,,,,,,,,,,,,,,,,,,,,,,.=",
" .>,,,,'),!~,,,,,,,,,,,,,,,,,,.=",
" .>,,,,{]^/,,,,,,,,,,,,,,,,,,,.=",
" .>,,(######,_:<,,,,,,,,,,,,,,.=",
" .>,,,[}|12,,345678,,,,,,,,,,,.=",
" .>,,,95,0a,,,,,bcd,,,,,,,,,,,.=",
" .>,,######(,3efgh8,,,,,,,,,,,.=",
" .>,,,ijkl,,,_mn,,,,,,,,,,,,,,.=",
" .>,,opqrs,,,,,,,,,,,,,,,,,,,,.=",
" .>,,,,,,,,,,,,,,,,,,,,,,,,,,,.=",
" .>,,,,,,,,,,,,,,,,,,,,,,,,,,,.=",
" .>,,,,,,,,,,,,,,,,,,,,,,,,,,,.=",
" .>,,,,,,,,,,,,,,,,,,,,,,,,,,,.=",
" .>,,,,,,,,,,,,,,,,,,,,,,,,,,,.=",
" .>,,,,,,,,,,,,,,,,,,,,,,,,,,,.=",
" .>,,,,,,,,,,,,,,,,,,,,,,,,,,,.=",
" .>,,,,,,,,,,,,,,,,,,,,,,,,,,,.=",
" .>,,,,,,,,,,,,,,,,,,,,,,,,,,,.=",
" .>,,,,,,,,,,,,,,,,,,,,,,,,,,,.=",
" @............................=@",
"  t===========================@ ",
"                                ",
"                                "};
