/* XPM */
static char * dtterm_xpm[] = {
"56 56 22 1",
" 	c None",
".	c #000000",
"+	c #FFE4C4",
"@	c #CDB79E",
"#	c #EED5B7",
"$	c #FFEFDB",
"%	c #FFFFFF",
"&	c #8B7D6B",
"*	c #7A7A7A",
"=	c #A3A3A3",
"-	c #CCCCCC",
";	c #969696",
">	c #727272",
",	c #A9A9A9",
"'	c #0F0F0F",
")	c #9A9A9A",
"!	c #404040",
"~	c #424242",
"{	c #0E0E0E",
"]	c #565656",
"^	c #696969",
"/	c #999999",
"                                                        ",
"                                                        ",
"                                                        ",
"                                                        ",
"                                                        ",
"                                                        ",
"                                                        ",
"                                                        ",
"    ................................................    ",
"    .+++++@##############################@$$$+@$$$+.    ",
"    .%%%++@##############################@+@&+@+&&+.    ",
"    .+&&&+@##############################@+&&+@+&&+.*   ",
"    .+++++@##############################@++++@++++.*   ",
"    .&............................................&.*   ",
"    .#.==========================================.#.*   ",
"    .#.=-----------------------------------------.#.*   ",
"    .#.=--;--------------------------------------.#.*   ",
"    .#.=->..--.,---------------------------------.#.*   ",
"    .#.=-'.)-->.,--------------------------------.#.*   ",
"    .#.=-!.----,.,-------------------------------.#.*   ",
"    .#.=--.~---,.,-------------------------------.#.*   ",
"    .#.=-,.{-->.,--------------------------------.#.*   ",
"    .#.=-..]--.,---------------------------------.#.*   ",
"    .#.=--^--------------------------------------.#.*   ",
"    .#.=-----------------------------------------.#.*   ",
"    .#.=-----------------------------------------.#.*   ",
"    .#.=-----------------------------------------.#.*   ",
"    .#.=-----------------------------------------.#.*   ",
"    .#.=-----------------------------------------.#.*   ",
"    .#.=-----------------------------------------.#.*   ",
"    .#.=-----------------------------------------.#.*   ",
"    .#.=-----------------------------------------.#.*   ",
"    .#.=-----------------------------------------.#.*   ",
"    .#.=-----------------------------------------.#.*   ",
"    .#.=-----------------------------------------.#.*   ",
"    .#.=-----------------------------------------.#.*   ",
"    .#.=-----------------------------------------.#.*   ",
"    .#.=-----------------------------------------.#.*   ",
"    .#.=-----------------------------------------.#.*   ",
"    .#.=-----------------------------------------.#.*   ",
"    .#.=-----------------------------------------.#.*   ",
"    .#.=-----------------------------------------.#.*   ",
"    .#.=-----------------------------------------.#.*   ",
"    .#.=-----------------------------------------.#.*   ",
"    .#.=-----------------------------------------.#.*   ",
"    .#.=-----------------------------------------.#.*   ",
"    .#............................................+.*   ",
"    .&############################################&.*   ",
"    /..............................................*    ",
"      *********************************************     ",
"                                                        ",
"                                                        ",
"                                                        ",
"                                                        ",
"                                                        ",
"                                                        "};
