/* XPM */
static char * dtterm_root_xpm[] = {
"56 56 14 1",
" 	c None",
".	c #000000",
"+	c #FFE4C4",
"@	c #CDB79E",
"#	c #EED5B7",
"$	c #FFEFDB",
"%	c #FFFFFF",
"&	c #8B7D6B",
"*	c #7A7A7A",
"=	c #A3A3A3",
"-	c #CCCCCC",
";	c #A9A9A9",
">	c #727272",
",	c #999999",
"                                                        ",
"                                                        ",
"                                                        ",
"                                                        ",
"                                                        ",
"                                                        ",
"                                                        ",
"                                                        ",
"    ................................................    ",
"    .+++++@##############################@$$$+@$$$+.    ",
"    .%%%++@##############################@+@&+@+&&+.    ",
"    .+&&&#@##############################@+&&+@+&&+.*   ",
"    .++###@##############################@++++@++++.*   ",
"    .&............................................&.*   ",
"    .#.==========================================.#.*   ",
"    .#.=-----------------------------------------.#.*   ",
"    .#.=--;--;-----------------------------------.#.*   ",
"    .#.=--.--.---.;------------------------------.#.*   ",
"    .#.=;......>->.;-----------------------------.#.*   ",
"    .#.=--.;-.;---;.;----------------------------.#.*   ",
"    .#.=--.;-.;---;.;----------------------------.#.*   ",
"    .#.=;......>->.;-----------------------------.#.*   ",
"    .#.=--.;;.---.;------------------------------.#.*   ",
"    .#.=--;--;-----------------------------------.#.*   ",
"    .#.=-----------------------------------------.#.*   ",
"    .#.=-----------------------------------------.#.*   ",
"    .#.=-----------------------------------------.#.*   ",
"    .#.=-----------------------------------------.#.*   ",
"    .#.=-----------------------------------------.#.*   ",
"    .#.=-----------------------------------------.#.*   ",
"    .#.=-----------------------------------------.#.*   ",
"    .#.=-----------------------------------------.#.*   ",
"    .#.=-----------------------------------------.#.*   ",
"    .#.=-----------------------------------------.#.*   ",
"    .#.=-----------------------------------------.#.*   ",
"    .#.=-----------------------------------------.#.*   ",
"    .#.=-----------------------------------------.#.*   ",
"    .#.=-----------------------------------------.#.*   ",
"    .#.=-----------------------------------------.#.*   ",
"    .#.=-----------------------------------------.#.*   ",
"    .#.=-----------------------------------------.#.*   ",
"    .#.=-----------------------------------------.#.*   ",
"    .#.=-----------------------------------------.#.*   ",
"    .#.=-----------------------------------------.#.*   ",
"    .#.=-----------------------------------------.#.*   ",
"    .#.=-----------------------------------------.#.*   ",
"    .#............................................+.*   ",
"    .&############################################&.*   ",
"    ,..............................................*    ",
"      *********************************************     ",
"                                                        ",
"                                                        ",
"                                                        ",
"                                                        ",
"                                                        ",
"                                                        "};
