/* XPM */
static char * earth_3d_xpm[] = {
"68 56 47 1",
" 	c None",
".	c #010101",
"+	c #285D49",
"@	c #188651",
"#	c #202496",
"$	c #28FF20",
"%	c #51A249",
"&	c #5155FF",
"*	c #307159",
"=	c #AEA671",
"-	c #59A2D7",
";	c #000000",
">	c #8E8679",
",	c #FFEFDB",
"'	c #DEC6AB",
")	c #999999",
"!	c #284D96",
"~	c #303430",
"{	c #433F3A",
"]	c #716A61",
"^	c #ECDDCB",
"/	c #7B736A",
"(	c #3B3733",
"_	c #EEDFCC",
":	c #A69C8F",
"<	c #D0C3B3",
"[	c #CBBEAE",
"}	c #A99E91",
"|	c #F5E6D2",
"1	c #867E73",
"2	c #C9BCAD",
"3	c #ADA295",
"4	c #8C8378",
"5	c #7D756B",
"6	c #D3C6B5",
"7	c #ABA093",
"8	c #EDDECC",
"9	c #8A8177",
"0	c #887F75",
"a	c #877F74",
"b	c #D1C4B3",
"c	c #4A4540",
"d	c #B5AA9B",
"e	c #3D3934",
"f	c #F8E8D5",
"g	c #FEEEDA",
"h	c #393531",
"                                                                    ",
"                                                                    ",
"                                                                    ",
"                                                                    ",
"                                                                    ",
"                                                                    ",
"                    .......                                         ",
"                 .++@.##.#....                                      ",
"               @.$#########.#...                                    ",
"              ##$+######@+++..#..                                   ",
"             ####%$###%#$.+@+#....                                  ",
"            ###&$@%$%#$%@@#+@.#....                                 ",
"           ##&&#$#$@$$+$%%$.####.#..                                ",
"          ##&#&&#&$$$%%$##+@#.#.#....                               ",
"          #&#&&#&&%%$%$@##$*%###.#...                               ",
"         #&#&&&&&#$$%$%$$$+$####.#....                              ",
"         ##&&&#&&&$$$$$#*%$+$####.#...                              ",
"         &&&#&&&&&$$$%$$@$+%####.#....                              ",
"        #&#&&&&&&&$$%$$%$$@$#####.#.#..                             ",
"        #&&&&&&&&&=$$$%$%$+$######.....                             ",
"        #&#&&&&&&&-$%$$$%$%#####;;;;;;;;;;;;;;;;;;;;;               ",
"        #&&&&&&&&&&$$$>$%#$#####;,,,,,,,,,,,,,,,,,,,;;              ",
"        #&#&&&&&&&&$$$$#&#&#&###;,,,,,,,,,,,,,,,,,,,;';             ",
"        #&&&&&&&&&&&&$$&#&##&###;,,,,,,,,,,,,,,,,,,,;'';            ",
"        &#&&&&&&&&&&&$$&%#&#####;,,,,,,,,,,,,,,,,,,,;''';           ",
"         #&#&&&&&&&#&&&#$%$####@;,,),)),))))),)))),,;'''';          ",
"         #&&&&&&&&&&&&&#&#$#%+%%;,,,,,,,,,,,,,,,,,,,;''''';         ",
"         #&#&&#&&!&&#&#&#&##$$@+;,,,,,,,,,,,,,,,,,,,;'''''';        ",
"          #&#&&&&&&&&&&&#&##~%+@;,,))),)))),)),)))),;;;;;;;;;       ",
"          #&&&#&&#&#&##&##&#$+++;,,,,,,,,,,,,,,,,,,,,,,,,,,,;       ",
"           #&#&&#&&&#&&#&###++%.;,,,,,,,,,,,,,,,,,,,,,,,,,,,;       ",
"            #&#&&#&#&##&####@++.;,,{]^,/(_{]^,/(_{]^,/(,,,,,;       ",
"             #&##&#&#&##&####.++;,,:<[}|1,:<[}|1,:<[}|1,,,,,;       ",
"              #&#&#!&#######.+.+;,,234567,234567,234567,,,,,;       ",
"               ###&###&#####.+..;,,890a:b,890a:b,890a:b,,,,,;       ",
"                %#########.#..  ;,,,cd[e|,,cd[e|,,cd[e|,,,,,;       ",
"                    #####.#     ;,,,{fgh,,,{fgh,,,{fgh,,,,,,;       ",
"                                ;,,,,,,,,,,,,,,,,,,,,,,,,,,,;       ",
"                                ;,,,,,,,,,,,,,,,,,,,,,,,,,,,;       ",
"                                ;,,)))),)))))),))),)))))),,,;       ",
"                                ;,,,,,,,,,,,,,,,,,,,,,,,,,,,;       ",
"                                ;,,,,,,,,,,,,,,,,,,,,,,,,,,,;       ",
"                                ;,,)))))),))),))))),))))),,,;       ",
"                                ;,,,,,,,,,,,,,,,,,,,,,,,,,,,;       ",
"                                ;,,,,,,,,,,,,,,,,,,,,,,,,,,,;       ",
"                                ;,,)),))))))),)))),)))))),,,;       ",
"                                ;,,,,,,,,,,,,,,,,,,,,,,,,,,,;       ",
"                                ;,,,,,,,,,,,,,,,,,,,,,,,,,,,;       ",
"                                ;,,))))),)))))),)),)))))),,,;       ",
"                                ;,,,,,,,,,,,,,,,,,,,,,,,,,,,;       ",
"                                ;,,,,,,,,,,,,,,,,,,,,,,,,,,,;       ",
"                                ;,,,,,,,,,,,,,,,,,,,,,,,,,,,;       ",
"                                ;,,,,,,,,,,,,,,,,,,,,,,,,,,,;       ",
"                                ;;;;;;;;;;;;;;;;;;;;;;;;;;;;;       ",
"                                                                    ",
"                                                                    "};
