/* XPM */
static char * image_name[] = {
"56 46 18 1",
" 	c #FFFFFFFFFFFF",
".	c #BEBEBABABEBE",
"X	c #010101010101",
"o	c #AEAEAAAAAEAE",
"O	c #C7C7BABAC7C7",
"+	c #69698686BEBE",
"@	c #9E9E9A9A9E9E",
"#	c #717179798686",
"$	c #000000001414",
"%	c #F7F7B2B2AEAE",
"&	c #79799292B6B6",
"*	c #DFDFBABA8E8E",
"=	c #51515555FFFF",
"-	c #797986869E9E",
";	c #A6A69E9EA6A6",
":	c #BEBEC3C3BEBE",
">	c #BEBEC3C3CFCF",
",	c #AEAEAEAEB6B6",
"                                                       .",
" ......................................................X",
" ......................................................X",
" ......................................................X",
" o...o...o...o...o...o...o...o...o...o...o...o...o...o.X",
" .....                                           o..O..X",
" o.oOo +@++ @+@+@+@+@+@+@+@+@+++++++++++ +++X +++X.o.o.X",
" ..... @+@+ @@+@+@+@+@+@+@+@+@+@+@+@++++ +++X +++X....oX",
" o.o.o +@++ @+@+@+@+@+@+@+@+@+@+@+#++++X +++X +++X.o.o.X",
" ...o..XXXXXXXXXXXXXXXXXXXXXXXXXX$$XXXXXXXXXXXXXXX..o..X",
" o.o.o X..................................... @@@X.o.o.X",
" .o... X..................................... @+@Xo...oX",
" o.o.o X..................................... +@+X.o.o.X",
" .o.o. X..................................... @+@Xo.o.oX",
" o.o.o X...X+X.XX.X+X+X+.X+X.XX.X.X.XX.X+.... +@+X.o.o.X",
" oo.oo X..................................... @++Xo.o+oX",
" o.o.o X...X.X+.XX.X.XX.X+.XX.X.XX.X.XX.X.... +@+X.++%.X",
" ooooo X..................................... @++++%  oX",
" o.o.o X...XX+.XX.X+X.X.XX.X.XX.X+.XX.X+..... +++%    .X",
" ooooo X.....................................++%    %ooX",
" ooo.o X...X+X.X.XX.+X+....................++%    %o@@oX",
" ooooo X.................................++%    %o@@@@oX",
" ooooo X...XX+.XX.XX.X+XX.X.X+X+.X@X@..++%    %o@@@@+XoX",
" ooooo X.............................++%    %o@@@@+XXXoX",
" @ooo@ X...XX.XX.X.XX.XX.X.XX.XX.X..X%    %o@@@@+XXXXXoX",
" ooooo X...........................X    %o@@@@+XXXXXX+oX",
" oo@o@ X...X+X.+.XX.X.XX.+X.XX.X..+@  %o@@@@+XXXXXX+o@oX",
" ooooo X.........................+ @%o@@@@+XXXXXX+oooooX",
" @o@o@ X...X+X.XX.X.............+ %@+@@@+XXXXXX++Xo@o@oX",
" ooooo X.......................+  %@X@+XXXXXX+@++XoooooX",
" @o@o@ X...XX+.X.X+X.XX.+X.X..# %%%o&XXXXXX+@.+++Xo@o@oX",
" o@ooo X....................O#$o*oo*oXXXX+@.. +++X@ooo@X",
" @o@o@ X...X.XX.XX.XX.+X.X+.+$$X#=&-#++;..... +++Xo@o@oX",
" o@o@o X..................O.....:::>>>....... +++X@o@o@X",
" @o@o@ X...X+X.X.+X.X........................ +#+$o@o@oX",
" @@o@@ X......................;,............. +++X@o@@@X",
" @o@o@ X...................O..o@@o........... +++Xo@o@oX",
" @@@@@ X.......................@@@@,......... +++X@@@@@X",
" @o@o@ X.......................o@@@@@o.O..... +++Xo@o@oX",
" @@@@@ X                        .......       +++X@@@@@X",
" @@@o@ XXXXXXXXXXXXXXXXXXXXXXXXXXXXXXXXXXXXXXXXXXX@@o@@X",
" @@@@@@@@@@@@@@@@@@@@@@@@@@@@@@@@@X@X@X@X@@@@@@@@@@@@@@X",
" @@@@@@@@@@@@@@@@@@@@@@@@@@@@@@@@+@X@X@X@X@@@@@@@@@@@@@X",
" @@@@@@@@@@@@@@@@@@@@@@@@@@@@@@@@@+@X@X@X@X@@@@@@@@@@@@X",
" @@@@@@@@@@@@@@@@@@@@@@@@@@@@@@@@@@+@+@+@+@+@@@@@@@@@@@X",
".XXXXXXXXXXXXXXXXXXXXXXXXXXXXXXXXXXXXXXXXXXXXXXXXXXXXXXX"};
