/* XPM */
static char * image_name[] = {
"56 46 17 1",
" 	c #FFFFFAFAFFFF",
".	c #BEBEB6B6BEBE",
"X	c #000000001111",
"o	c #C7C7BABAC7C7",
"O	c #AEAEA6A6AEAE",
"+	c #010101010101",
"@	c #FFFFFFFFD7D7",
"#	c #DFDFBABA8E8E",
"$	c #F7F7B2B2AEAE",
"%	c #8E8E86867979",
"&	c #AEAE61616161",
"*	c #AEAEAEAEB6B6",
"=	c #5151A2A24949",
"-	c #A6A679798E8E",
";	c #9E9E9A9A9E9E",
":	c #96969696AEAE",
">	c #A6A69E9EA6A6",
"                                                       .",
" ......................................................X",
" .o.o.o.o.o.o.o.o.o.o.o.o.o.o.o.o.o.o.o.o.o.o.o.o.o.o.oX",
" ......................................................X",
" O.o.Oo.oO.o.Oo.oO.o.Oo.oO.o.Oo.oO.o.Oo.oO.o.Oo.oO.o.O.X",
" o...................................................o.X",
" O.OoO.O.OoO.O.O.OoO.O.O.OoO.O.O.OoO.O.O.OoO.OoO.O.O.O.X",
" .o...O.o....oO.++++++++++++++++++...oO.o...o.O..o.o..OX",
" O.O.OoO.O.OoO.O+@@@@@@@@@@@@@@@@++O.O.O.O.O.O.O.O.O.O.X",
" ..oO...O.o.O...+@@@@@@@@@@@@@@@@+#+O.o.O.o.O.o.Oo..O.oX",
" O.O.OoO.O.O.OoO+@@@@@@@+++@++++@+##+O.O.O.O.O.O.O.OoO.X",
" .O.o.O.O.O.o.O.+@@@@@@@@@@@@@@@@+###+O.OoO..oO.O.O...OX",
" O.O.O.OoO.O.O.O+@@@@@@@@@@@@@@@@+####+O.O.OoO.OoO.OoO.X",
" .O.O.O.O.OoO.O.+@++@+++@+++++@+++#$###+O.O.O.O.O.O.O.OX",
" O.OoO.O.O.O.OoO+@@@@@@@@@@@@@@@@++++X++%O.O.OoO.OoO.O.X",
" OO.OOOoOOO.OOO.+@++++++++@++@++++##+##+&OOoOOO.OOO.OOOX",
" O.O.O.O.OoO.O.O+@@@@@@@@@@@@@@@@@@####+%*.O.O.OoO.O.O.X",
" OOOOOOOOOOOOOOO+@++++@++@++++@@++++X@@+%OOOOOOOOOOOOOOX",
" O.OoO.O.O.O.O.O+@@@@@@@@@@@@@@@@@@@@@@+&*.O.O.O.O.O.O.X",
" OOOOOOOOOOOOOOO+@++@++@++++@+++++@@@@@X=*OOOOOOOOOOOOOX",
" OOO.OOOoOOO.OOO+@@@@@@@@@@@@@@@@@@@@@@+-OOO.OOOoOOOoOOX",
" OOOOOOOOOOOOOOO+@@@+@++++@@@@@@@@@@@@@+&OOOOOOOOOOOOOOX",
" OOOOOOOOOOOOOOO+@@@@@@@@@@@@@@@@@@@@@@+%*OOOOOOOOOOOOOX",
" OOOOOOOOOOOOOOO+@@@+@+++@++@+++@@++@@@+%OOOOOOOOOOOOOOX",
" ;OOO;OOO;OOO;OO+@@@@@@@@@@@@@@@@@@@@@@+%;OOO;OOO;OOO;OX",
" OOOOOOOOOOOOOOO+@@@+@++++@+@+++@+@@@@@+&OOOOOOOOOOOOOOX",
" OO;O;O;OOO;O;O;+@@@@@@@@@@@@@@@@@@@@@@+%*O;O;O;OOO;O;OX",
" OOOOOOOOOOOOOOO+@@@+@+++@+++@@@@@@@@@@+%OOOOOOOOOOOOOOX",
" ;O;O;O;O;O;O;O;+@@@@@@@@@@@@@@@@@@@@@@+%;O;O;O;O;O;O;OX",
" OOOOOOOOOOOOOOO+@++++++++@++@+++++++@@+&OOOOOOOOOOOOOOX",
" ;O;O;O;O;O;O;O;+@@@@@@@@@@@@@@@@@@@@@@+%:O;O;O;O;O;O;OX",
" O;OO>;OO>;OOO;O+@+++@+++++@+++++@@++@@+%O;OOO;OOO;OOO;X",
" ;O;O;O;O;O;O;O;+@@@@@@@@@@@@@@@@@@@@@@+%;O;O;>;O;>;O;OX",
" O;O;>>>>>>>;>;O+@+++++@++++++@+++++@@@+&O;>;O;O;O;O;O;X",
" ;O;O>>;O;O>O;O;+@@@@@@@@@@@@@@@@@@@@@@+%:O;O;O;>>>>>;OX",
" ;;>;;;O;;;>;;;O+@@@@@@@@@@++@@@@@@@@@@+&;;O;;;O;;;>;;;X",
" ;O>>;O;>>>>>>>;+@@@@@@@@@@@@@@@@@@@@@@+=>O;>;>>>;O>>>>X",
" ;;;;;;;;;;;;;;;++++++++++++++++++++++++->;;;>;;;;;;;;;X",
" ;>;>>>>>>>;>;O;O&=-%&=-%&=-%&=-%&=-%&=-&:>;>;>>>>>;>>OX",
" ;;;>-;;>-;;>;;;;:>;;:>;;:>;;:>;;:>;;:>;:;;;>-;;>-;;;;;X",
" ;;;>>;;O;;;>;;;O;;;O;;;O;;;O;;;O;;;O;;;O;;;O:>;O;;;>;;X",
" ;;;;;;;>:-;;:-;;;;;;;;;;;;;;;;;;;;;;;;;;;;;;;;;;:->;;;X",
" ;>>-:;-;;O;;;;;;;>;;;;;;;>;;;;;;;>;;;;;;;>;-;;-:;O;;;;X",
" ;;;;;;:;;;>-;;:-;>:-;;:-;;:-;;:-;;:-;;:-;;;;:;>;;;:-;;X",
" ;;;;;;;;;;:;;;;;:;;;:;;;;;;;:;;;;;;:;;;;:;;;;;;;;;;>;;X",
".XXXXXXXXXXXXXXXXXXXXXXXXXXXXXXXXXXXXXXXXXXXXXXXXXXXXXXX"};
