/* XPM */
static char * greenmarble_xpm[] = {
"128 128 76 1",
" 	c #5B5B5B",
".	c #525252",
"+	c #595959",
"@	c #545454",
"#	c #4D4D4D",
"$	c #4E4E4E",
"%	c #565656",
"&	c #5D5D5D",
"*	c #5C5C5C",
"=	c #626262",
"-	c #535353",
";	c #5A5A5A",
">	c #383838",
",	c #393939",
"'	c #3D3D3D",
")	c #434343",
"!	c #454545",
"~	c #3A3A3A",
"{	c #373737",
"]	c #3B3B3B",
"^	c #484848",
"/	c #4C4C4C",
"(	c #3E3E3E",
"_	c #343434",
":	c #414141",
"<	c #3C3C3C",
"[	c #404040",
"}	c #474747",
"|	c #505050",
"1	c #4B4B4B",
"2	c #555555",
"3	c #5E5E5E",
"4	c #575757",
"5	c #444444",
"6	c #3F3F3F",
"7	c #363636",
"8	c #585858",
"9	c #424242",
"0	c #494949",
"a	c #464646",
"b	c #606060",
"c	c #5F5F5F",
"d	c #353535",
"e	c #4F4F4F",
"f	c #515151",
"g	c #323232",
"h	c #313131",
"i	c #616161",
"j	c #333333",
"k	c #4A4A4A",
"l	c #656565",
"m	c #646464",
"n	c #676767",
"o	c #696969",
"p	c #636363",
"q	c #666666",
"r	c #686868",
"s	c #6A6A6A",
"t	c #717171",
"u	c #6F6F6F",
"v	c #6C6C6C",
"w	c #6E6E6E",
"x	c #6B6B6B",
"y	c #6D6D6D",
"z	c #767676",
"A	c #707070",
"B	c #727272",
"C	c #747474",
"D	c #797979",
"E	c #7A7A7A",
"F	c #787878",
"G	c #777777",
"H	c #757575",
"I	c #737373",
"J	c #2D2D2D",
"K	c #292929",
" .+@#$%+%$ &*=%-;#>,')!)~{]^/(_>':'{_<([:}|#^1$$22$133/4-',>~5}675-   8&8^9[,~!@2}*$0.@06{,'a0{,]~,^42; 8bc82#a<7,,':>d_>'~{~~.*",
"2ef@.-44f#a#2%$1f[,7>~''dg{:!{h{~~~{hgd~~:0})^0#1a!ei*%3$_<:77{{])2+;2-8%210)#%429'a$-@9~~:[!^],'!!f4f%3b33ii20:dd5##:<{_7{{]1%;",
"8||*;%42|}9!^#-.:~~~~]<>_jj':'>{>>{>jh{:([!!a!k4@!54l=bi^h9!'<::'5!4%@$8mno.);i3f-%$.88!^:6(::,~}a!.%.0$ .eb=4@#0)k$f.01({~7[  +",
"%^-&;++8.'6''.3=.''(<{,~~d7:a/e:]!|f:j~:)!a/..2@.-0$=p=q5h>:,[!5,<<cc%$&lorf72b .3i.2@10/^'{~,,'1##*m2#.%/5 ss3832!0.f.8@a(~6&3%",
".0!%33;.:dh_'@lp.!')6d,~(':5.4; $@= .''2b;0f88s3%%1^2qic|]gd:0}^}):bb3.2qn*^g<%4 3=2%-0|.;|[_d~]$&=tu*1.4|^2qv==c3^6!0!-/):~[.4@",
".$.8ouq8:7dd<$q&0![!}:~'11$^#@cb%3=*@1!lm8!!k%mi *108qi.@@2@/1$.1a18=3@4rqf:g~%8&32k$2;8-%216');3=mwne!.%1$.$23b3%6,((95a:'{'3q+",
"f%8+=usi#~{{,]}:9:~:^6~'1.2.:'02f.+e$!f&8010!fm=3.:!.cq8|4;;.00.^[^18..+ss207'-888$.%&@f.4&=+3p=b3=b%508f9-2$48bq2d7,'[:6<>{#qq;",
"+4-8%bi %:_jd7>,,77]<77{~e.^]_7([d,<:!8%@|%|!-===%~(;mr=#@4q*82$'(9!^#2*vs+#]7[#f+3 =p3@c 3q &=..#2./1/%.2si&=&vv86_{{,:1f!1 lp3",
".$128; b2'jhj__{>{{7d_gj_<['~,>7d>>[5!-|.^#:/qxnb.)! pqm=q&nm&-^9(~(0|283lc$[d,)1 i &=c8ip=8;%#$.%#$0#.cqqvq2 bsq#<<~{'bo3%%4888",
".$1@3&+b;!j_{{j{,~<{gdd__d>((~]7:)[[::^19#%$#lxn4a5)8mnliqc3.#:9:'','[0%+i81[[!0$/a11$1;;i=  2%&ip=;%#-owyv&11/+2['6'{.vy* *0^:/",
"%@;*i383%}:~'(d{,::~{]]>,{>:['[]:59:9/ 89.8&.23&20}. %;;f+=15[[~~6'{{{>!%2@a~'90.#9:[)#.%3=3.@& =p88 +}crrn 4e;2$!::]{#m3%qq!^a#",
".%&;+=32$f1!):>7~:!:~~,~~><6'~'d{6[6(k3c1.3i 2.^^!|*pi@9]#/9/e^',,,,{,]<:):)','!/^({:1.#ebc-$e$/43.+b+5!2;*%++i=%1):{>'28 rsp8@f",
"c%&|!%+2.;4^^[,,7~a!]{d~,{,<]~~,7~>d,]|%f.**3%1]'-2&b=%__:5#$#0:'~,~~~~]]~9!(,~::(]~^.48+84#$k#1/3+co k:/$2.#%3c%$^'7,'!$.psmiix",
"q2.a0^e..;8.#:,,{7'(~!<_,<'~~<['>~[{,'1ff.8cr3!(!.@%+bfd,<.;$/#e!]')5'~~~>':,,~:[]'(^@=oq8%951.. ;%;n;% n +1!0|.%8f:{,'1$/.43=qv",
"---*.@!),@*i=fa,~~]6a0!~~''{g'!9[k$!:~:5!$- c$!@++@.2f$96!@i;-3x ''[:5:<:)05,><([6<](! =p*4#$;8;&3 2%%%qsli'~1%24=%1({~:^[^83i= ",
"3b==*..^[^.*lwr%f$.#|#0},]]:::}1e$8+8:~~])^ee#@+;;%|:^8=-$;vqmsz=#<6:^5}#e;257,~,~]~{d'a *+=3 3b3*;2|.$.rm #2=AA3mbc|'hd__d!834.",
"lmp3%e  *82%3yy=b*3;f#k!<6^#-.0$f/2; -~7{''(: c.% *$[!mwm%&33=com ^1^!:^$e@.),777{]~{__{9f qm+*33;= $))1;b 1&qtw=;. ;8[>{{{{^f. ",
";ll3.f4+3;}}.;*pqb33;$09$$/.@4#01/%23i*1#:,d(;b;8sB2'(-b; ;2##-cpm..1a6'a:!^!:,',7{,>{,{~(#3=823=+3;:1e8 ;40# rnq8^+  %a<):d~'[@",
"}$8^,:00-:,7~2%& 8=qp|a$f|@2e#b +8+;f+qql=.{de=biwC%:d^@%f6!1.$8&%.2%0!,'~)^596:6'5!^!:]{]#-%;;=pii$/2.28%#|$|2qonnu=*;@01$!~,{'",
"#!{dj_:00!]d>:/f1f+qq8-42f;8!2rr*+;=3@mb=i k''.$+ =4^_'.-$: =b 3=q;;%}),d,)5']'0^^2qq%::[]:k b  ==l=3;2/k1^e^!^3ooxwb cc%;%4!<7a",
"3p2:':#;2/'>':[!. 33p=8&;83&5/=3.%43 =q8%2.@b5{{}.%21,522k+==iciqo%88$^~{>~,77>:^$3uu 1|0[,[1i #.1cmlc%!}/8|!:k#3q;88%iq=c28.1!8",
"qs=&..-882:,]'6$3bl8f *c;+3&f-3i%84&*c%-82.+m=}{90.e!0$4%/2%8383qc#^}..|!{d{d{()!43oq8|$#'_,5.@00^}2 %-$^33%6'1|%.:2+-%qp+-;  8&",
" ccc8;+%8|!''[0io3$^'e%  c3-8%+ 2@%f2-!$$0+&3p;6<6!$--@%f#|--+%2&-k(,^.2/]d_<0^51&;3&;$$1{h(#-@0#|00}/.24&;@$'!e..}'0%c3;$#e1-&;",
".2-+ ;@1^)5[,:.xw41#5+%. i;3;%2%2e.|a5!f#f& %=3-'6'|4 3@e84 2-$!:d6,~^.;3340$4;8bp3$&32$(>7[#8i;[:!#0e.@e8.2-#!k$22a$43i*!!:2.#0",
"e9.43**2![({_'2nm1$|.3 /.===;.8&-e84;#!0!|;%|8;/'{'.*so$-m&4@#a<jhdd'2%;ooqc*& ;ib.!ib .5]d,#3= ../%e- *$%.$2.0:1@-.#.;nq([23p$$",
"19($*irq2<d_d!2 +$|.2;2f.m=i=;3p;8;;*;0!!02.48+^~_>| Cy2ro3!^!:<_g'][.83m= &*;.e#*i-pp*$!]_,}8=%; 8@-3 4;=ce91^ebc*b=q3*8:#==n 1",
"[}k#&3330jd':)@;-/-.22|$0.3cnsm=-;3;3&0'!#|-c;3 '7,[1ixoos.<9,',g_}!$.33c^# &.^:-ol+qq= 41:,'+=3 8*==3m$%==@^1k4lqq=qvoi :3=pp.,",
"'!!ei&1#6,:0#;;%2#e8;3 $)^0 qnc.;8*4b32a#82 b*b&'{6'~ewv= ~a.:6]~[50#2ib8^%;;+2}3xn8;=i3 3c%5:8&& %3==i| 3 2-2f%3i3*clnq38bi*#^,",
":a^8& .}'[$e$ *%..3qmqp31{,>#2@-8-.@2+-$43&%;.2e]>(:~'&3./2 =;1'!#k1!3op$k%8=c32ib8@$@+8+3=3(d'#&c&.0&*2=p=4.2%%33-.f02=lsnqb#<:",
"0|- 3m&|6~0$e3i;..3li=ro$},(2f.e003q.$e%=q3 3.!11kf#:,1.2&3qm3+5}k^0.vs3%8;.+3+3=&@f1#-%-;bb|d!/ 3%/}ef.;3q=.%+;&3;--)kccqrm=8:a",
"a^@ sAv3:{,).bq@k];33=vB!}!@c;#1.8nn8k# oo3mm 0f;3i8$>:fqts38 *$:^  3yp3+==4 3&&33%1#f.-1;;%1>60882@^&*[!crqe|22%%=x3%^f2 3.%;@(",
"!#2byto-',{1%;%|#<)8  o*^}k.m=+3i=l=*$1%mb.bic.#%3=b 1,!2so2e=32|@33;%*3f-3334#4=mbe#.|^'.;4)<ak.$;+-;$|; & #k4*f%xA=+.e. &-% %1",
"3&8=yBs.ka7)-%%8@6f22$%12$}/bi3b==3%f@2.b3<k3 $$&3c8%e!,6%38@q p=.$.@ -^^-==i..2ci3f12$1,(e}{(9^6!p=%8/%+8%4f@cb%+ivo+#0$.8e4 .|",
";;2*qtv=%|<(43*3@$3 inr2+4^-@3*3=&88ff%&ql#1.0^=ql3+8 1',{0''/43r #.3=4:9/4;4ee%+*b+$.#0:>~'((:]]}lv2f=b%@/|!e;*-;;8l;0}}ka/8;e#",
"/!08%c==3|(] i3c ==*ivy=.ek+82%;8.24-ee/8-.|@#apo=84 +.0:]~,,,/%=%$4b=3']',6k$23 ;=c2..f[{>5a99':4=q;%+ .51a!.+ %%8bm@1#01}#.;38",
"$'~!012i%$']@%.;8;+@+ox3.3+882 ;;iic%8=c0.@-+2).%$2%$.%$}:']'6:}$^1#%.!,{~~>6-33*8i38  ;5,{0$09a^*ov=||2#1.01   f;nvvq fa5^8+=oq",
"29,!^00#}<'}@f^8 2.f233;iq38-&q*pq=3 =uw3f$280#- ;44%.%2ka}!:'([:)^:})'7d([>~-q=;23lm;;c8,,12f$%2cqqm$.;%#$0#%8223osBtpce;mpi=wv",
"a'{'!a:]{d'!..a& 8%#.@8 pq%^#vyqbi$.-3wxb.83&^$f  %+823&...@42/$'']6!1#!>~<d<^ +.kqwx -p=5d9|0%883b20a#lc*34$$k1f@ lvn2;2=op1}b3",
"~g_{,<6!)]7{}8pi8ci2.e!2%2^~^=xi;2$$!.83&8%m=k#()}!42%&3-#@&mq3 1(,':-4e'{,~)}^0#:*vu8/3=*',>'e-8+201052;8*+;3%}e^|4&06/.vxpk[66",
"{dj7,91+2:{d]$=i$#f)()9']]g{9f%@; %:5^8 *8.4411/$a8-@2bp+# 3oq33 1',: &$]{][)9!9^1883.$|381!]d<(a:6~9![d]9-bmi3+% ;;82^2 sv&0:<,",
",7_d>5/8f:<~'9^[d<^0$2f1:~{7~!^$;8|}}08823 4&8.;;44%22bi%2;  @2# .|)(#2.'(:5#21fc32#0}:$%-.@k<_~<]{g{{{,[{)3pi===3&&*q&/+334k:<>",
"7_7]'(:5020#4*2.|8344 & -!{d{]'!^^#4 k2 b*;88 p&;2@@@0-84 +*3#!:!a1!~)ek!ka}+=%.cr3$!0:+8%.@%.{d,':(~:0%.^(!%+; 8-24&sqi% ;%.2f'",
"a{,'(::#%848i= +83c22* i89ddd77d{(133#a%;%;%^8p8e!k22#|.%41k&9~'],!!>[^k^0:!+=8k3s&1@&;% 4|8*8}7<:}$.*4* 8c$](:~{)1#.;33@#@2%;81",
"2.#1|1!#--8;+.;+42^}$43q=^6dd__d7{'# 2#.@f-#0#$%3f@%4##.%e#}e]7(({d1,~''']':8==13s;a%  83*@3*f'{{'cp333&&33*.'dj>'')).3&.%$|. ;2",
";33*3%^5{5.8;imrn.1.;8=l 2adh_d_d{,:%@88%-1!^k0 b3= 8-$#$/$#}:~5^:<e21:,{_'';m3e/2})2%4+  %b3c%/^)qq&8.2.|8qs=[j{6'7j$=vb&4^k01.",
"f1;&=%!~}.2-*iilq$0e8+=;;.^>':a97{>>!|;;42|%0{6!^ =i3;%&@..$!/%3+.:43*$!<_{~@b3c%)[[/%3*2;|% wub*2l=2$bl3#.vvn)]{~{_j!qts+%% 8.f",
"f[!832''1/$2;&88%:!!1-c3i%^:!1$1(ddd,!1.224%/./]>2lq38pqb%|^,92=oq+$2=i.k'~]0$3q :6{'#@e@ 2k03pi&mnm3fqvv3/pqi5:::>jg,!3..43mq=.",
"+2$.2.9~00k% 33380k55iqm38+!6e2f(>_h{:!!#@;;;  !]-q=; ==;4.$(ae&cqm;.3 -/^',]:. 4)_'(+*|24.%=i2@%*34ff3uyb%832f4e0'd_7,,~,(9$ -f",
"@-.$}09||1:^. =m=%1!)8so8-2!,a%.:,],7~<]98  m*80$+iie2i8-;%8-@ *33s=422.;30'd'# p@.#6.+f22; bi;-;8.1^k$f3&;8#0%%8%1,{~~:'{d{[(]a",
"!%3=/5^8ll1:,6. ;+$d:!2r;.$5(>9!6:a5~d>~e+%=q42- i==$6;8 b3.2%&; =x=3+;8=s=17{'2=  *+|+%#048;b;;3;0[!:,{(@.k)/|;=80~08.!6':!0}!'",
":/==4/1%ss2#.--e8+^7#$.;8%.}^5[')!a:<{:f;3=&=e@%lp=8$:(;*lm .%f.88&pp8;.fqm.]dh:22=i==b3 $;;&=;3=3%6~,__>aaa c8e40:<e&&#!#/^e#$}",
"[)- b3%$.*0++2.$f!.q=242$;@00#5[[::~~{^;3qq&% #!*c;+.148+338f-|@842=c4@;#pp397d:$;=bi*33*;=3;4@9+3%<7_g,]^e3ssia):([a;&.0%+3%#%$",
"<]^ c;.fk: ;8%.$#eqss%#..8bi$0'~,{7{{7^;3m3/| $0$f;;e@i3*3%#/&84+i3|+;2%|bm=^'>:%28im&4;2cmc8%!:}3b^{__~:!+bos=#!9!9:..k#iln3^/!",
"'7'e8;++f%c*.%$/2;pqi@-122pp.:h_7>{~,d7.%%#!6$.$-2=b+*=c;e.8##$k8bce-;8%f#+2@|9~#@#.b .ff3===i#.8 &k{]~':#=xnqb+/^!!6'!^1+ *;$!!",
"(d_]firon28- *@.28;*.%+4%2;*e,j_,~'5![{^28$6!#-%.-48;;8  k1.k!~'f8*2.%82/#.|* #~[k-. *20k%;mpi84-./'](],].ryvqiqq8k0[{[00-f440!)",
">'['$2qrq%e|3+$;;+344=o3#^@ #{_7]'9!0191@@@.$*i+..^0^1'^fe+./!6,!$8.#!1;#a ;48.67k3i&&4''.+== 3p.)~][#-0)/3q3- qx=.^19~5^5:6[:[,",
"6!a1/#8= e/4c+1-2cm 8xyp.e2%'dd~<'!:0/!>!1+8f&m&3i3.9!)(. +./a:~|8e$':.=f|88#||1:68pm--!!%333+=q80[1+ll %;28;$4wB=. 3|(50[g7!1^'",
"6$#$#%2|!!@e&8.|&qq;% =%n 1~__>,~:^}:^'''^i=$f+|3i=8!.2ke88$a0.#.@.^/!/}k8 806%*;#5|33q3.$ 84.=q8;+2bvs=;21+&@+xunrp=#5[:~h,01!'",
"a.#1-3i%|882*3c;qn= %@#3upf__7>{,[$f9~]')!-8$#!024@}$qm*4i%!:!-;2%-1..2.*=34|!233&*41=q= %-3*8  %bq 3&-@f!. o&^33=sl=0:~d__{]9)'",
":!:[# 3@/%33.8cqv3e$#-*=l3^~{,~~:^0::]]<[!!6/$:!0/.$$ 8*=q%!:6;8%;3&8.$3wBp.+/$%;;bb00%|&3&pc38.* bc%-/.%1%qu='5'.3b.~7_7>>{(#$k",
"'',,/%.$)~f22; ouc%8.24+ .9:[<(61e!<]]661$09'0^}k2*8+8-/@82+0'14-k*3=p2&ws&.;-28&2 3:j>/4bc=qs3. lq=@.$438.;3+$,'^;%^(7{~,{]:$@$",
"06'5e28#'~1.48*ovi ;4;%%-^^$^6<~|%5~~6)a#..f!@#01$@% 200/18 .6(0-@2cno2.nqm=.;2$2+1a#_d}.&;qmrb@234|.$|83icrq.}]5=b-/'dg'['7a-2|",
"$[}9044-19/434 %223$@;2;412;25'!%-6]'95^k#28!22/$!^}1|k'$|.2$:,5*i 2bb2%3cno.$1f-%1}1'_<1$f&*&%%|.$f%$00*i=nn;^}/i32e5'6[(~%@%+-",
",>(d{}-8@#2ii m +$^<6.42e/e&8$#1/6':5)!^^522^;b8+;+1k}|!)'#f^0!'2qb$#%%#%8 ;<^}^$$$1!:~]$83f+f01e0.#|/0)}4  i4f%0e@0a!ea!9.3i3+!",
"%+1/1a8=3/1*3quzu$@8f-3212---$-8!':^^!!9a00a:.=c-8m*-%@^~:;33 &2!-3%.:[,/;-#):#@#f@ 1[#1fcp1k5!!!'~kfk#'(#|e./8b8$!(~##^):5imqqq",
"f&*+.$. +}59f3wDw+sum32#$@..$.$0:!$e##)6,96(}1pm;8=88@.f[0b=qopinn=blp5:f%-0<:/8|.4l4'^2@;%'5~{>~~<6%k:11!f1(^%2888!$1^95!/|8&l8",
".2@.%=8#a]1.%*mw=sEFGB=!@*^.%..#:@ 2-%>{{dd:;8@% m*&40!f1|3 *p&prp=mrq;;c2$:,~'$.%+q40^*&42k5(7gd,,6@4 %|.;@^1-e|3i.[:(9^0+;3l;e",
"$ 3;|-|'_d4i;;3mq*;=st%$#%%4.50}'kf14*9_{<]'@21'}nnssqff||k+;3*&;8*=vcb3q%11*%!ak.8%2.$.@;+.0]ddd7,'/22.+3q3333.f;&1~]()!/@*=mbf",
"8lp;.}~{j,.=8.ib-42fic#^k;qq*@^5:^%8+3#{_]}#$/}@#.$=sm %% fe%4%%. == cqi $$b=q=%$/%2pcc2% 38/'7{{d~<14-e2=cpvo3e%&.~],:!6:$3c=pf",
"4mi3;^7,:#8c.#f#^-.k@;!!$=nq=b0a)4bqim [}#.2$%bnl3-f-+223=3.;ea#blpmi=3%2|@ *p=3k#!.sAw8%3ns4(>~,dd<k22#^@=pmqp#..:~]<(::,)$|%;@",
"-;i=;$'[psln8@.008;*%8}/%qp*=3:'k3qurpi@&3.1- ioq33+.$::43;qqc$epob  =8+%$2.%@2e0f/ qyv=84i=}'<:9'771.e$/58&+ 8@=.#::!$e1'~5,988",
";;**k!~.ouro 8@!+82 ;#123li c8~0=qswsc1.; #28-2m .%%.1^^(e3msvc%;e#a.=rc8$1@3+$@.-$2pnc;8.15:~[0a9^9+bfk5%;*%11;o&|65^$.$[7d,6$8",
";42#k^'6;3.;4%8bqc%  f.3===8&c^mm8-pqb2mi.%-%0(.e^^#%.k1:1;ioyi*c5_~%rrm8.a$c 248;np;=%22$''>{6/|1.=vn/:cs=349^.=*0]:}1a[7{,<!e+",
"+%+2|-!['/|+8;3=q@$22|-8iln;===p=3$e+2&nq%4.@88f.$!/2.10'$*ic=bqc:g{.orq;41!  88%;q;#..2-1):~9!!2$+wuy3.psl=3.2; @!51k}:{7d>]^f%",
"%23 2 %^(:!|433482::!5444 3 =3b;=p34!+nyu 8.@b=&#/k#%-[[[0%;|%ic;^~,#3=i*= $1.k52%+fkf-$#1$1<$.!!!fpvBu8$3 8;=p3 84%-8.9~{d{(#.2",
" 0+%cm385'['^!a(0#:~~752%+ 8%$1.mqq8!%=uB2!!.=qc%8|%&&1!^^+ce&pi+%:7)8 *=qci3!]!+;%4e b3e.-46(0:~,[2lvo3%#/}3q=8e =b&c*.k{{,!k43",
"&.3mmm*2e9~>_,,<,'{{'',:1@-%|}#^=q=#$% lc)_64 ivv= &3= @@^&=.3q=8;0~70.2ospryo$;2%%-2;=p2% =9,'],,'''1.1-+3 wq2---cior38@^']}8ci",
"22*nq+#-@82;i;'dgd')!:'~($-%2-%-#;%$4%%k6~d0*lquwo3;bq= *-%8=;33f/^!7,5$=n3sxo33 $0^f-3*8+2./^!5:/#}(9)[}cqsA=..|&m=or*4-:!1@==3",
"1$;3q=.%*icbxr1([@=8!'',,k|;*cql2_! b .)''6}3nqll*+3&==3&#|bs2%2/|^'615f;&+-lrm #5:6/##;*.#$%42..88.e.0~~8q=xq3..;38 *88.043*&=+",
")8b==#.-3i*@b&$%3cn3e6,d7~k 3;3&;1*3*;.0$|24;3 =;$*=;% 8/08qs3c*^#0'$.k% ==28i3#_~<6::0&c%f+3= 4$%c=&2^~,04cb=b$$4%1/+%4**&3&%$:",
". ==&#|.-f/#.%.&c %@e!,,,7'k|!|22f8 $.|42;3;8#;m;^}e90.#)a8 @;;;#!:6$/$=mi&---5':6~>{d>@b@;;=sl=b33b8$:,d!;==3;-$#.e#$;3&=3;;$k0",
"3pq*8#4+* $#$8;%8 .1.2!'{dd>{{:]'!:(,'^%.23p3%84a~~,g{!^!/.e0f+85!1^k0 =b./|%-k!1#9~d[5)%.!%swvvb=f.28e:7]e8% &qo3e#1:^8ci &;222",
"*ll .$;;==833 b&3 }0.&8.:,],dj7)^}>>d,6#$|3q %42{(9:d[0^!k|8$e@)}|2%018;%.$ ;..1#..0(11.;3$;=oom&2#2%;+#7~'(')/43= .:<'';=33+%%4",
"2-8;/#+*3c mq.;%&@!#|3qq8(~,>{,%bi%1',,#.#8=pock,:!:,)1^[#282.2^a-$:5!18&$. ;/##.%%k6/@3c=284$a1%2p8-=b8k,{7hh{:@8 *.01/0e^(512%",
"002.).*3&8;qq&b ;-0@4.pq386:5:'%oo=*.(>| -;rxxq^>6'>,:}!08 ;%+%.-f1a:1..;;%  e^#|$:6{!;*3%.48{:@3+np4%28qe,~~_7~!#1.e|e$1}{g79e.",
"}2b35%*%f28*&& 8&+#22$;%@2%.k5:0mnlic|,#+4#8rl.:,,'}a00  4 8+ 88@|.^^..1f*+2%.1!!:<d_]k@%2f|5d)&38ic;.$mxl@1e^',,'(<:.|%|/~_,~:a",
"!%b4~^^)08+3oq3 ro&3+8b3c;b*ef901;= & '!& #1e510''cA=$#8*-f+c= %.$$1/f1^.+ --%$:5!59)(a2%3%'dd5% .8& .5=xr= ;2$({~(:8;==4#(h{~:!",
"1$c3f.!.0:$=vs==vv3;&b3&ll=b%%10k08 329] ;#-;|. &3wBw3 |.4-28882/k0a$#!'/-8e1f^9!00k1^e8%.kd_(2%;.k-$:9|nrnqb+ek,>~.lc3= 1>{d]00",
"=.%;2f00'#|@qr=43=%.%3*=sni88f8%4; ;&2>{.33&=*$3mqoyoq3@8%!'~!#|8.:1-%^#*;.^(}^[::#|1^$%-.#,,^ =3%5):^+$@=q=&;$9,':f=b/f2!a101-;",
"=*82;b3@d03@3p @pi.$%;;i=28;81;&3bc8 4(_#3qql;fe;m33bc%3 e~{':a%=4a.con 33*1a5!a,90|1^ =; 2[<#3=c$^^k2c81.q+;c4^{(:#c*/-223p %4 ",
"8;+&==qrf^..b3.2332@;8e11!(;32$cc3;; 8[_13pm=8e$#/..2@8c;1,d{!0^/12*=vvvlq=i*.1$[:5!}%3lil#!!23=4#11k# .f^ee+3 $d7kqq*f.@ osi;-.",
".e0;b3c82ef%3;8;.1:@4%/<{7_:3 1+*2%;;.<_. c=b8%2.1f.#.#8f97_,9>~0; ;*ivvyvl=&2k9~6!5^4 p=q!:}  .#$}f2;&|0^:1ql%^_d.qp2.%&2pnb*-1",
"##48;;$#k.;e.;3 .#$/@00'7dd]$;3.!f ; }>(f+qq=22%4&=v36:!5{d{[),<1*; 1e.mxrc;k!a],:9,]2q=  9'^&33;2#.22+;2:'%sv4(j{#ql&%&c%#i32@|",
"4BA3=q= f/@#$233* ;33e0:{7,6/ 3+fc&@^6,!#.=l*}1.+=nvi!:!'d{,))~')@&3f|f/15+*0a0',~],0=ob- ^'! =i&&%@*3*i=.2qqv='j:.3;**4 f}$%@-e",
"oHz=bor=*^0-8;4 b;-pq*..^':ae+8$;b*2}:,(::e1k9'/.3cm3;)')7,'!']:#%4-:e4%#&ic.|0'],{93qr3;i4k!a+nop3+&c3&&$|c=qp[d(e.$|1!$0% +;+4",
"qwl&clqmc#!523bc2##==+../:$$k 38. +2.k>dg>^^'6#.-.84bie9^$k00(:!@8%+&=+|3=i=31',,,>~@b=8.mpv&k8pmpm3;3&%.1!k%*%[7,,('~{~'0==i33b",
"e--%&3m3%+;$43  44@282-^[0 i2;lc1#/.2k~_7]0#:!#$1k$#@8/6^42+|')!k/$4&qq.+i4+f({{{~~7~^%.2;=s= -%=qm .e.$9(,:10a6,'~dj7{>>}=== @%",
"1k5k;* /23 ;-f'.bi3 ;b%f^-&qsmm8f8 f8@~{<'5$/:!5!6,<!/$!!/$%3@##&5h6fmp@/|32!{7~[)!]77'1 myn% 8@=qm .!9~{~]<:~,>:!(d_d,[':-+&2$e",
".8f',,0|/3*e)[~%==33plc;#f.;q .. b3f =#7[6<)'dd'',d~^$e^!#//;vn3ck,d!#.$ bi4~7{'!..21,{!%=snbf0k2 =lo3#><<:',{7,)^!~{{'[<~a4=i-.",
" rq0}<1.k!a9!'8*p= b&3c %k5$; @/mp&% = )[6~{,',<'('~!#55k#8 &qpr=@257{518b&%'>'!.@;l=#,9!.qm=3.[98=ln=$'!$.17j7(!1$:{(!)~{'$3&.%",
"boq$/%-0f%e$#58pq=3=;;3=3#0+**cb% ;;;&%e.$5>!.$:^01!,':}$%i=c  +2 *25{{<kk#0d,~(-%&qq31,d(^2 *81]-8*;8kak;&;)d{'!#e0'~)(>d{6-e/3",
" =2283i2=c@;8|41 b3;.%qw=;)288ii 3 3c+@+8@|^2 &&38|0'5^#@ im3b  .=b;|],{,<~_h7]#%2.+384$]d>^|.f/@=&.8*$k/ cb*f:>6/.20'~~{d{,]]5 ",
"33*i=oo icf=b%%1#3;-+=ACp.!|+.* 4pc;qr.2--2.@83==%@0[5$.b=3qpbso;+;8a~~~{{>>>^ b*21!!+%+!,:}0!0.;i3i+8!1$#$ ++8}d!f-$]]'~{<[]{9*",
"%4&;3q=%2@e *%2#@&; &rww+:: q ;*|no*3c./|+32!;qi3+;e5>|2=l8@cqnq&8$$a'''{~:}e;;3*2a)@*=&/~[!!!^$2;mq.9[k.& bi +%|9[!6>~<>{':]d~$",
",~''f2.@28@0/.#--2@84ip;f40.son=;  ;8.^2;*p%1+b=ql38#7' =@&iqqmp81e;.15':-%8 +3lb!$433p30]~(90k#f8oo;@c=qn3*===q%%0(]{g{~7{{7dd{",
"@!{_'^14%4;%9'12-#f*;c3;34& +osb== &4!02+-%-1. nqm=b2,: bl3isr;;|/4=b2.}/+8+%/4xn0eci +%.#:,~''!5$qlqlcbqm}[|bvv+-|!~,d,'~{{{,'$",
"@/5{{:f..+mm2$.;;!.;3=3;=88-3q=;*b88 8!$#1#.8|1**%3b;6@%&l&2=3%@/@- *.2.8;%f9d|li.&qmp&;qc.[,d7](13lq=3+80{~,'@=82.$5],{<{(<,)k.",
".@0:<6$@.$*=3c33&!^2bc+@;.6k432.|##; ;@@..$;*c.[-023.)+4  $#i+ 3;.}2@.-f; ff#}@3;2;oos383%1^:{_]'!iq;*38#9,['{'0c=-8-a:~>'!!{!##",
"&3%|0]ae/>52; c+.8##3 .k;=1,^--e1ka$2+%&822433;':^k09);*c /&rr .^]'!.8*%.2-|2%2+&b^.sv;.%.$})[{>70&c& ;+$[][[{7|qlcm&#$:,[}!d>!|",
"83;fe!<({_d6!'9'%;-lq@.@i=e}&82$f#$%*..3&..$; 8))^^$.^;433=orp2!:(:.|^;3%  &c3 -c8[}=30%88p@:5],~[2;3==i8<~,~:'}prpro4!~~(![]''!",
"%  3.e^e$9'1-@:_2=*qn-123= $=bf.@.#%32^*2%8% mqc|/028#3&. iql8::^1|$6]!$8;2%b& 8p*:~]|8.@8=8''~6![##8==c;!77{6(~03iqw&7{,]<<())$",
"qlb32#f%8.2pvx [;xq  #$3==3.  |e21:%lb1.2$2%=wuHu^^8  #%2f#2c -42%|5]d(a%84%.2%=lq1'}!k!.& 1~<'^^'<51*pm3:d_7,]{:;383@)>_><6(#43",
"yy $$k/fe#2ioo 5%oty.a@pi342@@.%.^'#rl3 8-0;&qwIv/$$8*@!2.|4 3;%.$9{{{6k@8.;%^;nwo^e;+. 4;.'~{'e#001#qsli9~~ddd_9 3f.*3}'[::^f3m",
"qr*@6--#48}#;3i@)qBu+5f;%^}8+;2; @:^boq48++i3 qo*@.@%=i'!@.28@.#^:JK_,!#2-f8i3.3so/+* 4%$:(~,,!2+2#1f3q3;0)[<',g0.41a;i-}1k. f+b",
"38.11%28p=.02*=|~&sq&e}06[!8cmp3i.9!f *4+=3%@!4 33;283%:79-i340k![>_~(2;+8k2xre1.2a#.@8.}'']~5#% 8k.|1% 4!)9'(]d[@2$52%$!k&qcp8+",
".0}0#|8boq;#@%2~_$&33k']~{~a%loow%!!0%&3qlb.1'|mnl32+3.!({'$b&-$0:,{~5b&+%.$qm^&c*9188$#^'<>:$%+2#1@-0)0}5!!:'~~{0f^/8+&10qlsBv.",
"$@+@24+svq4b+%ahd5.@}9a}5<{d, nor.0}a;;;so&-#!8b=&+.28 @}~{]fb+%#5,{,9=3;3=%-%#qo;k%;%0!6'~{~3vp/$;+%.@$#0)::6~~:8%!/#+=*f%bwwo;",
"/fi*%%;mm2b=i3/d_]^:<:!!5',d'3=b*:!}/%+2==2||^b=&+a0f+= 1>>,[)@*-!dd>~#  =li.!!cbf%= |!~,{{{:rv=2* ;8@;  432/0[<}4%e1-3=3..8&33+",
"5|& .-=m;3bb==1__,,~{{~a!::'!3 e/!6).-8;8;.@.=r=+15.2;;/({77d(~[@1'7>,d'-== ${' ;8;;$!:>dd<(|lx3p3;%0)28 =rsmc8.&lq&+=sq3*$.#1/9",
"#;i ||+i8=3%%1~_~~,7[~7)9}k0# 4..a!!;% p3@!1=ss=0:[$%+8#~d_7d[<'}0!:a'{~0i=8|[!)2b*.:!!<{~['#i*;=88a6.c3/|xoo33=pnol%;rqb3 81}^a",
"+qp&$0@33i$:a[,7,~d,:',{6$#!2;b2k./k2%;=qq$0iss%0#e-8.f/^(],',''~)#^09:9!*++8#}^%c 0:^^'{(6(:0/4b3%~:- 31!4=; ;b3*=;.;@$+ ;4e^..",
"qr=@^!e;&c8<]~:59,,_{{{_{!09-;p=1.%&; 3=lp@!a9#8;f^^f^#2*-[9#:'([^$#/6!}<0.3s&$0^2+f|$9>{'(()!/2 ;6k/f..#0!1$3809#;+  %:/#.001;3",
"os3^a#e12qq-''!}0^}{,d_dd~(!k.;%.#&qq&cb=*k:}:^@8|55518nu*50.k0'!e@+@1^!,{!pu=%f#.f...!,_d,'['6$3c.3m+qp.9,_]##|+c3 8%a~,>,d>k;i",
";&%a;8/f*=c8!6!e.$f:~~d{>7,5::^$2; 3332e0):1^$%22e-3 +%3Aq%8=3%0ke-*3*;.)j~@uv-..%2##a(d_~~'~_g,.b*3nrx= /a]9$;&pl=8#6~]'~gd,5|%",
"}.2;3;.8;;;^~:#-.;%a):~{{>{,,>6#0233mq=3%4ii.ci48-k4;;%9$38lnq38++%*=b ./']!bv3$1+8e@9><5!)!!<_d>!!|2 +%33c@k8*333%/5,7(:(7'9k/}",
"*3=3 ;%2@ ;^5f*.@i%%4.a']>{{_7{(6<1-cqsoi;c& nl2 8/#$2.}0;coo==;$|833&b+%!7,+o=|8&2;3!{'5!:^^(7]67{,,~(:; c2^5@8e-1!,,{'::]0//.;",
"qq=b%88-3qm;.;c8.+e48 -a6,>,{{>{~,,,0osob%8f-i;+qo%0. 3;=c b3==8da&o==m8%!>_!&ci=l=3%9<>'[)0!,,)!,{___d'5:556{65!5!',,7,a05!1/@p",
"=+  //.2cb=&+388;.'}|8|a:,][k'7,<:'_,8+%#$2#^k.8lr*03c.b= ^'/; 1_6 q=38-.!~{~'f +8c8^015]<(!)~7'(~>'^)10}.e!]],{~a)(<>d>)}[]59/3"};
