/* XPM */ 
static char * blue_squares_xpm[] = { 
"91 91 7 1", 
"     c #41BAFF", 
".    c #140A4D", 
"+    c #000000", 
"@    c #2A76BD", 
"#    c #0D3357", 
"$    c #551B94", 
"%    c #40146F", 
"                                                                                           ", 
" ............................................+............................................ ", 
" ...........................................@++........................................... ", 
" ..........................................@@#++.......................................... ", 
" .........................................@@###++......................................... ", 
" ........................................@@#####++........................................ ", 
" .......................................@@#######++....................................... ", 
" ......................................@@#########++...................................... ", 
" .....................................@@###########++..................................... ", 
" ....................................@@#############++.................................... ", 
" ...................................@@###############++................................... ", 
" ..................................@@#################++.................................. ", 
" .................................@@###################++................................. ",
" ................................@@#####################++................................ ", 
" ...............................@@#######################++............................... ", 
" ..............................@@#########################++.............................. ", 
" .............................@@###########################++............................. ", 
" .......$$$$$$$$$$$$$$$$$$$$$@@#############################+++++++++++++++++++++++....... ", 
" .......$%%%%%%%%%%%%%%%%%%%@@###############################++%%%%%%%%%%%%%%%%%%%+....... ", 
" .......$%%%%%%%%%%%%%%%%%%@@#################################++%%%%%%%%%%%%%%%%%%+....... ", 
" .......$%%%%%%%%%%%%%%%%%@@###################################++%%%%%%%%%%%%%%%%%+....... ", 
" .......$%%%%%%%%%%%%%%%%@@#####################################++%%%%%%%%%%%%%%%%+....... ", 
" .......$%%%%%%%%%%%%%%%@@#######################################++%%%%%%%%%%%%%%%+....... ", 
" .......$%%%%%%%%%%%%%%@@####################+####################++%%%%%%%%%%%%%%+....... ", 
" .......$%%%%%%%%%%%%%@@####################++@####################++%%%%%%%%%%%%%+....... ", 
" .......$%%%%%%%%%%%%@@####################++#@@####################++%%%%%%%%%%%%+....... ", 
" .......$%%%%%%%%%%%@@####################++###@@####################++%%%%%%%%%%%+....... ", 
" .......$%%%%%%%%%%@@####################++#####@@####################++%%%%%%%%%%+....... ", 
" .......$%%%%%%%%%@@####################++#######@@####################++%%%%%%%%%+....... ", 
" .......$%%%%%%%%@@####################++#########@@####################++%%%%%%%%+....... ", 
" .......$%%%%%%%@@####################++###########@@####################++%%%%%%%+....... ", 
" .......$%%%%%%@@####################++#############@@####################++%%%%%%+....... ", 
" .......$%%%%%@@####################++###############@@####################++%%%%%+....... ", 
" .......$%%%%@@####################++#################@@####################++%%%%+....... ", 
" .......$%%%@@####################++###################@@####################++%%%+....... ", 
" .......$%%@@####################++#####################@@####################++%%+....... ", 
" .......$%@@####################++#######################@@####################++%+....... ", 
" .......$@@####################++#########################@@####################+++....... ", 
" .......@@####################++###########################@@####################++....... ", 
" ......@@####################++#############################@@####################++...... ", 
" .....@@####################++#########++++++++++++++########@@####################++..... ", 
" ....@@####################++##########+%%%%%%%%%%%%+#########@@####################++.... ", 
" ...@@####################++###########+%%%%%%%%%%%%+##########@@####################++... ", 
" ..@@####################++############+%%%%%%%%%%%%+###########@@####################++.. ", 
" .@@####################++#############+%%%%%%%%%%%%+############@@####################++. ", 
" @@####################++##############+%%%%%%%%%%%%+#############@@####################++ ", 
" .@@####################++#############+%%%%%%%%%%%%+############@@####################++. ", 
" ..@@####################++############+%%%%%%%%%%%%+###########@@####################++.. ", 
" ...@@####################++###########+%%%%%%%%%%%%+##########@@####################++... ", 
" ....@@####################++##########+%%%%%%%%%%%%+#########@@####################++.... ", 
" .....@@####################++#########+%%%%%%%%%%%%+########@@####################++..... ", 
" ......@@####################++########++++++++++++++#######@@####################++...... ", 
" .......@@####################++###########################@@####################++....... ", 
" .......$@@####################++#########################@@####################+++....... ", 
" .......$%@@####################++#######################@@####################++%+....... ", 
" .......$%%@@####################++#####################@@####################++%%+....... ", 
" .......$%%%@@####################++###################@@####################++%%%+....... ", 
" .......$%%%%@@####################++#################@@####################++%%%%+....... ", 
" .......$%%%%%@@####################++###############@@####################++%%%%%+....... ", 
" .......$%%%%%%@@####################++#############@@####################++%%%%%%+....... ", 
" .......$%%%%%%%@@####################++###########@@####################++%%%%%%%+....... ", 
" .......$%%%%%%%%@@####################++#########@@####################++%%%%%%%%+....... ", 
" .......$%%%%%%%%%@@####################++#######@@####################++%%%%%%%%%+....... ", 
" .......$%%%%%%%%%%@@####################++#####@@####################++%%%%%%%%%%+....... ", 
" .......$%%%%%%%%%%%@@####################++###@@####################++%%%%%%%%%%%+....... ", 
" .......$%%%%%%%%%%%%@@####################++#@@####################++%%%%%%%%%%%%+....... ", 
" .......$%%%%%%%%%%%%%@@####################+@@####################++%%%%%%%%%%%%%+....... ", 
" .......$%%%%%%%%%%%%%%@@####################@####################++%%%%%%%%%%%%%%+....... ", 
" .......$%%%%%%%%%%%%%%%@@#######################################++%%%%%%%%%%%%%%%+....... ", 
" .......$%%%%%%%%%%%%%%%%@@#####################################++%%%%%%%%%%%%%%%%+....... ", 
" .......$%%%%%%%%%%%%%%%%%@@###################################++%%%%%%%%%%%%%%%%%+....... ", 
" .......$%%%%%%%%%%%%%%%%%%@@#################################++%%%%%%%%%%%%%%%%%%+....... ", 
" .......$%%%%%%%%%%%%%%%%%%%@@###############################++%%%%%%%%%%%%%%%%%%%+....... ", 
" .......$$$$$$$$$$$$$$$$$$$$$@@#############################+++++++++++++++++++++++....... ", 
" .............................@@###########################++............................. ", 
" ..............................@@#########################++.............................. ", 
" ...............................@@#######################++............................... ", 
" ................................@@#####################++................................ ",
" .................................@@###################++................................. ", 
" ..................................@@#################++.................................. ", 
" ...................................@@###############++................................... ", 
" ....................................@@#############++.................................... ", 
" .....................................@@###########++..................................... ", 
" ......................................@@#########++...................................... ", 
" .......................................@@#######++....................................... ", 
" ........................................@@#####++........................................ ", 
" .........................................@@###++......................................... ", 
" ..........................................@@#++.......................................... ", 
" ...........................................@@+........................................... ", 
" ............................................@............................................ ", 
"                                                                                           "};
