/* XPM */
static char * boxed_layer_xpm[] = {
"90 90 7 1",
"     c #4B4F4A",
".    c #000000",
"+    c #3A3E39",
"@    c #242623",
"#    c #585E57",
"$    c #464A45",
"%    c #010201",
"                                 ..++++++@@@@@@@@@@@@@@@@@@@@@@@@@@@@@@@@@@@@@@@@@@@@@@@@@",
"                                 ..++++++@@@@@@@@@@@@@@@@@@@@@@@@@@@@@@@@@@@@@@@@@@@@@@@..",
"#  #  #  #  #  #  #  #  #  #  #  ..++++++@@+++++++++++++++++++++++++++++++++++++++++++++..",
"                                 ..++++++@@+++++++++++++++++++++++++++++++++++++++++++++..",
"                                 ..++++++@@+++++++++++++++++++++++++++++++++++++++++++++..",
"#  #  #  #  #  #  #  #  #  #  #  ..++++++@@+++++++++++++++++++++++++++++++++++++++++++++..",
"                                 ..++++++@@+++++++++++++++++++++++++++++++++++++++++++++..",
"                                 ..++++++@@+++++++++++++++++++++++++++++++++++++++++++++..",
"#  #  #  #  #  #  #  #  #  #  #  ..++++++@@.......................................++++++..",
"                                 ..++++++@@......................................$++++++..",
"                                 ..++++++@@                                     $$++++++..",
"#  #  #  #  #  #  #  #  #  #  #  ..++++++@@                                     $$++++++..",
"                                 ..++++++@@  #  #  #  #  #  #  #  #  #  #  #  # $$++++++..",
"                                 ..++++++@@                                     $$++++++..",
"#  #  #  #  #  #  #  #  #  #  #  ..++++++@@                                     $$++++++..",
"                                 ..++++++@@  #  #  #  #  #  #  #  #  #  #  #  # $$++++++..",
"                                 ..++++++@@                                     $$++++++..",
"#  #  #  #  #  #  #  #  #  #  #  ..++++++@@                                     $$++++++..",
"                                 ..++++++@@  #  #  #  #  #  #  #  #  #  #  #  # $$++++++..",
"                                 ..++++++@@                                     $$++++++..",
"#  #  #  #  #  #  #  #  #  #  #  ..++++++@@                                     $$++++++..",
"                                 ..++++++@@  #  #  #  #  #  #  #  #  #  #  #  # $$++++++..",
"                                 ..++++++@@                                     $$++++++..",
"#  #  #  #  #  #  #  #  #  #  #  ..++++++@@                                     $$++++++..",
"                                 ..++++++@@  #  #  #  #  #  #  #  #  #  #  #  # $$++++++..",
"                                 ..++++++@@                                     $$++++++..",
"#  #  #  #  #  #  #  #  #  #  #  ..++++++@@                                     $$++++++..",
"                                 ..++++++@@  #  #  #  #  #  #  #  #  #  #  #  # $$++++++..",
"                                 ..++++++@@                                     $$++++++..",
"#  #  #  #  #  #  #  #  #  #  #  ..++++++@@                                     $$++++++..",
"                                 ..++++++@@  #  #  #  #  #  #  #  #  #  #  #  # $$++++++..",
"                                 ..++++++@@                                     $$++++++..",
"...................................++++++@@                                     $$++++++..",
"...................................++++++@@  #  #  #  #  #  #  #  #  #  #  #  # $$++++++..",
"+++++++++++++++++++++++++++++++++++++++++@@                                     $$++++++..",
"+++++++++++++++++++++++++++++++++++++++++@@                                     $$++++++..",
"+++++++++++++++++++++++++++++++++++++++++@@  #  #  #  #  #  #  #  #  #  #  #  # $$++++++..",
"+++++++++++++++++++++++++++++++++++++++++@@                                     $$++++++..",
"+++++++++++++++++++++++++++++++++++++++++@@                                     $$++++++..",
"+++++++++++++++++++++++++++++++++++++++++@@  #  #  #  #  #  #  #  #  #  #  #  # $$++++++..",
"@@@@@@@@@@@@@@@@@@@@@@@@@@@@@@@@@@@@@@@@@@@                                     $$++++++..",
"@@@@@@@@@@@@@@@@@@@@@@@@@@@@@@@@@@@@@@@@@@@                                     $$++++++..",
"@@++++++..  #  #  #  #  #  #  #  #  #  #  #  #  #  #  #  #  #  #  #  #  #  #  # $$++++++..",
"@@++++++..                                                                      $$++++++..",
"@@++++++..                                                                      $$++++++..",
"@@++++++..  #  #  #  #  #  #  #  #  #  #  #  %%%%%%%%%%%%%%%%%%%%%%%%%%%%%%%%%%%%%%%%%%%%%",
"@@++++++..                                   .............................................",
"@@++++++..                                   ..+++++++++++++++++++++++++++++++++++++++++++",
"@@++++++..  #  #  #  #  #  #  #  #  #  #  #  ..+++++++++++++++++++++++++++++++++++++++++++",
"@@++++++..                                   ..+++++++++++++++++++++++++++++++++++++++++++",
"@@++++++..                                   ..+++++++++++++++++++++++++++++++++++++++++++",
"@@++++++..  #  #  #  #  #  #  #  #  #  #  #  ..+++++++++++++++++++++++++++++++++++++++++++",
"@@++++++..                                   ..+++++++++++++++++++++++++++++++++++++++++++",
"@@++++++..                                   ..++++++$$$$$$$$$$$$$$$$$$$$$$$$$$$$$$$$$$$$$",
"@@++++++..  #  #  #  #  #  #  #  #  #  #  #  ..++++++$$$$$$$$$$$$$$$$$$$$$$$$$$$$$$$$$$$$$",
"@@++++++..                                   ..++++++$$                                   ",
"@@++++++..                                   ..++++++$$ #  #  #  #  #  #  #  #  #  #  #  #",
"@@++++++..  #  #  #  #  #  #  #  #  #  #  #  ..++++++$$                                   ",
"@@++++++..                                   ..++++++$$                                   ",
"@@++++++..                                   ..++++++$$ #  #  #  #  #  #  #  #  #  #  #  #",
"@@++++++..  #  #  #  #  #  #  #  #  #  #  #  ..++++++$$                                   ",
"@@++++++..                                   ..++++++$$                                   ",
"@@++++++..                                   ..++++++$$ #  #  #  #  #  #  #  #  #  #  #  #",
"@@++++++..  #  #  #  #  #  #  #  #  #  #  #  ..++++++$$                                   ",
"@@++++++..                                   ..++++++$$                                   ",
"@@++++++..                                   ..++++++$$ #  #  #  #  #  #  #  #  #  #  #  #",
"@@++++++..  #  #  #  #  #  #  #  #  #  #  #  ..++++++$$                                   ",
"@@++++++..                                   ..++++++$$                                   ",
"@@++++++..                                   ..++++++$$ #  #  #  #  #  #  #  #  #  #  #  #",
"@@++++++..  #  #  #  #  #  #  #  #  #  #  #  ..++++++$$                                   ",
"@@++++++..                                   ..++++++$$                                   ",
"@@++++++..                                   ..++++++$$ #  #  #  #  #  #  #  #  #  #  #  #",
"@@++++++..  #  #  #  #  #  #  #  #  #  #  #  ..++++++$$                                   ",
"@@++++++..                                   ..++++++$$                                   ",
"@@++++++..                                   ..++++++$$ #  #  #  #  #  #  #  #  #  #  #  #",
"@@++++++..  #  #  #  #  #  #  #  #  #  #  #  ..++++++$$                                   ",
"@@++++++..                                   ..++++++$$                                   ",
"@@++++++..                                   ..++++++$$ #  #  #  #  #  #  #  #  #  #  #  #",
"@@++++++..  #  #  #  #  #  #  #  #  #  #  #  ..++++++$$                                   ",
"@@++++++..                                   ..++++++$$                                   ",
"@@++++++..$$$$$$$$$$$$$$$$$$$$$$$$$$$$$$$$$$$..++++++$$ #  #  #  #  #  #  #  #  #  #  #  #",
"@@++++++.$$$$$$$$$$$$$$$$$$$$$$$$$$$$$$$$$$$$..++++++$$                                   ",
"@@+++++++++++++++++++++++++++++++++++++++++++..++++++$$                                   ",
"@@+++++++++++++++++++++++++++++++++++++++++++..++++++$$ #  #  #  #  #  #  #  #  #  #  #  #",
"@@+++++++++++++++++++++++++++++++++++++++++++..++++++$$                                   ",
"@@+++++++++++++++++++++++++++++++++++++++++++..++++++$$                                   ",
"@@+++++++++++++++++++++++++++++++++++++++++++..++++++$$ #  #  #  #  #  #  #  #  #  #  #  #",
"@@+++++++++++++++++++++++++++++++++++++++++++..++++++$$                                   ",
"@@.............................................++++++$$                                   ",
"@%%%%%%%%%%%%%%%%%%%%%%%%%%%%%%%%%%%%%%%%%%%%..++++++$$ #  #  #  #  #  #  #  #  #  #  #  #"};
