/* XPM */
static char * metal_holes_xpm[] = {
"99 99 4 1",
"     c #B9B9B9",
".    c #8A8A8A",
"+    c #000000",
"@    c #D4D4D4",
"                                                                                                   ",
" ................................................................................................. ",
" .                                                                                               . ",
" . +++ @ +++ @ +++ @ +++@@@+++ @ +++ @ +++ @ +++ . +++ @ +++ @ +++ @ +++@@@+++ @ +++ @ +++ @ +++ . ",
" . +++ @ +++ @ +++ @ +++ @ +++ @ +++ @ +++ @ +++ @ +++ @ +++ @ +++ @ +++ @ +++ @ +++ @ +++ @ +++ . ",
" . +++ @ +++ @ +++ @ +++ @ +++ @ +++ @ +++ @ +++ . +++ @ +++ @ +++ @ +++ @ +++ @ +++ @ +++ @ +++ . ",
" . ..  @     @     @     @     @@    @     @@    . ..  @     @     @     @     @@    @     @@    . ",
" .    @@   @@@@   @@ @ @ @ ... @@@  @@ ... @@@  .@    @@   @@@@   @@ @ @ @ ... @@@  @@ ... @@@   . ",
" .     @ .   @     @     @     @     @     @     @     @ .   @     @     @     @     @     @     . ",
" . +++ @ +++ @ +++ @ +++ @ +++ @ +++ @ +++ @ +++ @ +++ @ +++ @ +++ @ +++ @ +++ @ +++ @ +++ @ +++ . ",
" . +++ @ +++ @ +++ @ +++ @ +++ @ +++ @ +++ @ +++ @ +++ @ +++ @ +++ @ +++ @ +++ @ +++ @ +++ @ +++ . ",
" . +++ . +++ @ +++ @ +++ @ +++ @ +++ @ +++ @ +++ @ +++ . +++ @ +++ @ +++ @ +++ @ +++ @ +++ @ +++ . ",
" .     .     @     @     .     @     @     @     @     .     @     @     .     @     @     @     . ",
" . ... @@@   @ ... @@@  ... @@@@ ... @  @@@@ ... @ ... @@@   @ ... @@@  ... @@@@ ... @  @@@@ ... . ",
" .     @@    @     @@    .     @     @     @     @     @@    @     @@    .     @     @     @     . ",
" . +++ @ +++ @ +++ @ +++ @ +++ @ +++ @ +++ @ +++ @ +++ @ +++ @ +++ @ +++ @ +++ @ +++ @ +++ @ +++ . ",
" . +++ @ +++ @ +++ @ +++ @ +++ @ +++ @ +++ @ +++ @ +++ @ +++ @ +++ @ +++ @ +++ @ +++ @ +++ @ +++ . ",
" . +++ @ +++ @ +++ @ +++ @ +++ @ +++ @ +++ @ +++ @ +++ @ +++ @ +++ @ +++ @ +++ @ +++ @ +++ @ +++ . ",
" .     @     @     @     .     @ .   @     @     @     @     @     @     .     @ .   @     @     . ",
" .    @@   @@@ .. @@  @ ... @ @@   @@@ .. @@@@ . .    @@   @@@ .. @@  @ ... @ @@   @@@ .. @@     . ",
" .     @ .   @     @     .     @     @     @     @     @ .   @     @     .     @     @     @     . ",
" . +++ @ +++ @ +++ @ +++ @ +++ @ +++ @ +++ @ +++ @ +++ @ +++ @ +++ @ +++ @ +++ @ +++ @ +++ @ +++ . ",
" . +++ @ +++ @ +++ @ +++ @ +++ @ +++ @ +++ @ +++ @ +++ @ +++ @ +++ @ +++ @ +++ @ +++ @ +++ @ +++ . ",
" . +++ @ +++ @ +++ @ +++ @ +++ @ +++ @ +++ @ +++ @ +++ @ +++ @ +++ @ +++ @ +++ @ +++ @ +++ @ +++ . ",
" .     @     @     @     @     @@    @     @@    @     @     @     @     @     @@    @     @@    . ",
" .  @@@@ ... @  @@@@ ... @ ... @@@   @ ... @@@   @  @@@@ ... @  @@@@ ... @ ... @@@   @ ... @@@   . ",
" .     @     @     @     @     @     @     @     @     @     @     @     @     @     @     @     . ",
" . +++ @ +++ @ +++ @ +++ @ +++ @ +++ @ +++ @ +++ @ +++ @ +++ @ +++ @ +++ @ +++ @ +++ @ +++ @ +++ . ",
" . +++ @ +++ @ +++ @ +++ @ +++ @ +++ @ +++ @ +++ @ +++ @ +++ @ +++ @ +++ @ +++ @ +++ @ +++ @ +++ . ",
" . +++ @ +++ @ +++ @ +++ @ +++ @ +++ @ +++ @ +++ @ +++ @ +++ @ +++ @ +++ @ +++ @ +++ @ +++ @ +++ . ",
" .     @     @     @     @     @ .   @     @     @     @     @     @     @     @ .   @     @     . ",
" . ... @@@  @@ ... @@@   @    @@   @@@@   @@  @@@@ ... @@@  @@ ... @@@   @    @@   @@@@   @@     . ",
" .     @@    @     @@    @ ..  @     @     @     @     @@    @     @@    @ ..  @     @     @     . ",
" . +++ @ +++ @ +++ @ +++ @ +++ @ +++ @ +++ @ +++ @ +++ @ +++ @ +++ @ +++ @ +++ @ +++ @ +++ @ +++ . ",
" . +++ @ +++ @ +++ @ +++ . +++ @ +++ @ +++ @ +++ @ +++ @ +++ @ +++ @ +++ . +++ @ +++ @ +++ @ +++ . ",
" . +++ @ +++ @ +++ @ +++...+++ @ +++ @ +++ @ +++ @ +++ @ +++ @ +++ @ +++...+++ @ +++ @ +++ @ +++ . ",
" . ..  @     .     @     @     @@    @     @@    @ ..  @     .     @     @     @@    @     @@    . ",
" .  @ @@   @... @ @@ @ @ @ ... @@@  @@ ... @@@   @  @ @@   @... @ @@ @ @ @ ... @@@  @@ ... @@@   . ",
" .     @ .   .     @     @     @     @     @     @     @ .   .     @     @     @     @     @     . ",
" . +++ @ +++ @ +++ @ +++ @ +++ @ +++ @ +++ @ +++ @ +++ @ +++ @ +++ @ +++ @ +++ @ +++ @ +++ @ +++ . ",
" . +++ @ +++ @ +++ @ +++ @ +++ @ +++ @ +++ @ +++ @ +++ @ +++ @ +++ @ +++ @ +++ @ +++ @ +++ @ +++ . ",
" . +++ . +++ @ +++ @ +++ @ +++ @ +++ @ +++ @ +++ @ +++ . +++ @ +++ @ +++ @ +++ @ +++ @ +++ @ +++ . ",
" .     .     @     @     @     @     @     @     @     .     @     @     @     @     @     @     . ",
" . ... .@@   @ ... @@@   @  @@@@ ... @  @@@@ ... @ ... .@@   @ ... @@@   @  @@@@ ... @  @@@@ ... . ",
" .     @@    @     @@    @     @     @     @     @     @@    @     @@    @     @     @     @     . ",
" . +++ @ +++ @ +++ @ +++ @ +++ @ +++ @ +++ @ +++ @ +++ @ +++ @ +++ @ +++ @ +++ @ +++ @ +++ @ +++ . ",
" . +++ @ +++ @ +++ @ +++ @ +++ @ +++ @ +++ @ +++ @ +++ @ +++ @ +++ @ +++ @ +++ @ +++ @ +++ @ +++ . ",
" . +++ @ +++ @ +++ @ +++ @ +++ @ +++ @ +++ @ +++ @ +++ @ +++ @ +++ @ +++ @ +++ @ +++ @ +++ @ +++ . ",
" .     @     @     @     @     @ .   @     @     @     @     @     @     @     @ .   @     @     . ",
" . @@ @@   @@@ .. @@  @  @  @ @@   @@@ .. @@     @ @@ @@   @@@ .. @@  @  @  @ @@   @@@ .. @@     . ",
" .     @ .   @     @     @     @     @     @     @     @ .   @     @     @     @     @     @     . ",
" . +++ @ +++ @ +++ @ +++ @ +++ @ +++ @ +++ @ +++ @ +++ @ +++ @ +++ @ +++ @ +++ @ +++ @ +++ @ +++ . ",
" . +++ @ +++ @ +++ @ +++ @ +++ @ +++ @ +++ @ +++ @ +++ @ +++ @ +++ @ +++ @ +++ @ +++ @ +++ @ +++ . ",
" . +++ @ +++ @ +++ @ +++ @ +++ @ +++ @ +++ @ +++ @ +++ @ +++ @ +++ @ +++ @ +++ @ +++ @ +++ @ +++ . ",
" .     @     @     @     @     @@    @     @@    @     @     @     @     @     @@    @     @@    . ",
" . .@@@@ ... @  @@@@ ... @ ... @@@   @ ... @@@   @ .@@@@ ... @  @@@@ ... @ ... @@@   @ ... @@@   . ",
" .     @     @     @     @     @     @     @     @     @     @     @     @     @     @     @     . ",
" . +++ @ +++ @ +++ @ +++ @ +++ @ +++ @ +++ @ +++ @ +++ @ +++ @ +++ @ +++ @ +++ @ +++ @ +++ @ +++ . ",
" . +++ @ +++ @ +++ @ +++ @ +++ @ +++ @ +++ @ +++ @ +++ @ +++ @ +++ @ +++ @ +++ @ +++ @ +++ @ +++ . ",
" . +++ @ +++ @ +++ @ +++ @ +++ @ +++ @ +++ @ +++ @ +++ @ +++ @ +++ @ +++ @ +++ @ +++ @ +++ @ +++ . ",
" .     @     @     @    .@     @ .   @     @     @     @     @     @    .@     @ .   @     @     . ",
" . ... @@@  @@ ... @@@ ..@    @@   @@@@   @@  @@@@ ... @@@  @@ ... @@@ ..@    @@   @@@@   @@     . ",
" .     @@    @     @@    @ ..  @     @     @     @     @@    @     @@    @ ..  @     @     @     . ",
" . +++ @ +++ @ +++ @ +++ @ +++ @ +++ @ +++ @ +++ @ +++ @ +++ @ +++ @ +++ @ +++ @ +++ @ +++ @ +++ . ",
" . +++ @ +++ @ +++ @ +++ . +++ @ +++ @ +++ @ +++ @ +++ @ +++ @ +++ @ +++ . +++ @ +++ @ +++ @ +++ . ",
" . +++ @ +++ @ +++ @ +++...+++ @ +++ @ +++ @ +++ @ +++ @ +++ @ +++ @ +++...+++ @ +++ @ +++ @ +++ . ",
" .   @ @     @     @     @     @     @     @ @   @   @ @     @     @     @     @     @     @ @   . ",
" .   @@@  .  @ .....     @  .. @ @@@@@ . . @ @@@ @@  @@@  .  @ .....     @  .. @ @@@@@ . . @ @@@ . ",
" .     @     @     @ ... @     @   @@@     @     @     @     @     @ ... @     @   @@@     @     . ",
" . +++ @ +++ @ +++ @ +++ @ +++ @ +++ @ +++ . +++ @ +++ @ +++ @ +++ @ +++ @ +++ @ +++ @ +++ . +++ . ",
" . +++ @ +++ @ +++ @ +++ @ +++ . +++ @ +++ . +++ @ +++ @ +++ @ +++ @ +++ @ +++ . +++ @ +++ . +++ . ",
" . +++ @ +++ @ +++ @ +++ @ +++ @ +++ @ +++ . +++ @ +++ @ +++ @ +++ @ +++ @ +++ @ +++ @ +++ . +++ . ",
" .     @     @     @     @     .     .     @     @     @     @     @     @     .     .     @     . ",
" .  @@@@ @ @ @ ... @  @@@@@@   @@@   @  @ .@.    @  @@@@ @ @ @ ... @  @@@@@@   @@@   @  @ .@.    . ",
" .     @     @     @     @     @     @     @     @     @     @     @     @     @     @     @     . ",
" . +++ @ +++ @ +++ . +++ @ +++ @ +++ @ +++ @ +++ @ +++ @ +++ @ +++ . +++ @ +++ @ +++ @ +++ @ +++ . ",
" . +++ @ +++ @ +++ . +++ @ +++ @ +++ @ +++ @ +++ @ +++ @ +++ @ +++ . +++ @ +++ @ +++ @ +++ @ +++ . ",
" . +++ @ +++ @ +++ . +++ @ +++ @ +++ @ +++ @ +++ @ +++ @ +++ @ +++ . +++ @ +++ @ +++ @ +++ @ +++ . ",
" .     @     @     @     @     @     @  .. @     .     @     @     @     @     @     @  .. @     . ",
" .  @@ @ @@  @@.@.@@ ... @ ... @  .. @ ..  @    ... @@ @ @@  @@.@.@@ ... @ ... @  .. @ ..  @     . ",
" .   @@@     @     @     @     .     @     @     .   @@@     @     @     @     .     @     @     . ",
" . +++ @ +++ @ +++ @ +++ @ +++ . +++ @ +++ @ +++ @ +++ @ +++ @ +++ @ +++ @ +++ . +++ @ +++ @ +++ . ",
" . +++ @ +++ @ +++ @ +++ @ +++ . +++ @ +++ @ +++ @ +++ @ +++ @ +++ @ +++ @ +++ . +++ @ +++ @ +++ . ",
" . +++ @ +++ @ +++ @ +++ @ +++ @ +++ @ +++ @ +++ @ +++ @ +++ @ +++ @ +++ @ +++ @ +++ @ +++ @ +++ . ",
" .     @     .     @     @     @     @     @     .     @     .     @     @     @     @     @     . ",
" .  @@@@@@@@...@@@@@.@.@.@@@@@@@@@@@@@@@@@@.@@  ... @@@@@@@@...@@@@@.@.@.@@@@@@@@@@@@@@@@@@.@@   . ",
" .     @     .     @     @     @     @     @     .     @     .     @     @     @     @     @     . ",
" . +++ @ +++ @ +++ @ +++ @ +++ @ +++ @ +++ @ +++ @ +++ @ +++ @ +++ @ +++ @ +++ @ +++ @ +++ @ +++ . ",
" . +++ @ +++ @ +++ @ +++ @ +++ @ +++ @ +++ @ +++ @ +++ @ +++ @ +++ @ +++ @ +++ @ +++ @ +++ @ +++ . ",
" . +++ @ +++ @ +++ @ +++ @ +++ @ +++ @ +++ @ +++ @ +++ @ +++ @ +++ @ +++ @ +++ @ +++ @ +++ @ +++ . ",
" .     @     @     @     @     .     @     @   @ @     @     @     @     @     .     @     @   @ . ",
" .  @@ @ @ @@@  @  @  @  @ @@@.. @ @ @  @@@.@@ . @  @@ @ @ @@@  @  @  @  @ @@@.. @ @ @  @@@.@@ . . ",
" .   @@@     @     @     @     .     @     @@    @   @@@     @     @     @     .     @     @@    . ",
" . +++ @ +++ @ +++ @ +++ @ +++ @ +++ @ +++ @ +++ @ +++ @ +++ @ +++ @ +++ @ +++ @ +++ @ +++ @ +++ . ",
" . +++ @ +++ @ +++ @ +++ @ +++ @ +++ @ +++@@ +++ @ +++ @ +++ @ +++ @ +++ @ +++ @ +++ @ +++@@ +++ . ",
" . +++ @ +++ @ +++ @ +++ @ +++ @ +++ @ +++ @ +++ . +++ @ +++ @ +++ @ +++ @ +++ @ +++ @ +++ @ +++ . ",
" .                                                                                               . ",
" ................................................................................................. ",
"                                                                                                   "};


