/* XPM */
static char * Fpexit_s_xpm[] = {
"24 24 7 1",
" 	c None",
".	c #CCCCCC",
"+	c #666666",
"@	c #333333",
"#	c #FFFFFF",
"$	c #000000",
"%	c #525252",
"                        ",
"                        ",
"                        ",
"                        ",
"                        ",
"                        ",
"                        ",
"                        ",
"........................",
".+++++++++++++++++++++@#",
".+....................@#",
".+.$$$$$.$....$.$+$$$%@#",
".+.$......$..$..$..$..@#",
".+.$......$..$..$..$..@#",
".+.$.......@@...$..$..@#",
".+.$$$$$...$$...$..$..@#",
".+.$.......$$...$..$..@#",
".+.$.......@@...$..$..@#",
".+.$......$..$..$..$..@#",
".+.$......$..$..$..$..@#",
".+.$$$$$.$....$.$..$..@#",
".+....................@#",
".+@@@@@@@@@@@@@@@@@@@@@#",
".#######################"};
