/* XPM */
static char * Fpexit_s_xpm[] = {
"24 24 36 1",
" 	c None",
".	c #666666",
"+	c #CCCCCC",
"@	c #595959",
"#	c #FFFFFF",
"$	c #000000",
"%	c #A0A0A0",
"&	c #1C1C1C",
"*	c #B0B0B0",
"=	c #424242",
"-	c #999999",
";	c #333333",
">	c #515151",
",	c #272727",
"'	c #171717",
")	c #A4A4A4",
"!	c #3C3C3C",
"~	c #B8B8B8",
"{	c #B4B4B4",
"]	c #020202",
"^	c #727272",
"/	c #B9B9B9",
"(	c #0B0B0B",
"_	c #444444",
":	c #282828",
"<	c #D6D6D6",
"[	c #262626",
"}	c #909090",
"|	c #AEAEAE",
"1	c #C9C9C9",
"2	c #0C0C0C",
"3	c #D5D5D5",
"4	c #858585",
"5	c #6A6A6A",
"6	c #818181",
"7	c #303030",
"                        ",
"                        ",
"                        ",
"                        ",
"                        ",
"                        ",
"........................",
".+++++++++++++++++++++@#",
".+++++++++++++++++++++@#",
".+$$$$$$%&+++*=$-;$$$@@#",
".+$++++++>@++,+$+++$++@#",
".+$+++++++')!~+$+++$++@#",
".+$$$$$+++{]^++$+++$++@#",
".+$+++++++/(_++$+++$++@#",
".+$+++++++:<[}+$+++$++@#",
".+$++++++_|+123$+++$++@#",
".+$$$$$$45+++67$+++$++@#",
".+++++++++++++++++++++@#",
".+++++++++++++++++++++@#",
".@@@@@@@@@@@@@@@@@@@@@@#",
"########################",
"                        ",
"                        ",
"                        "};
