/* XPM */
static char * Fplock_s_xpm[] = {
"24 24 7 1",
" 	c None",
".	c #CCCCCC",
"+	c #333333",
"@	c #FFFFFF",
"#	c #999999",
"$	c #000000",
"%	c #666666",
"       ..........       ",
"      .++++++++++.      ",
"     .+@@@@@@@@@@+.     ",
"    .+@###########+.    ",
"    .+@##$$$$$$###+.    ",
"    .+@#$      +##+.    ",
"    .+@#$      +##+.    ",
"    .+@#$      +##+.    ",
"    .+@#$      +##+.    ",
"    .+@#$      +##+.    ",
"   .++++++++++++++++.   ",
"  .+.@@@@@@@@@@@@@@@$.  ",
"  .+@#............##$.  ",
"  .+@#%%%%%%%%%%%%##$.  ",
"  .+@###############$.  ",
"  .+@#............##$.  ",
"  .+@#%%%%%%%%%%%%##$.  ",
"  .+@###############$.  ",
"  .+@#............##$.  ",
"  .+@#%%%%%%%%%%%%##$.  ",
"  .+@###############$.  ",
"  .+$$$$$$$$$$$$$$$$$.  ",
"  ....................  ",
"                        "};
