/* XPM */
static char * Fpmin_l_xpm[] = {
"21 15 3 1",
" 	c None",
".	c #E2E2E2",
"+	c #636363",
"                     ",
"                     ",
"                     ",
"                     ",
"                     ",
"         ...+        ",
"         .  +        ",
"         .  +        ",
"         .+++        ",
"                     ",
"                     ",
"                     ",
"                     ",
"                     ",
"                     "};
