/* XPM */
static char * OpenCDELogoSmall_xpm[] = {
"64 64 324 2",
"  	c #1A1866",
". 	c #191765",
"+ 	c #161463",
"@ 	c #181665",
"# 	c #171564",
"$ 	c #131161",
"% 	c #343277",
"& 	c #353378",
"* 	c #39377A",
"= 	c #292770",
"- 	c #1C1A67",
"; 	c #323075",
"> 	c #363578",
", 	c #2C2B73",
"' 	c #333176",
") 	c #373579",
"! 	c #21206B",
"~ 	c #161464",
"{ 	c #2D2B73",
"] 	c #363478",
"^ 	c #353478",
"/ 	c #2F2D73",
"( 	c #1A1865",
"_ 	c #151362",
": 	c #8281AC",
"< 	c #F4F4F8",
"[ 	c #F5F5F8",
"} 	c #F6F6F9",
"| 	c #DAD9E6",
"1 	c #2B2972",
"2 	c #323076",
"3 	c #D2D2E1",
"4 	c #FAFAFB",
"5 	c #C0BFD4",
"6 	c #494785",
"7 	c #EAE9F1",
"8 	c #2A2870",
"9 	c #030156",
"0 	c #C1C0D5",
"a 	c #F8F8FA",
"b 	c #EBEBF1",
"c 	c #53528C",
"d 	c #FEFEFE",
"e 	c #FFFFFF",
"f 	c #E8E8F0",
"g 	c #3E3D7E",
"h 	c #121061",
"i 	c #D9D9E5",
"j 	c #C3C2D7",
"k 	c #000055",
"l 	c #8F8EB4",
"m 	c #FDFDFD",
"n 	c #CCCCDC",
"o 	c #22206B",
"p 	c #020056",
"q 	c #C2C0D5",
"r 	c #6E6C9E",
"s 	c #181664",
"t 	c #1F1D69",
"u 	c #E5E5ED",
"v 	c #F7F7F9",
"w 	c #504E89",
"x 	c #110F5F",
"y 	c #D9D9E6",
"z 	c #030056",
"A 	c #A4A3C2",
"B 	c #9594B8",
"C 	c #121060",
"D 	c #C2C1D5",
"E 	c #CDCDDD",
"F 	c #0C0A5D",
"G 	c #08065A",
"H 	c #BFBFD4",
"I 	c #7877A5",
"J 	c #131060",
"K 	c #040257",
"L 	c #1B1866",
"M 	c #D0D0DF",
"N 	c #FFFFFE",
"O 	c #474683",
"P 	c #F6F6F8",
"Q 	c #373679",
"R 	c #161462",
"S 	c #656397",
"T 	c #FCFBFC",
"U 	c #B8B7CF",
"V 	c #424080",
"W 	c #D5D5E3",
"X 	c #100E5E",
"Y 	c #F0F0F5",
"Z 	c #EDEDF3",
"` 	c #7876A4",
" .	c #110F60",
"..	c #24226D",
"+.	c #C7C7DA",
"@.	c #F1F1F5",
"#.	c #3E3C7D",
"$.	c #191766",
"%.	c #9493B8",
"&.	c #100E5F",
"*.	c #F2F2F6",
"=.	c #54538C",
"-.	c #2F2D74",
";.	c #312F75",
">.	c #323176",
",.	c #28266F",
"'.	c #56548E",
").	c #F7F7FA",
"!.	c #908FB4",
"~.	c #27256E",
"{.	c #E9E9F0",
"].	c #25236D",
"^.	c #3F3E7E",
"/.	c #A4A3C1",
"(.	c #EEEEF4",
"_.	c #171563",
":.	c #7372A1",
"<.	c #FCFCFC",
"[.	c #605E94",
"}.	c #403F7F",
"|.	c #201F6A",
"1.	c #FEFEFF",
"2.	c #8382AB",
"3.	c #0C0A5C",
"4.	c #1D1A68",
"5.	c #E0DFEA",
"6.	c #ABABC7",
"7.	c #09075A",
"8.	c #8B8AB2",
"9.	c #EAEAF1",
"0.	c #22216C",
"a.	c #7F7EA9",
"b.	c #EAE9F0",
"c.	c #2C2A71",
"d.	c #060358",
"e.	c #9291B6",
"f.	c #191764",
"g.	c #25226E",
"h.	c #FAFAFC",
"i.	c #4F4D89",
"j.	c #151363",
"k.	c #FEFEFD",
"l.	c #F4F5F8",
"m.	c #5A5991",
"n.	c #B2B0CB",
"o.	c #B0B0CA",
"p.	c #0B095C",
"q.	c #0F0D5E",
"r.	c #8482AC",
"s.	c #E3E2EC",
"t.	c #6C6A9C",
"u.	c #F9F9FA",
"v.	c #09075B",
"w.	c #191665",
"x.	c #A6A5C3",
"y.	c #BCBBD1",
"z.	c #434181",
"A.	c #ECECF2",
"B.	c #3A387B",
"C.	c #000052",
"D.	c #23216C",
"E.	c #211F6A",
"F.	c #00004E",
"G.	c #413F7F",
"H.	c #2C2A72",
"I.	c #D3D3E2",
"J.	c #6E6C9D",
"K.	c #0F0D5F",
"L.	c #C0C0D5",
"M.	c #A1A0C0",
"N.	c #00004B",
"O.	c #C2C1D6",
"P.	c #EFEFF4",
"Q.	c #070559",
"R.	c #343177",
"S.	c #DDDCE8",
"T.	c #4F4E89",
"U.	c #141262",
"V.	c #A3A2C1",
"W.	c #BDBDD2",
"X.	c #908FB5",
"Y.	c #9190B5",
"Z.	c #9695B9",
"`.	c #605F95",
" +	c #E3E3EC",
".+	c #F9F9FB",
"++	c #8988B0",
"@+	c #C6C5D9",
"#+	c #000051",
"$+	c #AFAEC9",
"%+	c #141261",
"&+	c #444281",
"*+	c #E7E7EF",
"=+	c #2B2971",
"-+	c #7D7BA7",
";+	c #CACADB",
">+	c #010055",
",+	c #A7A5C3",
"'+	c #464583",
")+	c #151262",
"!+	c #7574A3",
"~+	c #CCCCDD",
"{+	c #7D7BA8",
"]+	c #C9C9DB",
"^+	c #000054",
"/+	c #AAA8C5",
"(+	c #3E3C7E",
"_+	c #E4E3ED",
":+	c #F9FAFB",
"<+	c #8888AF",
"[+	c #C6C5D8",
"}+	c #A8A7C5",
"|+	c #9695B8",
"1+	c #9998BA",
"2+	c #6C6B9D",
"3+	c #DDDDE8",
"4+	c #4E4C88",
"5+	c #A2A1C0",
"6+	c #00004A",
"7+	c #3D3C7D",
"8+	c #161363",
"9+	c #2C2B72",
"0+	c #D4D4E2",
"a+	c #131262",
"b+	c #A1A1C0",
"c+	c #00004C",
"d+	c #24216C",
"e+	c #C0BFD5",
"f+	c #7674A3",
"g+	c #A9A8C5",
"h+	c #B7B7CE",
"i+	c #1B1966",
"j+	c #403E7F",
"k+	c #3F3D7E",
"l+	c #8A89B1",
"m+	c #E2E2EB",
"n+	c #646398",
"o+	c #52508B",
"p+	c #F1F1F6",
"q+	c #BDBCD3",
"r+	c #0A085C",
"s+	c #121161",
"t+	c #FBFAFC",
"u+	c #8584AE",
"v+	c #1D1B68",
"w+	c #EDECF2",
"x+	c #626296",
"y+	c #141161",
"z+	c #ABAAC7",
"A+	c #D7D6E4",
"B+	c #68679A",
"C+	c #333277",
"D+	c #353377",
"E+	c #51518C",
"F+	c #1A1765",
"G+	c #C3C3D7",
"H+	c #1C1A68",
"I+	c #CAC9DB",
"J+	c #D1D0E0",
"K+	c #181765",
"L+	c #494886",
"M+	c #7B79A6",
"N+	c #7373A1",
"O+	c #5E5D92",
"P+	c #CBCADC",
"Q+	c #3C3A7C",
"R+	c #38367A",
"S+	c #E2E1EB",
"T+	c #CECDDD",
"U+	c #1D1C67",
"V+	c #5D5B92",
"W+	c #B1B0CB",
"X+	c #3C3B7C",
"Y+	c #A3A3C2",
"Z+	c #FCFCFD",
"`+	c #7270A0",
" @	c #141362",
".@	c #1E1C69",
"+@	c #C8C8DA",
"@@	c #3A387C",
"#@	c #646297",
"$@	c #656398",
"%@	c #69689B",
"&@	c #454382",
"*@	c #2E2D73",
"=@	c #7473A1",
"-@	c #9694B7",
";@	c #F9F8FB",
">@	c #6C6B9C",
",@	c #8280AC",
"'@	c #292870",
")@	c #F3F2F7",
"!@	c #2F2C74",
"~@	c #8281AB",
"{@	c #D6D6E3",
"]@	c #6D6B9D",
"^@	c #0D0B5D",
"/@	c #3A3A7C",
"(@	c #5F5E94",
"_@	c #DADAE6",
":@	c #C5C5D8",
"<@	c #B1B0CA",
"[@	c #B0AFCA",
"}@	c #626196",
"|@	c #666599",
"1@	c #DCDCE7",
"2@	c #DDDCE7",
"3@	c #DDDDE7",
"4@	c #2E2C73",
"5@	c #C3C1D7",
"6@	c #E4E4EC",
"7@	c #A8A8C5",
"8@	c #54528C",
"9@	c #DFDEE9",
"0@	c #C5C4D8",
"a@	c #060458",
"b@	c #E1E0EA",
"c@	c #D1D1E0",
"d@	c #2D2C73",
"e@	c #23216B",
"f@	c #24226C",
"g@	c #25246D",
"h@	c #23226C",
"i@	c #1B1A66",
"                                                                                                                                ",
"                                                                                                                                ",
"                                                                                                                                ",
"                                                                                                                                ",
"                                                                                                                                ",
"                                                                                                                                ",
"                                                                                                                                ",
"                                                                                                                                ",
"                                                                                                                                ",
"                                                                                                                                ",
"                            . + + + + + + @   . + + + + # # + + + + + # .           .   # + + + + + + + + . .                   ",
"                        . . $ % & & & & * = . - ; & & > , ' ) & & & ) ! +             ~ { ] & & & & & ^ / (   .                 ",
"                      .   _ : < [ [ [ } | 1   2 3 [ [ 4 5 6 4 [ [ [ [ 7 8 # .         9 0 a [ [ [ [ [ [ b ^ .                   ",
"                    .   # c a d e d e f g h . 2 i e e e j k l d m e d e n o .   .     p q e e e e e e d e r _   .               ",
"                      s t u e d e e v w x   . 2 y e e e j z # A e d e d e B C (       p D e e e e e e d e E F                   ",
"                    ( G H e d e d e I J     . 2 y e e e j K . L M e d e e N O +       p D e e d e d e e e P Q R                 ",
"                .   $ S T d e d N U +   .   . 2 y e e e j K   ~ V [ e e d e W X .     p D e e e m Y Z Z Z v `  .                ",
"                  . ..+.e e e d @.#.+ $.    . 2 y e e e j K   . + %.e d e d e ` &.    p D e e d *.=.-.;.;.>.,.s                 ",
"                  s '.).e d d e !.h . .     . 2 y e e e j K     s ~.{.d e e d W ]..   p D e e e Y ^.+ s s s . .                 ",
"              .   s /.e d e e (.]._.        . 2 y e e e j K       &.:.e d e e <.[.s   p D e e e Y }.#                           ",
"                @ |.e N d 1.e 2.3.          . 2 y e e e j K       @ 4.5.e 1.d e 6.s   p D e e e Y }.#                           ",
"            .   7.8.e d e e 9.0.    .       . 2 y e e e j K     .   &.a.e d e e b.c.. p D e e e Y }.#                           ",
"              . d.P e e d e e.f.            . 2 y e e e j K         . g.h.e e d e i.j.p D e e e Y }.#                           ",
"              $ 6 m d e k.l.m.s .           . 2 y e e e j K       .   _ n.e e d e o.p.p D e e e Y }.#                           ",
"            . q.r.d e 1.N s.{ .             . 2 y e e e j K           _.t.e 1.e e u.v.p D e e e Y }.#                           ",
"            . w.x.m e N e y.- .             . 2 y e e e j K           @ z.A.e e d e B.C.D e e e Y }.#                           ",
"            . D.H d d d e e. ..             . 2 y e e e j K           . E.W d e e e :.F.D e e e Y G.s           .               ",
"            . H.I.e e e e J.K.(             . 2 y e e e j K           . $ L.e d d e M.N.O.e e e P.' Q.7.7.7.&.(                 ",
"            . R.S.e e e m T.h               . 2 y e e e j K           . U.V.e e e d W.N.O.e e d a A X.Y.Y.Z.`.+ .               ",
"            . g  +e e e .+) _               . 2 y e e e j K           . U.++e e d e @+#+D e e e d e e e e e $+%+.               ",
"              &+*+e e e a =++               . 2 y e e e j K           . U.-+e e e e ;+>+D e e d e d e e e e ,+$ .               ",
"              '+{.e e e v ].+               . 2 y e e e j K           . )+!+e e e e ~+9 D e e e e e e e e e ,+$ .               ",
"              &+*+e e e a H.+               . 2 y e e e j K           . _ {+e e e e ]+^+D e e e N e e e e e /+$ .               ",
"            . (+_+e e e :+> _               . 2 y e e e j K           . U.<+e e e e [+#+D e e e ).}+B |+|+1+2++ .               ",
"            . % 3+e e e m 4+$               . 2 y e e e j K           . U.5+e e e e W.6+O.e e d Y 7+$ + + 8+#                   ",
"            . 9+0+e e e e 2+K.              . 2 y e e e j K           . a+O.e e e e b+c+O.e e e Y }.#                           ",
"            . d+e+d d d e X.&..             . 2 y e e e j K           . t 0+d d e e f+F.D e e e Y }.#                           ",
"            . . g+m e e e h+i+.             . 2 y e e e j K         . . j+9.e e d e k+C.D e e e Y }.#                           ",
"            . q.l+d d d d m+,..             . 2 y e e e j K           _.n+e d d e e 7.p D e e e Y }.#                           ",
"              $ o+m d e e p+o+@ .           . 2 y e e e j K       .   j.A e e d e q+r+p D e e e Y }.#                           ",
"              s s+t+d e d e u+s             . 2 y e e e j K         ( v+w+e e d e x+y+p D e e e Y }.#                           ",
"                d.z+e d e e A+-   .         . 2 y e e e j K          .B+e N d e [ C+@ p D e e e Y }.#                           ",
"                j.D+e d d d e E+$   F+      . 2 y e e e j K       . _ G+e 1.d e H H+  p D e e e Y }.#                           ",
"              .   U.I+e d d e J+$ K+        . 2 y e e e j K       U.L+e e d d e M+~   p D e e e Y }.#                           ",
"                  s N+e e e d e O+C         . 2 y e e e j K   . . 3.P+e d e e 9.Q+s   p D e e e Y }.#                           ",
"                  . R+S+e e e e T+U+@ .     . 2 y e e e j K     8+V+} d e d e W+$     p D e e e Y X+C U.U.U.#                   ",
"                .   + Y+d e e m Z+`+ @  .   . 2 y e e e j K   . .@+@e e e d e @@U.    p D e e d [ a.#@$@$@%@&@+ $.              ",
"                    + *@4 d d d 1.A.,..   . . 2 y e e e j K   $ =@e e e d e -@ .. $.  p D e e e m 4 ;@.+.+e >@ .                ",
"                      G ,@e d d d e $+_ .   . 2 y e e e j K j.^ a e d e e *+'@#       p D e e d e d e e e )@!@~                 ",
"                    $.( j.0 e d e e e ~@3.  . 2 y e e e j >+8 {@e d e d e ]@%+.       p D e e e e e e d e H ^@                  ",
"                    .   s /@Z e e e e a (@$   2 _@e e e :@Q.<@e e e e e [@s .   .     p j e e e e e e e e }@+   .               ",
"                      .   _ |@1@2@3@3@3+~+% s 4@5@3@3@6@7@8@m+3@3@3@9@0@v+s .         a@}+b@3@3@3@3@3@3+c@d@  .                 ",
"                        . . j.e@f@f@f@f@g@t .   o f@f@f@|.h@].f@f@f@..i@#             @ E.f@f@f@f@f@f@f@E..                     ",
"                            . @ @ @ @ @ @ .   . @ @ @ @ @ . @ @ @ @ @ . .           .   @ @ @ @ @ @ @ @ @ . .                   ",
"                                                                                                                                ",
"                                                                                                                                ",
"                                                                                                                                ",
"                                                                                                                                ",
"                                                                                                                                ",
"                                                                                                                                ",
"                                                                                                                                ",
"                                                                                                                                ",
"                                                                                                                                ",
"                                                                                                                                "};
