/* XPM */
static char * OpenCDELogoSmall_xpm[] = {
"64 64 217 2",
"  	c None",
". 	c #1E216F",
"+ 	c #1F2270",
"@ 	c #1C1F6E",
"# 	c #1D206E",
"$ 	c #1C206E",
"% 	c #16196A",
"& 	c #141769",
"* 	c #181C6C",
"= 	c #3D3F82",
"- 	c #3B3D81",
"; 	c #383A7F",
"> 	c #171A6B",
", 	c #3E4083",
"' 	c #424586",
") 	c #242773",
"! 	c #3A3C80",
"~ 	c #242673",
"{ 	c #A1A1C1",
"] 	c #C2C2D7",
"^ 	c #BFBFD5",
"/ 	c #C2C3D7",
"( 	c #7F80AC",
"_ 	c #121668",
": 	c #1D1F6D",
"< 	c #FFFFFF",
"[ 	c #F8F7F9",
"} 	c #0E1165",
"| 	c #0C0F63",
"1 	c #C5C5D8",
"2 	c #C4C4D8",
"3 	c #00035C",
"4 	c #50528F",
"5 	c #181B6B",
"6 	c #FBFAFB",
"7 	c #64659A",
"8 	c #191C6C",
"9 	c #FEFEFE",
"0 	c #EBEAF1",
"a 	c #0F1266",
"b 	c #15186A",
"c 	c #8C8CB4",
"d 	c #D7D8E5",
"e 	c #0B0E63",
"f 	c #0D1064",
"g 	c #FFFEFE",
"h 	c #4D4F8D",
"i 	c #1D206F",
"j 	c #272A75",
"k 	c #272A74",
"l 	c #37397E",
"m 	c #FDFDFD",
"n 	c #131668",
"o 	c #191D6C",
"p 	c #5D5E96",
"q 	c #D7D7E4",
"r 	c #0C0F64",
"s 	c #E2E2EC",
"t 	c #414385",
"u 	c #505390",
"v 	c #0F1265",
"w 	c #BCBDD4",
"x 	c #1B1F6E",
"y 	c #1B1E6E",
"z 	c #616399",
"A 	c #A9A9C7",
"B 	c #0C0E62",
"C 	c #20226F",
"D 	c #1F226F",
"E 	c #1E2170",
"F 	c #1A1D6C",
"G 	c #EDEDF2",
"H 	c #0A0E63",
"I 	c #EAE9F0",
"J 	c #0A0D62",
"K 	c #8B8CB4",
"L 	c #565892",
"M 	c #4C4E8C",
"N 	c #898AB3",
"O 	c #121567",
"P 	c #C5C5D9",
"Q 	c #B3B3CD",
"R 	c #161869",
"S 	c #9B9CBE",
"T 	c #1B1D6C",
"U 	c #A9AAC7",
"V 	c #32347B",
"W 	c #6D6EA1",
"X 	c #1A1D6D",
"Y 	c #0C1064",
"Z 	c #4F518E",
"` 	c #494B8A",
" .	c #B4B4CE",
"..	c #151869",
"+.	c #090D62",
"@.	c #9191B8",
"#.	c #9D9DBF",
"$.	c #EFEEF4",
"%.	c #0D1065",
"&.	c #03075E",
"*.	c #C6C7DA",
"=.	c #BEBED5",
"-.	c #1B1E6D",
";.	c #5E6098",
">.	c #141768",
",.	c #1C1F6D",
"'.	c #00025B",
").	c #F1F0F5",
"!.	c #070B61",
"~.	c #31337A",
"{.	c #3D3F83",
"].	c #000059",
"^.	c #5F6098",
"/.	c #454686",
"(.	c #545590",
"_.	c #575892",
":.	c #2A2C76",
"<.	c #0F1164",
"[.	c #565791",
"}.	c #1A1C6B",
"|.	c #101265",
"1.	c #434687",
"2.	c #FDFDFE",
"3.	c #4F528F",
"4.	c #68699D",
"5.	c #191B6B",
"6.	c #36387E",
"7.	c #F7F7F9",
"8.	c #6F71A2",
"9.	c #1E216E",
"0.	c #FDFCFD",
"a.	c #6B6CA0",
"b.	c #17196A",
"c.	c #3C3E82",
"d.	c #515390",
"e.	c #606198",
"f.	c #191C6B",
"g.	c #02055C",
"h.	c #52538F",
"i.	c #000055",
"j.	c #1E206E",
"k.	c #4A4C8B",
"l.	c #1A1C6C",
"m.	c #00005A",
"n.	c #7475A5",
"o.	c #484A89",
"p.	c #282A75",
"q.	c #1C1E6D",
"r.	c #01055D",
"s.	c #DDDCE8",
"t.	c #A1A2C2",
"u.	c #7C7DAA",
"v.	c #0B0E62",
"w.	c #060A60",
"x.	c #ADADCA",
"y.	c #DFDFE9",
"z.	c #BDBDD4",
"A.	c #D5D5E3",
"B.	c #111467",
"C.	c #7576A6",
"D.	c #9697BC",
"E.	c #0D1165",
"F.	c #30327A",
"G.	c #6C6DA1",
"H.	c #5A5B94",
"I.	c #4F508D",
"J.	c #F0F0F5",
"K.	c #D1D1E0",
"L.	c #101366",
"M.	c #121568",
"N.	c #181B6C",
"O.	c #9697BB",
"P.	c #2D2F78",
"Q.	c #1D216F",
"R.	c #272974",
"S.	c #2E3078",
"T.	c #ADADC9",
"U.	c #ACACC9",
"V.	c #3B3C80",
"W.	c #D0D0E0",
"X.	c #2B2D76",
"Y.	c #D8D8E5",
"Z.	c #4F518D",
"`.	c #0F1366",
" +	c #000056",
".+	c #CECEDE",
"++	c #4E508D",
"@+	c #D9D9E6",
"#+	c #4E508C",
"$+	c #4E508E",
"%+	c #65669B",
"&+	c #D1D1E1",
"*+	c #232572",
"=+	c #2B2D77",
"-+	c #9A9ABD",
";+	c #CCCCDD",
">+	c #EDECF2",
",+	c #7B7CA9",
"'+	c #F4F3F7",
")+	c #0E1265",
"!+	c #E1E0EB",
"~+	c #02065E",
"{+	c #4F518F",
"]+	c #141869",
"^+	c #B2B2CB",
"/+	c #E6E5ED",
"(+	c #E9E8EF",
"_+	c #AAAAC6",
":+	c #67689C",
"<+	c #626399",
"[+	c #5C5C95",
"}+	c #67679C",
"|+	c #616299",
"1+	c #6F70A1",
"2+	c #616298",
"3+	c #66669B",
"4+	c #2C2F78",
". . . . . . . . . . . . . . . . . . . . . . . . . . . . . . . . . . . . . . . . . . . . . . . . . . . . . . . . . . . . . . . . ",
". . . . . . . . . . . . . . . . . . . . . . . . . . . . . . . . . . . . . . . . . . . . . . . . . . . . . . . . . . . . . . . . ",
". . . . . . . . . . . . . . . . . . . . . . . . . . . . . . . . . . . . . . . . . . . . . . . . . . . . . . . . . . . . . . . . ",
". . . . . . . . . . . . . . . . . . . . . . . . . . . . . . . . . . . . . . . . . . . . . . . . . . . . . . . . . . . . . . . . ",
". . . . . . . . . . . . . . . . . . . . . . . . . . . . . . . . . . . . . . . . . . . . . . . . . . . . . . . . . . . . . . . . ",
". . . . . . . . . . . . . . . . . . . . . . . . . . . . . . . . . . . . . . . . . . . . . . . . . . . . . . . . . . . . . . . . ",
". . . . . . . . . . . . . . . . . . . . . . . . . . . . . . . . . . . . . . . . . . . . . . . . . . . . . . . . . . . . . . . . ",
". . . . . . . . . . . . . . . . . . . . . . . . . . . . . . . . . . . . . . . . . . . . . . . . . . . . . . . . . . . . . . . . ",
". . . . . . . . . . . . . . . . . . . . . . . . . . . . . . . . . . . . . . . . . . . . . . . . . . . . . . . . . . . . . . . . ",
". . . . . . . . . . . . . . . . . . . . . . . . . . . . . . . . . . . . . . . . . . . . . . . . . . . . . . . . . . . . . . . . ",
". . . . . . . . . . . . . . . . . . . . . . . . . . . . . . . . . . . . . . . . . . . . . . . . . . . . . . . . . . . . . . . . ",
". . . . . . . . . . . . . . . . . . . . . . . . . . . . . . . . . . . . . . . . . . . . . . . . . . . . . . . . . . . . . . . . ",
". . . . . . . . . . . . . . . . . . . . . . . . . . . . . . . . . . . . . . . . . . . . . . . . . . . . . . . . . . . . . . . . ",
". . . . . . . . . . . . . . . . . . . . . . . . . . . . . . . . . . . . . . . . . . . . . . . . . . . . . . . . . . . . . . . . ",
". . . . . . . . . . . . . . . . . . . . . . . . + + @ # # # + . . . . + . @ # # # @ . # # # # # # $ . + . . . . . . . . . . . . ",
". . . . . . . . . . . . + % & & & & * + . . . . . . = - - ; # . . . + + > , - - - ' ) ! - - - - - = ~ . . . . . . . . . . . . . ",
". . . . . . . . . . . . % { ] ^ ^ / ( _ + . . . . : < < < [ } . . . + | 1 < < < < 2 3 < < < < < < < 4 @ . . . . . . . . . . . . ",
". . . . . . . . . . . . . 5 6 < < < < 7 8 + . . . : < 9 < 0 a . . + b c < 9 9 < d e f g < 9 9 9 9 < h @ . . . . . . . . . . . . ",
". . . . . . . . . . . . + i j < 9 9 9 < k . . . . : < 9 < 0 a . + i l < 9 9 < m n . f g < 9 9 9 9 < h @ . . . . . . . . . . . . ",
". . . . . . . . . . . . . + o p < 9 9 < q r + . . : < 9 < 0 a . + e s < 9 9 < t @ + f g < 9 m < < < u @ . . . . . . . . . . . . ",
". . . . . . . . . . . . . . + v w < 9 9 < p x + . : < 9 < 0 a . y z < 9 9 < A _ + . f g < 9 < B C C D E . . . . . . . . . . . . ",
". . . . . . . . . . . . . . . . F < < 9 < G e + . : < 9 < 0 a + H I < 9 < < % . . . f g < 9 < J . . . + . . . . . . . . . . . . ",
". . . . . . . . . . . . . . . + 5 K < 9 9 < L @ . : < 9 < 0 a @ M < 9 9 < N 5 + . . f g < 9 < e . . . . . . . . . . . . . . . . ",
". . . . . . . . . . . . . . . . . O < < 9 < P _ . : < 9 < 0 a b Q < 9 < < R . . . . f g < 9 < e . . . . . . . . . . . . . . . . ",
". . . . . . . . . . . . . . . . + > S < 9 9 < T i : < 9 < 0 a f < < 9 < U % + . . . f g < 9 < e . . . . . . . . . . . . . . . . ",
". . . . . . . . . . . . . . . . . i V < 9 9 < W X : < 9 < 0 Y Z < 9 9 < ` @ . . . . f g < 9 < e . . . . . . . . . . . . . . . . ",
". . . . . . . . . . . . . . . . . + Y I < 9 <  ...: < 9 < 0 +.@.< 9 < < e + . . . . f g < 9 < e . . . . . . . . . . . . . . . . ",
". . . . . . . . . . . . . . . . . . 5 #.< 9 < $.%.: < 9 < 0 &.*.< 9 < =.& + . . . . f g < 9 < e . . . . . . . . . . . . . . . . ",
". . . . . . . . . . . . . . . . . . -.;.< 9 9 < >.,.< 9 < 0 '.).< 9 < N o . . . . . f g < 9 < !.@ y . + . . . . . . . . . . . . ",
". . . . . . . . . . . . . . . . . . i ~.< 9 9 < {.T < 9 < 0 ].< < 9 < ^.-.. . . . . f g < 9 < /.(._.:.. . . . . . . . . . . . . ",
". . . . . . . . . . . . . . . . . . . <.< < 9 < [.}.< 9 < I |.< 9 9 < 1.@ . . . . . f g < 9 2.< < < 3.@ . . . . . . . . . . . . ",
". . . . . . . . . . . . . . . . . . + Y < < 9 < 4.5.< 9 < I T < 9 9 < 6.# . . . . . f g < 9 9 9 9 < h @ . . . . . . . . . . . . ",
". . . . . . . . . . . . . . . . . . . } 7.< 9 < 8.5.< 9 < I 9.< 9 9 < V i . . . . . f g < 9 9 9 9 < h @ . . . . . . . . . . . . ",
". . . . . . . . . . . . . . . . . . . f 0.< 9 < a.5.< 9 < I b.< 9 9 < c.# . . . . . f g < 9 m < < < d.@ . . . . . . . . . . . . ",
". . . . . . . . . . . . . . . . . . + J < < 9 < e.f.< 9 < 0 g.< 9 9 < h.@ . . . . . f g < 9 < i.e +.X + . . . . . . . . . . . . ",
". . . . . . . . . . . . . . . . . . . j.< 9 9 < k.l.< 9 < 0 m.< < 9 < n.X . . . . . f g < 9 < e . . . . . . . . . . . . . . . . ",
". . . . . . . . . . . . . . . . . . @ o.< 9 9 < p.q.< 9 < 0 r.s.< 9 < t.> . . . . . f g < 9 < e . . . . . . . . . . . . . . . . ",
". . . . . . . . . . . . . . . . . . X u.< 9 < < v.: < 9 < 0 w.x.< 9 < y.a + . . . . f g < 9 < e . . . . . . . . . . . . . . . . ",
". . . . . . . . . . . . . . . . . + & z.< 9 < A.B.: < 9 < 0 e C.< 9 9 < q.. . . . . f g < 9 < e . . . . . . . . . . . . . . . . ",
". . . . . . . . . . . . . . . . . E | < < 9 < D.5 : < 9 < 0 E.F.< 9 9 < G.-.. . . . f g < 9 < e . . . . . . . . . . . . . . . . ",
". . . . . . . . . . . . . . . . . @ H.< 9 9 < I.-.: < 9 < 0 a r J.< 9 < K.L.+ . . . f g < 9 < e . . . . . . . . . . . . . . . . ",
". . . . . . . . . . . . . . . . + M.] < 9 < < r . : < 9 < 0 a N.O.< 9 9 < P.i . . . f g < 9 < e . . . . . . . . . . . . . . . . ",
". . . . . . . . . . . . . . . . Q.R.< 9 9 < U % . : < 9 < 0 a i S.< 9 9 < T.& + . . f g < 9 < e . . . . . . . . . . . . . . . . ",
". . . . . . . . . . . . . . . + & U.< 9 9 < V.# . : < 9 < 0 a + L.W.< 9 9 < R.. . . f g < 9 < e . . . . . . . . . . . . . . . . ",
". . . . . . . . . . . . . . . i X.< 9 9 < Y.} + . : < 9 < 0 a . @ Z.< 9 9 < ^ `.+ . f g < 9 <  +r e -.+ . . . . . . . . . . . . ",
". . . . . . . . . . . . . . + r .+< 9 9 < ++@ . . : < 9 < 0 a . + Y @+< 9 9 < #+y + f g < 9 9 < < < $+@ . . . . . . . . . . . . ",
". . . . . . . . . . . . . + 8 %+< 9 9 < &+E.+ . . : < 9 < 0 a . . i l < 9 9 < 9 n . f g < 9 9 < < < h @ . . . . . . . . . . . . ",
". . . . . . . . . . . . + Q.*+< < 9 9 < =+Q.. . . : < 9 < 0 a . . + & -+< 9 9 < ;+e %.g < 9 9 9 9 < h @ . . . . . . . . . . . . ",
". . . . . . . . . . . . + L.>+< < < < ,+> + . . . : < < < '+)+. . . + f !+< < < < t.~+< < < < < < < {+@ . . . . . . . . . . . . ",
". . . . . . . . . . . . ]+^+0 /+/+(+_+%.+ . . . . j.:+<+<+[+X . . . + . D }+<+<+|+1++ 2+<+<+<+<+<+3+4+. . . . . . . . . . . . . ",
". . . . . . . . . . . . + n `.L.L.`.b + . . . . + + -.-.-.y + . . . . + . -.-.-.-.-.+ -.-.-.-.-.-.-.. + . . . . . . . . . . . . ",
". . . . . . . . . . . . . . . . . . . . . . . . . . . . . . . . . . . . . . . . . . . . . . . . . . . . . . . . . . . . . . . . ",
". . . . . . . . . . . . . . . . . . . . . . . . . . . . . . . . . . . . . . . . . . . . . . . . . . . . . . . . . . . . . . . . ",
". . . . . . . . . . . . . . . . . . . . . . . . . . . . . . . . . . . . . . . . . . . . . . . . . . . . . . . . . . . . . . . . ",
". . . . . . . . . . . . . . . . . . . . . . . . . . . . . . . . . . . . . . . . . . . . . . . . . . . . . . . . . . . . . . . . ",
". . . . . . . . . . . . . . . . . . . . . . . . . . . . . . . . . . . . . . . . . . . . . . . . . . . . . . . . . . . . . . . . ",
". . . . . . . . . . . . . . . . . . . . . . . . . . . . . . . . . . . . . . . . . . . . . . . . . . . . . . . . . . . . . . . . ",
". . . . . . . . . . . . . . . . . . . . . . . . . . . . . . . . . . . . . . . . . . . . . . . . . . . . . . . . . . . . . . . . ",
". . . . . . . . . . . . . . . . . . . . . . . . . . . . . . . . . . . . . . . . . . . . . . . . . . . . . . . . . . . . . . . . ",
". . . . . . . . . . . . . . . . . . . . . . . . . . . . . . . . . . . . . . . . . . . . . . . . . . . . . . . . . . . . . . . . ",
". . . . . . . . . . . . . . . . . . . . . . . . . . . . . . . . . . . . . . . . . . . . . . . . . . . . . . . . . . . . . . . . ",
". . . . . . . . . . . . . . . . . . . . . . . . . . . . . . . . . . . . . . . . . . . . . . . . . . . . . . . . . . . . . . . . ",
". . . . . . . . . . . . . . . . . . . . . . . . . . . . . . . . . . . . . . . . . . . . . . . . . . . . . . . . . . . . . . . . ",
". . . . . . . . . . . . . . . . . . . . . . . . . . . . . . . . . . . . . . . . . . . . . . . . . . . . . . . . . . . . . . . . "};
