/* XPM */
static char * SDtmedia_unm_m_xpm[] = {
"32 32 14 1",
" 	c None",
".	c #212121",
"+	c #737373",
"@	c #ADADAD",
"#	c #424242",
"$	c #DEDEDE",
"%	c #000000",
"&	c #BDBDBD",
"*	c #FFFFFF",
"=	c #FFFF00",
"-	c #00FF00",
";	c #00FFFF",
">	c #FF0000",
",	c #0000FF",
"                                ",
"                                ",
"    ...............             ",
"   .++@#$$$$$$%$#++%            ",
"   .++@#$$$$$$%$#+++%           ",
"   .++@#$$$$$$%$#+++%           ",
"   .++@#$$$$$$$$#+++%           ",
"   .++@#$$$$$$$$#+++%           ",
"   .++##########++++%           ",
"   .++++++++++++++++%           ",
"   .++++++++++++..............  ",
"   .++@@@@@@@@@.#+#++#$$$$$#@+% ",
"   .++@&&&&&&&.+#+#++#$$$$$#@+#%",
"   .++######+&.+#+#++#######@+#%",
"   .##&$*$$$&#++#+@@@@@@@@@@@+#%",
"   #=$$-*$$$$;&##+++++++++++++#%",
"  #&*=$$-$$$$;$@#+++++++++++++#%",
" +&$$*=$-*$$;$*@@###########++#%",
" #$;$$*==-$;;*$@@#%%%%%%%%%%@+#%",
"+&==;;$*+++;**$$$@>>%,,,,,,%@+#%",
"#$;;==;+*$*+$$$$$$#>%,,,,>,%@+#%",
"#$$*;;+*$+$*+$$***+%%%##%%%%@+#%",
"#$$$$$+$+$#$+**;;;+*********@+#%",
"#$$$$$+*$#$*+;;;$$+*********@+#%",
"#$$$$$$+*$*+$$$$$$+*********@+#%",
"+&$$$;;*+++;*$$$$$+*********@+#%",
" #$;;$**=$$$;*$@@+@@@@@@@@@@++#%",
" +&$$*$=$$$$$;*@@+#############%",
"  #&&&$=$$$$$@@@+%%%%%%%%%%%%%% ",
"   #&&&&&&&&@@@+                ",
"    +#&&&&&&@#+                 ",
"      +#####+                   "};
